<?xml version="1.0" encoding="utf-8"?>
<!-- Generator: Adobe Illustrator 15.1.0, SVG Export Plug-In . SVG Version: 6.00 Build 0)  -->
<!DOCTYPE svg PUBLIC "-//W3C//DTD SVG 1.1//EN" "http://www.w3.org/Graphics/SVG/1.1/DTD/svg11.dtd">
<svg version="1.1" id="Layer_1" xmlns="http://www.w3.org/2000/svg" xmlns:xlink="http://www.w3.org/1999/xlink" x="0px" y="0px"
	 width="158px" height="52.25px" viewBox="-99.625 0 158 52.25" enable-background="new -99.625 0 158 52.25" xml:space="preserve">
<g>
	<path d="M24.014,20.69c-4.79,0.952-9.725,1.692-14.754,2.626c-0.692,0.129-1.571,0.462-2.067,0.392
		c-0.52-0.074-1.401-0.894-1.957-1.284c-1.973-1.386-3.778-2.663-5.588-4.081c5.926-0.812,12.584-1.692,18.275-2.515
		c0.64-0.093,1.195,0.614,1.788,1.119C21.17,18.188,22.831,19.581,24.014,20.69z"/>
	<path d="M49.497,18.343c-0.16,0.329-0.554,0.469-0.838,0.67c-1.857,1.315-3.695,2.616-5.701,4.024
		c-0.321,0.226-0.699,0.627-0.95,0.67c-0.494,0.086-1.427-0.263-2.123-0.392c-4.908-0.912-9.929-1.658-14.697-2.626
		c-0.039-0.182,0.318-0.348,0.559-0.558c1.532-1.332,3.321-2.93,4.917-4.248c0.059-0.045,0.111-0.122,0.225-0.111
		C36.727,16.43,43.488,17.669,49.497,18.343z"/>
	<g>
		<path fill="#86C800" d="M32.842,13.903c1.405-3.799,4.213-7.256,3.963-11.368c-0.078-0.175-0.156-0.347-0.234-0.521
			c-0.773,0.044-1.855,0.911-2.379,0.291c-2.91,3.117-3.604,7.071-7.108,9.965c-1.382-0.849-2.267,1.37-3.151,2.053
			c-0.955-0.146-1.714-0.806-2.15-2.324c1.128-0.654,2.186-1.335,2.017-2.48c-0.59,0.535-1.054,1.689-2.239,1.64
			c-0.118-0.26-0.236-0.52-0.355-0.782c0.971-0.75,2.252-1.385,1.958-2.612c-0.597,1.665-2.281,1.349-4.253,2.396
			c-1.465,0.777-2.23,1.569-3.376,1.213c0.574,0.864,1.729,0.193,2.545,0.419c0.182,1.028-1.797,0.68-1.577,1.026
			c0.454,0.289-0.013,0.211-0.333,0.308c0.582,0.851,1.739,0.168,2.543,0.419c-0.146,0.654-1.104,1.086-1.693,0.767
			c1.039,1.583,3.063-1.119,3.448-1.406c0.293,0.655,0.588,1.306,0.883,1.957c-0.921,1.347,0.524,3.584-1.014,4.698
			c-0.105-0.2-0.188-0.461-0.438-0.274c-0.938,1.765-1.503,3.619-1.88,5.559c-0.174,0.89-0.394,2.075-0.452,3.31l7.062,2.312
			l5.376-1.896c0.062-0.146,0.119-0.292,0.176-0.438c1.639-4.35,3.805-10.026,4.522-14.289
			C34.325,13.221,33.584,13.56,32.842,13.903z M18.097,12.883c0.249-0.271,1.291-1.169,1.732-1.725
			C20.034,12.027,18.864,12.378,18.097,12.883z"/>
	</g>
	<path d="M6.075,24.379c5.86,1.908,11.661,3.876,17.547,5.755c-1.65,2.15-3.393,4.21-5.141,6.261
		c-5.868-1.897-11.67-3.863-17.548-5.758C2.583,28.489,4.325,26.431,6.075,24.379z"/>
	<path d="M42.624,24.379c1.749,2.012,3.606,4.217,5.142,6.258c-5.848,1.903-11.662,3.84-17.492,5.758
		c-1.812-2.004-3.502-4.137-5.197-6.261C30.971,28.261,36.771,26.295,42.624,24.379z"/>
	<path d="M24.014,30.47c0.129,5.796,0.019,11.83,0.055,17.716c-6.018-2.01-12.067-3.99-18.106-5.979c0-3.129,0-6.259,0-9.389
		c3.603,1.211,7.279,2.396,11.065,3.635c0.494,0.156,1.244,0.549,1.565,0.501c0.416-0.062,1.016-1.104,1.396-1.562
		C21.321,33.789,22.876,31.991,24.014,30.47z"/>
	<path d="M24.628,30.47c1.198,1.433,2.72,3.239,4.08,4.919c0.375,0.465,1.017,1.491,1.396,1.563c0.32,0.062,1.138-0.339,1.621-0.501
		c3.603-1.211,7.426-2.396,10.953-3.635c0.131,3.019,0.021,6.277,0.055,9.389c-6.01,2.001-12.068,3.95-18.048,5.98
		C24.554,42.393,24.666,36.357,24.628,30.47z"/>
</g>
<g>
	<path d="M-75.242,22.624c0,0.132-0.044,0.235-0.132,0.308c-0.088,0.073-0.198,0.11-0.33,0.11c-0.103,0-0.194-0.025-0.275-0.077
		c-0.081-0.051-0.136-0.121-0.165-0.209l-1.848-4.532l0.022,0.044h-7.37l-1.782,4.488c-0.074,0.191-0.206,0.286-0.396,0.286
		c-0.132,0-0.238-0.037-0.319-0.11c-0.081-0.073-0.128-0.161-0.143-0.264c-0.015-0.059-0.008-0.132,0.022-0.22l5.918-14.564
		c0.044-0.117,0.099-0.194,0.165-0.231c0.066-0.036,0.15-0.055,0.253-0.055c0.22,0,0.367,0.095,0.44,0.286l5.918,14.564
		C-75.25,22.492-75.242,22.55-75.242,22.624z M-84.988,17.388h6.666l-3.366-8.294L-84.988,17.388z"/>
	<path d="M-63.329,6.894c0.081,0.088,0.121,0.191,0.121,0.308v15.4c0,0.118-0.044,0.22-0.132,0.308
		c-0.088,0.088-0.19,0.132-0.308,0.132c-0.132,0-0.239-0.044-0.319-0.132c-0.081-0.088-0.121-0.19-0.121-0.308v-2.09
		c-0.352,0.777-0.909,1.43-1.672,1.958c-0.763,0.528-1.613,0.792-2.552,0.792c-0.954,0-1.819-0.253-2.596-0.759
		c-0.777-0.506-1.39-1.199-1.837-2.079c-0.448-0.88-0.671-1.862-0.671-2.948s0.223-2.068,0.671-2.948
		c0.447-0.88,1.06-1.569,1.837-2.068c0.777-0.499,1.643-0.748,2.596-0.748c0.909,0,1.752,0.257,2.53,0.77
		c0.777,0.514,1.342,1.181,1.694,2.002V7.202c0-0.117,0.041-0.22,0.121-0.308c0.08-0.088,0.187-0.132,0.319-0.132
		S-63.41,6.806-63.329,6.894z M-66.068,21.788c0.646-0.425,1.151-1.016,1.518-1.771c0.367-0.755,0.55-1.603,0.55-2.541
		s-0.184-1.782-0.55-2.53c-0.366-0.748-0.876-1.334-1.529-1.76c-0.653-0.425-1.383-0.638-2.189-0.638
		c-0.792,0-1.515,0.213-2.167,0.638c-0.653,0.425-1.166,1.016-1.54,1.771s-0.561,1.595-0.561,2.519c0,0.938,0.187,1.782,0.561,2.53
		s0.883,1.339,1.529,1.771c0.646,0.433,1.372,0.649,2.178,0.649C-67.447,22.425-66.714,22.213-66.068,21.788z"/>
	<path d="M-50.239,6.894c0.081,0.088,0.121,0.191,0.121,0.308v15.4c0,0.118-0.044,0.22-0.132,0.308s-0.19,0.132-0.308,0.132
		c-0.132,0-0.239-0.044-0.319-0.132c-0.081-0.088-0.121-0.19-0.121-0.308v-2.09c-0.352,0.777-0.909,1.43-1.672,1.958
		c-0.763,0.528-1.613,0.792-2.552,0.792c-0.954,0-1.819-0.253-2.596-0.759c-0.777-0.506-1.39-1.199-1.837-2.079
		c-0.448-0.88-0.671-1.862-0.671-2.948s0.223-2.068,0.671-2.948c0.447-0.88,1.06-1.569,1.837-2.068
		c0.777-0.499,1.643-0.748,2.596-0.748c0.909,0,1.752,0.257,2.53,0.77c0.777,0.514,1.342,1.181,1.694,2.002V7.202
		c0-0.117,0.041-0.22,0.121-0.308s0.187-0.132,0.319-0.132C-50.426,6.762-50.32,6.806-50.239,6.894z M-52.979,21.788
		c0.646-0.425,1.151-1.016,1.518-1.771c0.367-0.755,0.55-1.603,0.55-2.541s-0.184-1.782-0.55-2.53
		c-0.366-0.748-0.876-1.334-1.529-1.76c-0.653-0.425-1.383-0.638-2.189-0.638c-0.792,0-1.515,0.213-2.167,0.638
		c-0.653,0.425-1.166,1.016-1.54,1.771c-0.374,0.755-0.561,1.595-0.561,2.519c0,0.938,0.187,1.782,0.561,2.53
		c0.374,0.748,0.883,1.339,1.529,1.771c0.646,0.433,1.372,0.649,2.178,0.649C-54.357,22.425-53.624,22.213-52.979,21.788z"/>
	<path d="M-36.148,12.107c0.088,0.088,0.132,0.184,0.132,0.286c0,0.118-0.041,0.216-0.121,0.297
		c-0.081,0.081-0.18,0.121-0.297,0.121h-2.42v7.832c0,0.646,0.113,1.075,0.341,1.287c0.228,0.212,0.517,0.319,0.869,0.319
		c0.059,0,0.143-0.015,0.253-0.044c0.11-0.029,0.202-0.044,0.275-0.044c0.103,0,0.19,0.041,0.264,0.121
		c0.073,0.081,0.11,0.172,0.11,0.275c0,0.132-0.088,0.246-0.264,0.341c-0.176,0.096-0.382,0.143-0.616,0.143
		c-0.367,0-0.675-0.025-0.924-0.077c-0.25-0.051-0.51-0.249-0.781-0.594c-0.271-0.345-0.407-0.906-0.407-1.683v-7.876h-1.804
		c-0.103,0-0.198-0.044-0.286-0.132c-0.088-0.088-0.132-0.184-0.132-0.286c0-0.117,0.04-0.216,0.121-0.297
		c0.081-0.081,0.179-0.121,0.297-0.121h1.804V9.182c0-0.117,0.044-0.22,0.132-0.308s0.19-0.132,0.308-0.132
		c0.132,0,0.238,0.044,0.319,0.132s0.121,0.191,0.121,0.308v2.794h2.42C-36.332,11.976-36.236,12.02-36.148,12.107z"/>
	<path d="M-24.312,20.435c-0.47,0.873-1.119,1.562-1.947,2.068c-0.828,0.506-1.749,0.759-2.761,0.759s-1.933-0.253-2.761-0.759
		c-0.828-0.506-1.481-1.199-1.958-2.079c-0.477-0.88-0.715-1.855-0.715-2.926c0-1.085,0.238-2.068,0.715-2.948
		c0.477-0.88,1.125-1.573,1.947-2.079c0.821-0.506,1.746-0.759,2.772-0.759c1.012,0,1.932,0.253,2.761,0.759
		c0.829,0.506,1.478,1.199,1.947,2.079c0.469,0.88,0.704,1.863,0.704,2.948S-23.844,19.562-24.312,20.435z M-25.072,14.967
		c-0.389-0.748-0.928-1.338-1.617-1.771c-0.689-0.432-1.467-0.649-2.332-0.649c-0.851,0-1.625,0.217-2.321,0.649
		c-0.697,0.433-1.243,1.023-1.639,1.771s-0.594,1.592-0.594,2.53c0,0.924,0.198,1.76,0.594,2.508s0.942,1.339,1.639,1.771
		c0.696,0.433,1.47,0.649,2.321,0.649c0.865,0,1.642-0.212,2.332-0.638c0.69-0.426,1.229-1.016,1.617-1.771
		c0.388-0.755,0.583-1.595,0.583-2.519C-24.489,16.559-24.683,15.715-25.072,14.967z"/>
	<path d="M-76.397,37.266c0.564,0.676,0.847,1.547,0.847,2.617c0,1.336-0.422,2.362-1.265,3.08
		c-0.844,0.719-1.918,1.078-3.223,1.078h-6.072c-0.118,0-0.22-0.043-0.308-0.131c-0.088-0.09-0.132-0.191-0.132-0.309V29.081
		c0-0.117,0.044-0.22,0.132-0.308s0.19-0.133,0.308-0.133h5.918c1.173,0,2.112,0.338,2.816,1.012
		c0.704,0.676,1.056,1.584,1.056,2.729c0,0.822-0.206,1.566-0.616,2.234c-0.411,0.667-0.983,1.125-1.716,1.375
		C-77.713,36.166-76.962,36.592-76.397,37.266z M-78.047,30.291c-0.536-0.514-1.287-0.77-2.255-0.77h-5.324v6.182h5.324
		c0.909-0.014,1.646-0.311,2.211-0.891c0.564-0.58,0.847-1.396,0.847-2.453C-77.244,31.494-77.512,30.805-78.047,30.291z
		 M-77.486,42.336c0.674-0.549,1.012-1.367,1.012-2.453c0-1.084-0.337-1.902-1.012-2.451c-0.675-0.551-1.562-0.826-2.662-0.826
		h-5.478v6.558h5.478C-79.048,43.162-78.161,42.887-77.486,42.336z"/>
	<path d="M-72.745,31.018c-0.14-0.132-0.209-0.301-0.209-0.506v-0.176c0-0.205,0.073-0.375,0.22-0.506
		c0.146-0.132,0.337-0.198,0.572-0.198c0.205,0,0.377,0.066,0.517,0.198c0.139,0.132,0.209,0.301,0.209,0.506v0.176
		c0,0.205-0.07,0.374-0.209,0.506c-0.14,0.133-0.319,0.197-0.539,0.197C-72.419,31.215-72.606,31.148-72.745,31.018z M-71.876,43.91
		c-0.088,0.088-0.191,0.131-0.308,0.131c-0.132,0-0.239-0.043-0.319-0.131c-0.081-0.09-0.121-0.191-0.121-0.309V33.15
		c0-0.116,0.044-0.219,0.132-0.308c0.088-0.088,0.19-0.133,0.308-0.133c0.132,0,0.238,0.045,0.319,0.133
		c0.081,0.089,0.121,0.19,0.121,0.308v10.451C-71.744,43.719-71.788,43.82-71.876,43.91z"/>
	<path d="M-62.108,33.217c0,0.133-0.037,0.242-0.11,0.33c-0.074,0.089-0.169,0.133-0.286,0.133c-0.044,0-0.15-0.033-0.319-0.1
		c-0.169-0.064-0.349-0.1-0.539-0.1c-0.602,0-1.203,0.239-1.804,0.715c-0.602,0.479-1.093,1.078-1.474,1.805
		c-0.381,0.727-0.572,1.428-0.572,2.102v5.5c0,0.117-0.044,0.221-0.132,0.31c-0.088,0.088-0.191,0.131-0.308,0.131
		c-0.132,0-0.239-0.043-0.319-0.131c-0.081-0.089-0.121-0.191-0.121-0.31V33.504c0-0.117,0.044-0.221,0.132-0.309
		s0.19-0.133,0.308-0.133c0.132,0,0.238,0.045,0.319,0.133s0.121,0.19,0.121,0.309v2.332c0.337-0.895,0.861-1.636,1.573-2.223
		c0.711-0.586,1.551-0.887,2.519-0.902C-62.446,32.711-62.108,32.881-62.108,33.217z"/>
	<path d="M-51.164,27.895c0.081,0.088,0.121,0.19,0.121,0.308v15.399c0,0.117-0.044,0.221-0.132,0.31
		c-0.088,0.088-0.19,0.131-0.308,0.131c-0.132,0-0.239-0.043-0.319-0.131c-0.081-0.089-0.121-0.191-0.121-0.31v-2.09
		c-0.352,0.777-0.909,1.43-1.672,1.958c-0.763,0.528-1.613,0.792-2.552,0.792c-0.954,0-1.819-0.254-2.596-0.76
		c-0.777-0.506-1.39-1.197-1.837-2.078c-0.448-0.881-0.671-1.863-0.671-2.947c0-1.086,0.223-2.067,0.671-2.949
		c0.447-0.879,1.06-1.567,1.837-2.067c0.777-0.498,1.643-0.748,2.596-0.748c0.909,0,1.752,0.258,2.53,0.771
		c0.777,0.515,1.342,1.182,1.694,2.002v-7.281c0-0.117,0.041-0.221,0.121-0.309c0.08-0.088,0.187-0.131,0.319-0.131
		C-51.351,27.762-51.245,27.807-51.164,27.895z M-53.903,42.787c0.646-0.426,1.151-1.016,1.518-1.771
		c0.367-0.755,0.55-1.603,0.55-2.541c0-0.938-0.184-1.781-0.55-2.529c-0.366-0.748-0.876-1.334-1.529-1.76
		c-0.653-0.427-1.383-0.64-2.189-0.64c-0.792,0-1.515,0.213-2.167,0.64c-0.653,0.426-1.166,1.016-1.54,1.771
		s-0.561,1.594-0.561,2.519c0,0.938,0.187,1.782,0.561,2.53s0.883,1.338,1.529,1.771c0.646,0.434,1.372,0.649,2.178,0.649
		C-55.281,43.426-54.548,43.213-53.903,42.787z"/>
	<path d="M-30.924,37.266c0.564,0.676,0.847,1.547,0.847,2.617c0,1.336-0.422,2.362-1.265,3.08
		c-0.844,0.719-1.918,1.078-3.223,1.078h-6.072c-0.118,0-0.22-0.043-0.308-0.131c-0.088-0.09-0.132-0.191-0.132-0.309V29.081
		c0-0.117,0.044-0.22,0.132-0.308c0.088-0.088,0.19-0.133,0.308-0.133h5.918c1.173,0,2.112,0.338,2.816,1.012
		c0.704,0.676,1.056,1.584,1.056,2.729c0,0.822-0.206,1.566-0.616,2.234c-0.411,0.667-0.983,1.125-1.716,1.375
		C-32.24,36.166-31.489,36.592-30.924,37.266z M-32.574,30.291c-0.536-0.514-1.287-0.77-2.255-0.77h-5.324v6.182h5.324
		c0.909-0.014,1.646-0.311,2.211-0.891c0.564-0.58,0.847-1.396,0.847-2.453C-31.771,31.494-32.039,30.805-32.574,30.291z
		 M-32.013,42.336c0.674-0.549,1.012-1.367,1.012-2.453c0-1.084-0.337-1.902-1.012-2.451c-0.675-0.551-1.562-0.826-2.662-0.826
		h-5.478v6.558h5.478C-33.575,43.162-32.688,42.887-32.013,42.336z"/>
	<path d="M-17.8,41.436c-0.47,0.871-1.119,1.562-1.947,2.066s-1.749,0.76-2.761,0.76c-1.012,0-1.933-0.254-2.761-0.76
		s-1.481-1.197-1.958-2.078s-0.715-1.855-0.715-2.926c0-1.086,0.238-2.068,0.715-2.949c0.477-0.879,1.125-1.572,1.947-2.078
		c0.822-0.506,1.746-0.76,2.772-0.76c1.012,0,1.932,0.254,2.761,0.76s1.478,1.199,1.947,2.078c0.469,0.881,0.704,1.863,0.704,2.949
		C-17.097,39.583-17.332,40.562-17.8,41.436z M-18.56,35.967c-0.389-0.747-0.928-1.338-1.617-1.771
		c-0.689-0.432-1.467-0.648-2.332-0.648c-0.851,0-1.625,0.217-2.321,0.648c-0.697,0.434-1.243,1.023-1.639,1.771
		s-0.594,1.592-0.594,2.531c0,0.924,0.198,1.76,0.594,2.508s0.942,1.338,1.639,1.771c0.696,0.433,1.47,0.648,2.321,0.648
		c0.865,0,1.642-0.213,2.332-0.639c0.689-0.426,1.229-1.016,1.617-1.771c0.388-0.755,0.583-1.595,0.583-2.519
		C-17.977,37.559-18.171,36.715-18.56,35.967z"/>
	<path d="M-6.734,43.426c0.058,0.073,0.088,0.161,0.088,0.264c0,0.117-0.041,0.222-0.121,0.31s-0.18,0.131-0.297,0.131
		c-0.132,0-0.257-0.065-0.374-0.196l-3.608-4.709l-3.63,4.729c-0.088,0.116-0.206,0.176-0.352,0.176
		c-0.117,0-0.216-0.036-0.297-0.108c-0.081-0.073-0.121-0.177-0.121-0.31c0-0.103,0.029-0.188,0.088-0.264l3.784-4.906l-3.828-4.994
		c-0.059-0.071-0.088-0.159-0.088-0.264c0-0.132,0.047-0.242,0.143-0.33c0.095-0.088,0.202-0.132,0.319-0.132
		c0.146,0,0.264,0.066,0.352,0.197l3.652,4.773l3.586-4.773c0.117-0.131,0.242-0.197,0.374-0.197s0.234,0.037,0.308,0.109
		c0.074,0.073,0.11,0.162,0.11,0.264c0,0.089-0.037,0.185-0.11,0.287l-3.74,5.017L-6.734,43.426z"/>
</g>
</svg>
