<?xml version="1.0" encoding="utf-8"?>
<!-- Generator: Adobe Illustrator 15.1.0, SVG Export Plug-In . SVG Version: 6.00 Build 0)  -->
<!DOCTYPE svg PUBLIC "-//W3C//DTD SVG 1.1//EN" "http://www.w3.org/Graphics/SVG/1.1/DTD/svg11.dtd">
<svg version="1.1" id="Layer_1" xmlns="http://www.w3.org/2000/svg" xmlns:xlink="http://www.w3.org/1999/xlink" x="0px" y="0px"
	 width="158.5px" height="52.25px" viewBox="-101.25 0 158.5 52.25" enable-background="new -101.25 0 158.5 52.25"
	 xml:space="preserve">
<g>
	<path d="M24.014,20.69c-4.79,0.952-9.725,1.692-14.754,2.626c-0.692,0.129-1.571,0.462-2.067,0.392
		c-0.52-0.074-1.401-0.894-1.957-1.284c-1.973-1.386-3.778-2.663-5.588-4.081c5.926-0.812,12.584-1.692,18.275-2.515
		c0.64-0.093,1.195,0.614,1.788,1.119C21.17,18.188,22.831,19.581,24.014,20.69z"/>
	<path d="M49.497,18.343c-0.16,0.329-0.554,0.469-0.838,0.67c-1.857,1.315-3.695,2.616-5.701,4.024
		c-0.321,0.226-0.699,0.627-0.95,0.67c-0.494,0.086-1.427-0.263-2.123-0.392c-4.908-0.912-9.929-1.658-14.697-2.626
		c-0.039-0.182,0.318-0.348,0.559-0.558c1.532-1.332,3.321-2.93,4.917-4.248c0.059-0.045,0.111-0.122,0.225-0.111
		C36.727,16.43,43.488,17.669,49.497,18.343z"/>
	<g>
		<path fill="#86C800" d="M32.842,13.903c1.405-3.799,4.213-7.256,3.963-11.368c-0.078-0.175-0.156-0.347-0.234-0.521
			c-0.773,0.044-1.855,0.911-2.379,0.291c-2.91,3.117-3.604,7.071-7.108,9.965c-1.382-0.849-2.267,1.37-3.151,2.053
			c-0.955-0.146-1.714-0.806-2.15-2.324c1.128-0.654,2.186-1.335,2.017-2.48c-0.59,0.535-1.054,1.689-2.239,1.64
			c-0.118-0.26-0.236-0.52-0.355-0.782c0.971-0.75,2.252-1.385,1.958-2.612c-0.597,1.665-2.281,1.349-4.253,2.396
			c-1.465,0.777-2.23,1.569-3.376,1.213c0.574,0.864,1.729,0.193,2.545,0.419c0.182,1.028-1.797,0.68-1.577,1.026
			c0.454,0.289-0.013,0.211-0.333,0.308c0.582,0.851,1.739,0.168,2.543,0.419c-0.146,0.654-1.104,1.086-1.693,0.767
			c1.039,1.583,3.063-1.119,3.448-1.406c0.293,0.655,0.588,1.306,0.883,1.957c-0.921,1.347,0.524,3.584-1.014,4.698
			c-0.105-0.2-0.188-0.461-0.438-0.274c-0.938,1.765-1.503,3.619-1.88,5.559c-0.174,0.89-0.394,2.075-0.452,3.31l7.062,2.312
			l5.376-1.896c0.062-0.146,0.119-0.292,0.176-0.438c1.639-4.35,3.805-10.026,4.522-14.289
			C34.325,13.221,33.584,13.56,32.842,13.903z M18.097,12.883c0.249-0.271,1.291-1.169,1.732-1.725
			C20.034,12.027,18.864,12.378,18.097,12.883z"/>
	</g>
	<path d="M6.075,24.379c5.86,1.908,11.661,3.876,17.547,5.755c-1.65,2.15-3.393,4.21-5.141,6.261
		c-5.868-1.898-11.67-3.864-17.548-5.758C2.583,28.489,4.325,26.431,6.075,24.379z"/>
	<path d="M42.624,24.379c1.749,2.012,3.606,4.217,5.142,6.258c-5.848,1.903-11.662,3.84-17.492,5.758
		c-1.812-2.004-3.502-4.137-5.197-6.261C30.971,28.261,36.771,26.295,42.624,24.379z"/>
	<path d="M24.014,30.47c0.129,5.796,0.019,11.83,0.055,17.716c-6.018-2.01-12.067-3.99-18.106-5.979c0-3.129,0-6.259,0-9.388
		c3.603,1.211,7.279,2.395,11.065,3.634c0.494,0.157,1.244,0.549,1.565,0.501c0.416-0.062,1.016-1.105,1.396-1.562
		C21.321,33.789,22.876,31.991,24.014,30.47z"/>
	<path d="M24.628,30.47c1.198,1.433,2.72,3.239,4.08,4.919c0.375,0.465,1.017,1.491,1.396,1.563c0.32,0.062,1.138-0.339,1.621-0.501
		c3.603-1.211,7.426-2.396,10.953-3.635c0.131,3.019,0.021,6.278,0.055,9.389c-6.01,2.001-12.068,3.95-18.048,5.98
		C24.554,42.393,24.666,36.357,24.628,30.47z"/>
</g>
<rect x="-92.75" y="19.078" fill="none" width="90.75" height="19.25"/>
<text transform="matrix(1 0 0 1 -92.75 35.3574)" font-family="'Quicksand-Light'" font-size="22">Buy Bird</text>
</svg>
