<?xml version="1.0" encoding="utf-8"?>
<!-- Generator: Adobe Illustrator 23.0.1, SVG Export Plug-In . SVG Version: 6.00 Build 0)  -->
<svg version="1.1" id="Layer_1" xmlns="http://www.w3.org/2000/svg" xmlns:xlink="http://www.w3.org/1999/xlink" x="0px" y="0px"
	 viewBox="0 0 178.2 69.9" style="enable-background:new 0 0 178.2 69.9;" xml:space="preserve">
<style type="text/css">
	.st0{fill:#FFFFFF;}
	.st1{fill:#FFFFFF;stroke:#FFFFFF;stroke-width:0.5;stroke-miterlimit:10;}
	.st2{fill:none;stroke:url(#SVGID_1_);stroke-width:6;stroke-miterlimit:10;}
</style>
<path d="M164.2,64.7H14.8c-5,0-9.1-4.1-9.1-9.1v-41c0-5,4.1-9.1,9.1-9.1h149.4c5,0,9.1,4.1,9.1,9.1v41.1
	C173.3,60.6,169.2,64.7,164.2,64.7z"/>
<path class="st0" d="M128.7,34.8c-2.3,0.4-4.3,0.8-6.7,1.2c-0.7,0.1-1.5,0.4-1.9,0.4c-0.5-0.1-1.3-0.8-1.8-1.2
	c-1.8-1.3-3.5-2.5-5.2-3.8c5.5-0.8,12.2-1.7,17.4-2.5"/>
<path class="st0" d="M135.8,33.6c-2.1,0.4-4.3,0.8-6.5,1.2c0.4-1.8,1-3.4,1.8-4.8h0.1c0,0,0.1,0.1,0.2,0.2l0.1,0.2l0.1-0.1
	c0.1,0,0.1-0.1,0.2-0.1l0,0C133.1,31.3,134.7,32.6,135.8,33.6z"/>
<path class="st0" d="M145.9,29.5c-0.5,1.8-1.2,3.6-1.8,5.4c-2.5-0.4-4.9-0.8-7.3-1.3c0-0.2,0.3-0.3,0.5-0.5c1.4-1.2,3.1-2.7,4.6-4
	c0.1,0,0.1-0.1,0.2-0.1C143.4,29.2,144.6,29.3,145.9,29.5z"/>
<path class="st0" d="M159.5,31.4c-0.1,0.3-0.5,0.4-0.8,0.6c-1.7,1.2-3.4,2.4-5.3,3.8c-0.3,0.2-0.7,0.6-0.9,0.6
	c-0.5,0.1-1.3-0.3-2-0.4c-2-0.4-3.9-0.7-6-1.1c0.7-1.8,1.3-3.6,1.8-5.4C150.7,30.2,155.2,30.9,159.5,31.4z"/>
<path class="st0" d="M119.1,37c5.5,1.8,10.9,3.6,16.3,5.4c-1.5,2-3.2,3.9-4.8,5.8c-5.5-1.8-10.9-3.6-16.3-5.4
	C115.8,40.9,117.4,38.9,119.1,37z"/>
<path class="st0" d="M153.1,37c1.6,1.9,3.4,3.9,4.8,5.8c-5.4,1.8-10.9,3.6-16.3,5.4c-1.7-1.9-3.3-3.9-4.8-5.8
	C142.2,40.6,147.6,38.8,153.1,37z"/>
<path class="st0" d="M135.8,42.7c0.1,5.4,0,11,0.1,16.5c-5.6-1.9-11.2-3.7-16.9-5.6c0-2.9,0-5.8,0-8.7c3.4,1.1,6.8,2.2,10.3,3.4
	c0.5,0.1,1.2,0.5,1.5,0.5c0.4-0.1,0.9-1,1.3-1.5C133.2,45.8,134.7,44.1,135.8,42.7z"/>
<path class="st0" d="M136.3,42.7c1.1,1.3,2.5,3,3.8,4.6c0.3,0.4,0.9,1.4,1.3,1.5c0.3,0.1,1.1-0.3,1.5-0.5c3.4-1.1,6.9-2.2,10.2-3.4
	c0.1,2.8,0,5.8,0.1,8.7c-5.6,1.9-11.2,3.7-16.8,5.6C136.3,53.8,136.4,48.2,136.3,42.7z"/>
<g>
	<path class="st1" d="M34.5,31.4c0,0.1,0,0.2-0.1,0.3c-0.1,0.1-0.2,0.1-0.3,0.1s-0.2,0-0.3-0.1s-0.1-0.1-0.2-0.2L31.7,27l0,0h-7.4
		l-1.8,4.5c-0.1,0.2-0.2,0.3-0.4,0.3c-0.1,0-0.2,0-0.3-0.1s-0.1-0.2-0.1-0.3c0-0.1,0-0.1,0-0.2l5.9-14.6c0-0.1,0.1-0.2,0.2-0.2
		s0.2-0.1,0.3-0.1c0.2,0,0.4,0.1,0.4,0.3l5.9,14.6C34.5,31.3,34.5,31.4,34.5,31.4z M24.7,26.2h6.7L28,17.9L24.7,26.2z"/>
	<path class="st1" d="M46.4,15.7c0.1,0.1,0.1,0.2,0.1,0.3v15.4c0,0.1,0,0.2-0.1,0.3c-0.1,0.1-0.2,0.1-0.3,0.1s-0.2,0-0.3-0.1
		s-0.1-0.2-0.1-0.3v-2.1c-0.4,0.8-0.9,1.4-1.7,2s-1.6,0.8-2.6,0.8s-1.8-0.3-2.6-0.8s-1.4-1.2-1.8-2.1c-0.4-0.9-0.7-1.9-0.7-2.9
		s0.2-2.1,0.7-2.9c0.4-0.9,1.1-1.6,1.8-2.1c0.8-0.5,1.6-0.7,2.6-0.7c0.9,0,1.8,0.3,2.5,0.8c0.8,0.5,1.3,1.2,1.7,2V16
		c0-0.1,0-0.2,0.1-0.3s0.2-0.1,0.3-0.1S46.3,15.6,46.4,15.7z M43.6,30.6c0.6-0.4,1.2-1,1.5-1.8s0.6-1.6,0.6-2.5s-0.2-1.8-0.6-2.5
		c-0.4-0.7-0.9-1.3-1.5-1.8c-0.7-0.4-1.4-0.6-2.2-0.6s-1.5,0.2-2.2,0.6s-1.2,1-1.5,1.8c-0.4,0.8-0.6,1.6-0.6,2.5s0.2,1.8,0.6,2.5
		s0.9,1.3,1.5,1.8c0.6,0.4,1.4,0.6,2.2,0.6C42.3,31.2,43,31,43.6,30.6z"/>
	<path class="st1" d="M59.5,15.7c0.1,0.1,0.1,0.2,0.1,0.3v15.4c0,0.1,0,0.2-0.1,0.3s-0.2,0.1-0.3,0.1s-0.2,0-0.3-0.1
		s-0.1-0.2-0.1-0.3v-2.1c-0.4,0.8-0.9,1.4-1.7,2s-1.6,0.8-2.6,0.8s-1.8-0.3-2.6-0.8s-1.4-1.2-1.8-2.1c-0.4-0.9-0.7-1.9-0.7-2.9
		s0.2-2.1,0.7-2.9c0.4-0.9,1.1-1.6,1.8-2.1c0.8-0.5,1.6-0.7,2.6-0.7c0.9,0,1.8,0.3,2.5,0.8c0.8,0.5,1.3,1.2,1.7,2V16
		c0-0.1,0-0.2,0.1-0.3s0.2-0.1,0.3-0.1C59.3,15.6,59.4,15.6,59.5,15.7z M56.7,30.6c0.6-0.4,1.2-1,1.5-1.8s0.5-1.6,0.5-2.5
		s-0.2-1.8-0.5-2.5c-0.4-0.7-0.9-1.3-1.5-1.8c-0.7-0.4-1.4-0.6-2.2-0.6S53,21.6,52.3,22s-1.2,1-1.5,1.8c-0.4,0.8-0.6,1.6-0.6,2.5
		s0.2,1.8,0.6,2.5c0.4,0.7,0.9,1.3,1.5,1.8c0.6,0.4,1.4,0.6,2.2,0.6S56.1,31,56.7,30.6z"/>
	<path class="st1" d="M73.6,20.9c0.1,0.1,0.1,0.2,0.1,0.3c0,0.1,0,0.2-0.1,0.3c-0.1,0.1-0.2,0.1-0.3,0.1h-2.4v7.8
		c0,0.6,0.1,1.1,0.3,1.3c0.2,0.2,0.5,0.3,0.9,0.3c0.1,0,0.1,0,0.3,0c0.1,0,0.2,0,0.3,0c0.1,0,0.2,0,0.3,0.1c0.1,0.1,0.1,0.2,0.1,0.3
		c0,0.1-0.1,0.2-0.3,0.3c-0.2,0.1-0.4,0.1-0.6,0.1c-0.4,0-0.7,0-0.9-0.1c-0.2-0.1-0.5-0.2-0.8-0.6c-0.3-0.3-0.4-0.9-0.4-1.7v-7.9
		h-1.8c-0.1,0-0.2,0-0.3-0.1c-0.1-0.1-0.1-0.2-0.1-0.3c0-0.1,0-0.2,0.1-0.3c0.1-0.1,0.2-0.1,0.3-0.1H70V18c0-0.1,0-0.2,0.1-0.3
		c0.1-0.1,0.2-0.1,0.3-0.1c0.1,0,0.2,0,0.3,0.1c0.1,0.1,0.1,0.2,0.1,0.3v2.8h2.4C73.4,20.8,73.5,20.8,73.6,20.9z"/>
	<path class="st1" d="M85.4,29.2c-0.5,0.9-1.1,1.6-1.9,2.1s-1.7,0.8-2.8,0.8c-1,0-1.9-0.3-2.8-0.8c-0.8-0.5-1.5-1.2-2-2.1
		s-0.7-1.9-0.7-2.9c0-1.1,0.2-2.1,0.7-2.9c0.5-0.9,1.1-1.6,1.9-2.1s1.7-0.8,2.8-0.8c1,0,1.9,0.3,2.8,0.8c0.8,0.5,1.5,1.2,1.9,2.1
		c0.5,0.9,0.7,1.9,0.7,2.9S85.9,28.4,85.4,29.2z M84.6,23.8C84.2,23,83.7,22.4,83,22s-1.5-0.6-2.3-0.6c-0.9,0-1.6,0.2-2.3,0.6
		c-0.7,0.4-1.2,1-1.6,1.8c-0.4,0.7-0.6,1.6-0.6,2.5s0.2,1.8,0.6,2.5s0.9,1.3,1.6,1.8c0.7,0.4,1.5,0.6,2.3,0.6c0.9,0,1.6-0.2,2.3-0.6
		s1.2-1,1.6-1.8s0.6-1.6,0.6-2.5S85,24.5,84.6,23.8z"/>
	<path class="st1" d="M33.3,46.1c0.6,0.7,0.8,1.5,0.8,2.6c0,1.3-0.4,2.4-1.3,3.1c-0.8,0.7-1.9,1.1-3.2,1.1h-6.1
		c-0.1,0-0.2,0-0.3-0.1c-0.1-0.1-0.1-0.2-0.1-0.3V37.9c0-0.1,0-0.2,0.1-0.3s0.2-0.1,0.3-0.1h5.9c1.2,0,2.1,0.3,2.8,1
		c0.7,0.7,1.1,1.6,1.1,2.7c0,0.8-0.2,1.6-0.6,2.2c-0.4,0.7-1,1.1-1.7,1.4C32,45,32.7,45.4,33.3,46.1z M31.7,39.1
		c-0.5-0.5-1.3-0.8-2.3-0.8h-5.3v6.2h5.3c0.9,0,1.6-0.3,2.2-0.9c0.6-0.6,0.8-1.4,0.8-2.5C32.5,40.3,32.2,39.6,31.7,39.1z M32.2,51.1
		c0.7-0.5,1-1.4,1-2.5s-0.3-1.9-1-2.5s-1.6-0.8-2.7-0.8H24V52h5.5C30.7,52,31.5,51.7,32.2,51.1z"/>
	<path class="st1" d="M37,39.8c-0.1-0.1-0.2-0.3-0.2-0.5v-0.2c0-0.2,0.1-0.4,0.2-0.5c0.1-0.1,0.3-0.2,0.6-0.2c0.2,0,0.4,0.1,0.5,0.2
		c0.1,0.1,0.2,0.3,0.2,0.5v0.2c0,0.2-0.1,0.4-0.2,0.5C37.9,40,37.7,40,37.5,40S37.1,40,37,39.8z M37.8,52.7
		c-0.1,0.1-0.2,0.1-0.3,0.1s-0.2,0-0.3-0.1s-0.1-0.2-0.1-0.3V42c0-0.1,0-0.2,0.1-0.3s0.2-0.1,0.3-0.1s0.2,0,0.3,0.1s0.1,0.2,0.1,0.3
		v10.5C38,52.5,37.9,52.6,37.8,52.7z"/>
	<path class="st1" d="M47.6,42c0,0.1,0,0.2-0.1,0.3s-0.2,0.1-0.3,0.1c0,0-0.2,0-0.3-0.1c-0.2-0.1-0.3-0.1-0.5-0.1
		c-0.6,0-1.2,0.2-1.8,0.7s-1.1,1.1-1.5,1.8s-0.6,1.4-0.6,2.1v5.5c0,0.1,0,0.2-0.1,0.3s-0.2,0.1-0.3,0.1s-0.2,0-0.3-0.1
		s-0.1-0.2-0.1-0.3v-10c0-0.1,0-0.2,0.1-0.3s0.2-0.1,0.3-0.1s0.2,0,0.3,0.1s0.1,0.2,0.1,0.3v2.3c0.3-0.9,0.9-1.6,1.6-2.2
		c0.7-0.6,1.6-0.9,2.5-0.9C47.3,41.5,47.6,41.7,47.6,42z"/>
	<path class="st1" d="M58.5,36.7c0.1,0.1,0.1,0.2,0.1,0.3v15.4c0,0.1,0,0.2-0.1,0.3s-0.2,0.1-0.3,0.1s-0.2,0-0.3-0.1
		s-0.1-0.2-0.1-0.3v-2.1c-0.4,0.8-0.9,1.4-1.7,2s-1.6,0.8-2.6,0.8s-1.8-0.3-2.6-0.8s-1.4-1.2-1.8-2.1c-0.4-0.9-0.7-1.9-0.7-2.9
		c0-1.1,0.2-2.1,0.7-2.9c0.4-0.9,1.1-1.6,1.8-2.1c0.8-0.5,1.6-0.7,2.6-0.7c0.9,0,1.8,0.3,2.5,0.8c0.8,0.5,1.3,1.2,1.7,2V37
		c0-0.1,0-0.2,0.1-0.3s0.2-0.1,0.3-0.1C58.4,36.6,58.5,36.6,58.5,36.7z M55.8,51.6c0.6-0.4,1.2-1,1.5-1.8s0.5-1.6,0.5-2.5
		s-0.2-1.8-0.5-2.5s-0.9-1.3-1.5-1.8c-0.7-0.4-1.4-0.6-2.2-0.6s-1.5,0.2-2.2,0.6c-0.7,0.4-1.2,1-1.5,1.8s-0.6,1.6-0.6,2.5
		s0.2,1.8,0.6,2.5s0.9,1.3,1.5,1.8c0.6,0.4,1.4,0.6,2.2,0.6C54.4,52.2,55.2,52,55.8,51.6z"/>
	<path class="st1" d="M78.8,46.1c0.6,0.7,0.8,1.5,0.8,2.6c0,1.3-0.4,2.4-1.3,3.1c-0.8,0.7-1.9,1.1-3.2,1.1H69c-0.1,0-0.2,0-0.3-0.1
		c-0.1-0.1-0.1-0.2-0.1-0.3V37.9c0-0.1,0-0.2,0.1-0.3s0.2-0.1,0.3-0.1h6c1.2,0,2.1,0.3,2.8,1c0.7,0.7,1.1,1.6,1.1,2.7
		c0,0.8-0.2,1.6-0.6,2.2c-0.4,0.7-1,1.1-1.7,1.4C77.5,45,78.2,45.4,78.8,46.1z M77.1,39.1c-0.5-0.5-1.3-0.8-2.3-0.8h-5.3v6.2h5.3
		c0.9,0,1.6-0.3,2.2-0.9c0.6-0.6,0.8-1.4,0.8-2.5C77.9,40.3,77.7,39.6,77.1,39.1z M77.7,51.1c0.7-0.5,1-1.4,1-2.5s-0.3-1.9-1-2.5
		s-1.6-0.8-2.7-0.8h-5.5V52H75C76.1,52,77,51.7,77.7,51.1z"/>
	<path class="st1" d="M91.9,50.2c-0.5,0.9-1.1,1.6-1.9,2.1s-1.7,0.8-2.8,0.8c-1,0-1.9-0.3-2.8-0.8c-0.8-0.5-1.5-1.2-2-2.1
		s-0.7-1.9-0.7-2.9c0-1.1,0.2-2.1,0.7-2.9c0.5-0.9,1.1-1.6,1.9-2.1s1.7-0.8,2.8-0.8c1,0,1.9,0.3,2.8,0.8c0.8,0.5,1.5,1.2,1.9,2.1
		c0.5,0.9,0.7,1.9,0.7,2.9C92.6,48.4,92.4,49.4,91.9,50.2z M91.1,44.8c-0.4-0.7-0.9-1.3-1.6-1.8c-0.7-0.4-1.5-0.6-2.3-0.6
		c-0.9,0-1.6,0.2-2.3,0.6c-0.7,0.4-1.2,1-1.6,1.8c-0.4,0.7-0.6,1.6-0.6,2.5s0.2,1.8,0.6,2.5s0.9,1.3,1.6,1.8
		c0.7,0.4,1.5,0.6,2.3,0.6c0.9,0,1.6-0.2,2.3-0.6c0.7-0.4,1.2-1,1.6-1.8s0.6-1.6,0.6-2.5C91.7,46.4,91.5,45.5,91.1,44.8z"/>
	<path class="st1" d="M103,52.2c0.1,0.1,0.1,0.2,0.1,0.3s0,0.2-0.1,0.3s-0.2,0.1-0.3,0.1c-0.1,0-0.3-0.1-0.4-0.2L98.7,48L95,52.8
		c-0.1,0.1-0.2,0.2-0.4,0.2c-0.1,0-0.2,0-0.3-0.1c-0.1-0.1-0.1-0.2-0.1-0.3s0-0.2,0.1-0.3l3.8-4.9l-3.8-5c-0.1-0.1-0.1-0.2-0.1-0.3
		s0-0.2,0.1-0.3s0.2-0.1,0.3-0.1c0.1,0,0.3,0.1,0.4,0.2l3.7,4.8l3.6-4.8c0.1-0.1,0.2-0.2,0.4-0.2c0.1,0,0.2,0,0.3,0.1
		c0.1,0.1,0.1,0.2,0.1,0.3s0,0.2-0.1,0.3l-3.7,5L103,52.2z"/>
</g>
<linearGradient id="SVGID_1_" gradientUnits="userSpaceOnUse" x1="0.8" y1="36.9" x2="178.2" y2="36.9" gradientTransform="matrix(1 0 0 -1 0 72)">
	<stop  offset="0" style="stop-color:#1E4E9A"/>
	<stop  offset="0.492" style="stop-color:#27D146"/>
	<stop  offset="1" style="stop-color:#C73DC9"/>
</linearGradient>
<path class="st2" d="M166.1,65.4H12.9c-5,0-9.1-4.1-9.1-9.1V13.9c0-5,4.1-9.1,9.1-9.1h153.2c5,0,9.1,4.1,9.1,9.1v42.4
	C175.2,61.3,171.1,65.4,166.1,65.4z"/>
<g>
	<g>
		<path class="st0" d="M145.5,23.9l-0.3,0.1l0.1-0.3c0.5-1.3,1.2-2.7,1.8-4c1.4-2.7,2.8-5.6,2.6-8.6l-0.2-0.5
			c-0.3,0-0.6,0.2-0.9,0.3c-0.6,0.2-1.3,0.5-1.7,0.1c-1.4,1.5-2.3,3.2-3.2,4.9c-1.2,2.1-2.4,4.4-4.6,6.2l-0.1,0.1h-0.1
			c-1-0.6-1.7,0.4-2.5,1.3c-0.3,0.4-0.6,0.8-0.9,1l0,0l0,0c-1.2-0.2-2-1.1-2.5-2.7v-0.1h0.1c1.2-0.7,2.2-1.4,2.2-2.4
			c-0.1,0.1-0.2,0.3-0.3,0.4c-0.5,0.6-1,1.3-2,1.3h-0.1h-0.1v-0.1c-0.1-0.3-0.3-0.6-0.4-0.9v-0.1l0.1-0.1c0.2-0.1,0.4-0.3,0.6-0.4
			c0.8-0.6,1.6-1.1,1.6-2c-0.5,0.9-1.4,1.2-2.5,1.5c-0.7,0.2-1.4,0.4-2.2,0.8c-0.4,0.2-0.7,0.4-1.1,0.6c-0.9,0.5-1.6,0.9-2.4,0.8
			c0.4,0.3,0.9,0.2,1.4,0.1c0.4,0,0.8-0.1,1.2,0h0.1v0.1c0,0.2,0,0.4-0.1,0.6c-0.3,0.3-0.8,0.4-1.2,0.5c-0.1,0-0.3,0-0.4,0.1
			c0.1,0.1,0.2,0.2,0.2,0.3c0,0.1-0.2,0.1-0.4,0.2h-0.1c0.4,0.4,0.9,0.3,1.5,0.3c0.4,0,0.8-0.1,1.2,0h0.1v0.1
			c-0.1,0.4-0.4,0.7-0.8,0.9c-0.3,0.1-0.6,0.2-0.8,0.1c0.1,0.1,0.3,0.2,0.5,0.2h0.1c0.8,0,1.9-1.1,2.5-1.7c0.2-0.2,0.3-0.3,0.4-0.4
			l0.1-0.1l0.1,0.1c0.3,0.7,0.7,1.5,1,2.2v0.1v0.1c-0.4,0.6-0.4,1.4-0.3,2.3c0.1,1,0.1,2.1-0.7,2.8c-0.1,0-0.1,0.1-0.2,0.1l-0.1,0.1
			l-0.1-0.2c0-0.1-0.1-0.2-0.2-0.2h-0.1c-0.8,1.5-1.3,3-1.8,4.8c-0.1,0.4-0.2,0.9-0.3,1.3c-0.2,1.1-0.4,2.3-0.5,3.6l7.8,2.5l5.9-2.1
			c0.1-0.1,0.1-0.3,0.2-0.4l0.2-0.4c0.5-1.4,1.1-2.8,1.6-4.3c0.7-1.8,1.3-3.6,1.8-5.4c0.6-2,1.1-4,1.4-5.7
			C147,23.3,146.4,23.5,145.5,23.9z M129,22.7c0.3-0.3,1.4-1.3,1.9-1.9C131.1,21.7,129.8,22.1,129,22.7z"/>
	</g>
</g>
</svg>
