<?xml version="1.0" encoding="utf-8"?>
<!-- Generator: Adobe Illustrator 15.1.0, SVG Export Plug-In . SVG Version: 6.00 Build 0)  -->
<!DOCTYPE svg PUBLIC "-//W3C//DTD SVG 1.1//EN" "http://www.w3.org/Graphics/SVG/1.1/DTD/svg11.dtd">
<svg version="1.1" id="Capa_1" xmlns="http://www.w3.org/2000/svg" xmlns:xlink="http://www.w3.org/1999/xlink" x="0px" y="0px"
	 width="100px" height="90px" viewBox="-11.915 -9.965 100 90" enable-background="new -11.915 -9.965 100 90" xml:space="preserve"
	>
<circle fill="#383838" cx="38.085" cy="35.035" r="31.319"/>
<g>
	<path fill-rule="evenodd" clip-rule="evenodd" d="M164.358-22.986c0.056,0.209,0.114,0.418,0.173,0.628
		c-2.939,2.355-11.148,4.792-8.2,10.716c1.181,2.374,4.017,2.571,5.103,5.016c2.397,5.382-0.174,12.78-1.719,17.042
		c-1.536,4.237-3.462,8.214-6.196,11.853c-0.63,0.333-0.722-0.284-0.888-0.77c-3.86,1.962-1.396,7.509-3.942,10.219
		c0.435,1.57,0.868,3.14,1.3,4.711c0.968-0.505,6.478-5.875,8.257-1.942c-1.213-0.929-3.521-0.291-4.083,1.129
		c1.726,0.85,4.572-0.28,5.578,1.842c-0.752,0.105-1.774-0.233-0.855,0.573c0.373,0.859-3.96-0.624-3.911,1.756
		c1.757,0.798,4.592-0.307,5.581,1.842c-2.456-1.206-4.454,0.306-8.028,1.538c-4.81,1.663-8.491,0.354-10.422,3.893
		c-0.229-2.867,2.879-3.843,5.329-5.189c-0.174-0.63-0.347-1.258-0.521-1.886c-2.652-0.528-4.104,1.905-5.621,2.902
		c0.023-2.635,2.646-3.796,5.416-4.874c-0.447-3.57-1.923-5.328-4.021-5.991c-2.234,1.228-5.009,5.909-7.82,3.512
		c-8.915,5.277-11.868,13.936-19.521,19.928c-0.957-1.581-3.701-0.013-5.46-0.186c-0.115-0.418-0.231-0.837-0.347-1.255
		c0.895-9.344,8.433-16.137,12.932-24.194c-1.789,0.51-3.576,1.009-4.203-0.532c3.124-9.345,9.998-21.358,15.227-30.574
		c2.02-3.559,4.931-6.72,6.087-9.794c0.966-2.567,0.7-4.705,2.21-6.696C145.266-22.353,159.683-24.303,164.358-22.986z
		 M150.802,40.598c1.189-1.096,3.856-2.75,4.508-3.271C153.408,38.191,150.65,38.57,150.802,40.598z"/>
</g>
<path fill="#7C870E" d="M164.64,10.118l-6.396-2.799l-0.855-0.375c-1.891-0.828-4.096,0.035-4.926,1.932L152.3,9.248
	c-0.831,1.898,0.031,4.104,1.925,4.933l6.402,2.802l0.847,0.371c1.895,0.828,4.106-0.039,4.935-1.931l0.161-0.379
	C167.401,13.153,166.535,10.947,164.64,10.118z"/>
<path fill="#7C870E" d="M163.861-0.424l-1.871-0.819l-0.002,0.003l-0.851-0.373c-1.896-0.83-4.104,0.031-4.936,1.93l-0.163,0.371
	c-0.831,1.898,0.038,4.102,1.928,4.929l0.852,0.373l5.551,2.429l0.854,0.374c1.892,0.828,4.098-0.034,4.927-1.929l0.167-0.382
	c0.829-1.884-0.031-4.093-1.926-4.922L166.879,0.9"/>
<path fill="#7C870E" d="M152.474,33.81l0.661,0.289l0.001-0.004l0.844,0.369c1.897,0.831,4.107-0.03,4.935-1.93l0.167-0.372
	c0.825-1.896-0.039-4.098-1.934-4.927l-0.847-0.371l-5.551-2.429l-0.855-0.375c-1.895-0.829-4.096,0.036-4.924,1.929l-0.167,0.381
	c-0.826,1.889,0.033,4.1,1.927,4.929l2.725,1.192"/>
<path d="M27.475,70.069"/>
<path fill="#7C870E" d="M137.658,1.699c1.912-0.679,3.691-1.346,4.73-1.829c5.258-2.439,10.128-4.226,11.271-6.591
	c1.486-3.07-0.38-6.367-5.204-5.108c-1.521,0.396-4.663,1.307-8.257,2.371l-3.623,1.076c-6.934,2.073-14.097,4.259-14.113,4.264
	c-3.762,0.632-9.842,4.052-12.299,14.839c-0.219,0.962-0.359,1.867-0.466,2.747c-0.029,0.258-0.054,0.508-0.073,0.756
	c-0.056,0.651-0.082,1.281-0.08,1.884c0.001,0.216-0.011,0.438-0.004,0.646c0.028,0.703,0.093,1.373,0.191,2.017
	c0.048,0.322,0.115,0.616,0.181,0.92c0.069,0.322,0.142,0.638,0.229,0.938c0.096,0.359,0.196,0.708,0.317,1.042
	c0.029,0.081,0.056,0.156,0.094,0.233c3.606,7.361,11.101,9.624,11.101,9.624l0,0L137.658,1.699z"/>
<path fill="#7C870E" d="M160.894,18.677l-0.847-0.371l-6.405-2.804c-1.891-0.827-4.102,0.037-4.931,1.932l-0.164,0.376
	c-0.83,1.896,0.033,4.101,1.928,4.93l0.851,0.372l5.551,2.43l0.848,0.371c1.897,0.83,4.099-0.033,4.933-1.928l0.165-0.375
	C163.65,21.716,162.793,19.508,160.894,18.677z"/>
<g>
	<path fill="#FFFFFF" d="M49.032,31.44l-3.199,0.321c-0.286-1.952-1.005-3.489-2.158-4.606c-1.153-1.119-2.634-1.855-4.446-2.21
		v7.241c1.49,0.286,2.912,0.595,4.264,0.932c1.345,0.338,2.537,0.816,3.566,1.439c1.027,0.622,1.844,1.409,2.449,2.367
		c0.602,0.964,0.906,2.185,0.906,3.675c0,1.457-0.291,2.688-0.88,3.701c-0.584,1.015-1.386,1.839-2.396,2.48
		c-1.011,0.637-2.203,1.1-3.567,1.382c-1.369,0.282-2.817,0.428-4.343,0.428v6.227h-2.287v-6.39
		c-0.997-0.139-1.863-0.354-2.61-0.637c-0.745-0.282-1.387-0.561-1.918-0.829c-0.533-0.265-0.984-0.503-1.358-0.719
		c-0.373-0.208-0.685-0.317-0.931-0.317c-0.711,0-1.066,0.426-1.066,1.278v0.901l-3.302,0.166v-9.856l3.09-0.319
		c0.32,1.955,1.244,3.562,2.77,4.818c1.525,1.266,3.302,2.072,5.326,2.428v-7.579c-1.669-0.321-3.19-0.677-4.555-1.068
		c-1.366-0.391-2.539-0.906-3.515-1.548c-0.976-0.641-1.729-1.449-2.263-2.429c-0.533-0.977-0.797-2.197-0.797-3.655
		c0-2.349,0.832-4.197,2.501-5.549c1.667-1.353,4.064-2.03,7.188-2.03c0.247,0,0.49,0.011,0.721,0.027
		c0.229,0.018,0.467,0.044,0.719,0.081v-6.337h2.287v6.711c0.642,0.177,1.243,0.389,1.812,0.639
		c0.566,0.248,1.091,0.488,1.567,0.717c0.487,0.231,0.91,0.426,1.283,0.587c0.372,0.158,0.663,0.238,0.875,0.238
		c0.391,0,0.677-0.195,0.854-0.585c0.177-0.39,0.316-0.905,0.429-1.544h2.982V31.44z M36.941,24.732
		c-1.491,0-2.743,0.229-3.757,0.691c-1.011,0.462-1.518,1.261-1.518,2.396c0,1.208,0.507,2.088,1.518,2.636
		c1.014,0.552,2.266,0.969,3.757,1.252V24.732z M39.228,45.552c1.848,0,3.189-0.329,4.021-0.983c0.833-0.659,1.254-1.5,1.254-2.531
		c0-1.205-0.507-2.081-1.523-2.609c-1.01-0.531-2.262-0.939-3.752-1.227V45.552z"/>
</g>
<g>
	<path fill="#383838" d="M176.594,32.637c-0.009,0.216-0.015,0.433-0.021,0.651c-3.509,1.37-12.071,1.247-11.024,7.781
		c0.418,2.617,3.065,3.652,3.373,6.31c0.684,5.853-3.979,12.146-6.725,15.753c-2.729,3.586-5.754,6.807-9.45,9.464
		c-0.702,0.13-0.605-0.486-0.618-1c-4.269,0.722-3.572,6.752-6.811,8.577c-0.054,1.629-0.108,3.257-0.166,4.887
		c1.074-0.194,7.936-3.676,8.461,0.608c-0.882-1.247-3.274-1.328-4.233-0.14c1.393,1.325,4.445,1.097,4.775,3.422
		c-0.751-0.124-1.626-0.752-0.988,0.292c0.1,0.933-3.595-1.778-4.258,0.51c1.44,1.284,4.474,1.076,4.778,3.423
		c-1.985-1.885-4.344-1.037-8.122-0.929c-5.086,0.153-8.21-2.193-11.108,0.608c0.636-2.806,3.895-2.811,6.634-3.363
		c0.023-0.654,0.045-1.305,0.066-1.956c-2.373-1.295-4.486,0.595-6.231,1.092c0.809-2.507,3.659-2.833,6.624-3.034
		c0.639-3.541-0.245-5.659-2.051-6.919c-2.498,0.506-6.543,4.146-8.511,1.019c-10.083,2.377-15.485,9.76-24.577,13.196
		c-0.441-1.794-3.529-1.116-5.156-1.806c0.016-0.434,0.029-0.867,0.043-1.301c3.643-8.653,12.864-12.888,19.563-19.234
		c-1.86-0.049-3.716-0.104-3.854-1.762c5.771-7.988,15.916-17.402,23.656-24.639c2.99-2.795,6.712-4.943,8.731-7.532
		c1.688-2.162,2.073-4.281,4.107-5.731C158.184,27.545,172.527,29.986,176.594,32.637z M144.686,89.281
		c1.462-0.691,4.5-1.475,5.278-1.777C147.89,87.761,145.145,87.301,144.686,89.281z"/>
</g>
</svg>
