<?xml version="1.0" encoding="utf-8"?>
<!-- Generator: Adobe Illustrator 15.1.0, SVG Export Plug-In . SVG Version: 6.00 Build 0)  -->
<!DOCTYPE svg PUBLIC "-//W3C//DTD SVG 1.1//EN" "http://www.w3.org/Graphics/SVG/1.1/DTD/svg11.dtd">
<svg version="1.1" id="Capa_1" xmlns="http://www.w3.org/2000/svg" xmlns:xlink="http://www.w3.org/1999/xlink" x="0px" y="0px"
	 width="250px" height="150px" viewBox="-86.915 -39.965 250 150" enable-background="new -86.915 -39.965 250 150"
	 xml:space="preserve">
<path d="M27.475,70.069"/>
<g>
	<circle fill="#383838" cx="38.085" cy="9.035" r="35"/>
	<g>
		<path fill="#FFFFFF" d="M50.319,5.017l-3.575,0.358c-0.32-2.182-1.123-3.899-2.412-5.147c-1.289-1.25-2.944-2.073-4.969-2.469
			v8.092c1.665,0.319,3.254,0.665,4.765,1.041c1.503,0.378,2.835,0.913,3.985,1.609c1.147,0.695,2.061,1.574,2.736,2.645
			c0.673,1.078,1.014,2.441,1.014,4.107c0,1.628-0.325,3.003-0.983,4.136c-0.653,1.134-1.549,2.055-2.678,2.772
			c-1.13,0.711-2.462,1.229-3.986,1.544c-1.53,0.315-3.148,0.478-4.853,0.478v6.958h-2.557V24c-1.114-0.155-2.082-0.396-2.917-0.711
			c-0.833-0.315-1.55-0.626-2.144-0.927c-0.596-0.295-1.1-0.562-1.518-0.803c-0.416-0.232-0.765-0.354-1.041-0.354
			c-0.794,0-1.191,0.476-1.191,1.429v1.007l-3.69,0.186V12.811l3.453-0.357c0.358,2.185,1.391,3.98,3.095,5.385
			c1.705,1.415,3.69,2.316,5.952,2.713v-8.47c-1.865-0.359-3.565-0.756-5.089-1.193c-1.526-0.437-2.837-1.013-3.928-1.731
			c-1.09-0.716-1.932-1.619-2.528-2.714c-0.595-1.091-0.891-2.455-0.891-4.084c0-2.625,0.93-4.69,2.795-6.201
			c1.862-1.512,4.542-2.269,8.032-2.269c0.275,0,0.547,0.012,0.806,0.03c0.256,0.02,0.521,0.049,0.803,0.09v-7.083h2.557v7.5
			c0.717,0.198,1.389,0.435,2.024,0.714c0.634,0.276,1.22,0.545,1.753,0.802c0.544,0.258,1.017,0.476,1.433,0.656
			c0.417,0.176,0.741,0.266,0.979,0.266c0.437,0,0.756-0.218,0.955-0.654c0.198-0.436,0.354-1.012,0.479-1.726h3.334V5.017z
			 M36.806-2.479c-1.666,0-3.064,0.256-4.198,0.772c-1.129,0.517-1.696,1.409-1.696,2.677c0,1.35,0.566,2.333,1.696,2.946
			c1.134,0.617,2.533,1.082,4.198,1.399V-2.479z M39.363,20.788c2.064,0,3.564-0.368,4.494-1.099
			c0.93-0.737,1.401-1.676,1.401-2.829c0-1.347-0.566-2.326-1.703-2.916c-1.128-0.594-2.527-1.05-4.192-1.371V20.788z"/>
	</g>
</g>
<g>
	<path fill="#7C870E" d="M-53.218,88.611h-5.827l-0.676-3.546l-0.718-2.533l-5.321-0.127l-4.688,0.127l-0.717,2.236l-0.718,3.843
		h-5.659l9.206-27.194h6.799L-53.218,88.611z M-61.663,78.095l-3.21-11.316h-0.379l-3.716,11.316l3.631,0.086L-61.663,78.095z"/>
	<path fill="#7C870E" d="M-43.506,65.977l-0.125,7.348l3.8,0.042l4.604-0.128l0.379,0.423l-0.421,4.265l-5.026-0.128l-3.421,0.046
		l-0.042,2.15l0.253,8.616h-5.743l0.295-8.106l-0.295-19.088h16.175l0.336,0.464l-0.422,4.306l-6.461-0.253L-43.506,65.977z"/>
	<path fill="#7C870E" d="M-24.248,65.977l-0.125,7.348l3.799,0.042l4.603-0.128l0.38,0.423l-0.421,4.265l-5.025-0.128l-3.422,0.046
		l-0.042,2.15l0.252,8.616h-5.742l0.295-8.106l-0.295-19.088h16.175l0.337,0.464l-0.422,4.306l-6.462-0.253L-24.248,65.977z"/>
	<path fill="#7C870E" d="M8.881,64.521c2.07,2.322,3.105,5.621,3.105,9.9c0,4.675-1.128,8.278-3.379,10.812
		c-2.253,2.532-5.436,3.801-9.543,3.801c-3.801,0-6.736-1.19-8.807-3.568c-2.069-2.381-3.104-5.752-3.104-10.114
		c0-4.59,1.119-8.125,3.358-10.603c2.238-2.476,5.412-3.715,9.523-3.715C3.863,61.035,6.812,62.197,8.881,64.521z M-5.371,67.75
		c-1.014,1.406-1.521,3.701-1.521,6.884c0,3.631,0.5,6.221,1.5,7.771c0.999,1.546,2.654,2.322,4.961,2.322
		c2.253,0,3.885-0.711,4.9-2.133c1.013-1.425,1.521-3.752,1.521-6.991c0-3.574-0.5-6.126-1.499-7.664
		c-1-1.532-2.655-2.304-4.963-2.304C-2.725,65.635-4.358,66.342-5.371,67.75z"/>
	<path fill="#7C870E" d="M37.03,87.261l-0.086,0.632c-1.833,0.649-3.702,1.028-5.62,1.142l-0.591-0.464
		c-2.026-3.493-3.672-6.534-4.939-9.121h-4.096v0.545l0.252,8.616h-5.743l0.295-8.106l-0.295-19.088l10.431-0.045
		c2.844,0,5.04,0.698,6.589,2.09c1.548,1.395,2.323,3.389,2.323,5.977c0,1.745-0.446,3.345-1.332,4.795
		c-0.887,1.449-2.131,2.64-3.736,3.565C32.678,81.291,34.857,84.448,37.03,87.261z M21.782,75.012l4.181,0.168
		c2.393-0.814,3.588-2.546,3.588-5.191c0-1.438-0.384-2.514-1.16-3.232c-0.775-0.717-1.964-1.103-3.569-1.161l-2.871,0.169
		L21.782,75.012z"/>
	<path fill="#7C870E" d="M61.142,64.542c2.108,2.194,3.168,5.346,3.168,9.457c0,4.813-1.184,8.503-3.546,11.066
		c-2.365,2.561-5.747,3.841-10.139,3.841c-1.323,0-2.908-0.027-4.75-0.085c-1.846-0.056-3.429-0.123-4.749-0.21l0.295-8.106
		l-0.295-19.088l10.936-0.172C56.004,61.245,59.032,62.345,61.142,64.542z M58.353,75.306c0-3.318-0.542-5.733-1.624-7.239
		c-1.086-1.505-2.78-2.262-5.09-2.262c-1.491,0-3.083,0.073-4.773,0.213l-0.251,13.977l0.127,4.183
		c1.97,0.196,3.602,0.296,4.897,0.296C56.117,84.473,58.353,81.419,58.353,75.306z"/>
	<path fill="#7C870E" d="M89.436,88.611h-5.825l-0.678-3.546l-0.718-2.533l-5.32-0.127l-4.688,0.127l-0.719,2.236l-0.717,3.843
		h-5.657l9.204-27.194h6.798L89.436,88.611z M80.994,78.095l-3.211-11.316H77.4l-3.715,11.316l3.63,0.086L80.994,78.095z"/>
	<path fill="#7C870E" d="M111.881,76.764c0.888,1.056,1.332,2.445,1.332,4.163c0,5.266-4.125,7.894-12.376,7.894
		c-2.42,0-4.897-0.068-7.429-0.21l0.294-8.106l-0.294-19.088l9.668-0.045c2.788,0,4.957,0.585,6.503,1.753
		c1.548,1.17,2.323,2.853,2.323,5.049c0,1.465-0.356,2.742-1.075,3.843c-0.718,1.097-1.739,1.927-3.062,2.491
		C109.622,74.957,110.996,75.711,111.881,76.764z M105.93,83.669c0.969-0.7,1.457-1.713,1.457-3.036c0-2.002-1.301-3.238-3.889-3.72
		l-4.688,0.086l-0.044,2.996l0.131,4.562c0.982,0.112,1.951,0.171,2.914,0.171C103.585,84.727,104.954,84.374,105.93,83.669z
		 M104.932,66.294c-0.729-0.521-2.01-0.783-3.841-0.783h-2.069l-0.124,7.393l3.966,0.127c1.071-0.283,1.866-0.747,2.385-1.395
		c0.522-0.646,0.784-1.548,0.784-2.703C106.033,67.692,105.669,66.811,104.932,66.294z"/>
	<path fill="#7C870E" d="M132.763,84.346l-0.378,4.265H117.69l0.296-8.106l-0.296-19.088h5.825l-0.337,18.578l0.128,3.888h9.121
		L132.763,84.346z"/>
	<path fill="#7C870E" d="M153.247,83.883l0.336,0.464l-0.377,4.265h-17.063l0.295-8.106l-0.295-19.088h17.228l0.341,0.464
		l-0.422,4.265l-6.504-0.212l-4.9,0.044l-0.124,6.544l4.686,0.085l4.436-0.127l0.338,0.424l-0.382,4.265l-4.815-0.128l-4.351,0.04
		l-0.042,2.915l0.131,4.098l4.771,0.041L153.247,83.883z"/>
</g>
</svg>
