<?xml version="1.0" encoding="utf-8"?>
<!-- Generator: Adobe Illustrator 23.0.1, SVG Export Plug-In . SVG Version: 6.00 Build 0)  -->
<svg version="1.1" id="Layer_1" xmlns="http://www.w3.org/2000/svg" xmlns:xlink="http://www.w3.org/1999/xlink" x="0px" y="0px"
	 viewBox="0 0 742 261" style="enable-background:new 0 0 742 261;" xml:space="preserve">
<style type="text/css">
	.st0{clip-path:url(#SVGID_2_);fill:url(#SVGID_3_);}
	.st1{clip-path:url(#SVGID_5_);fill:url(#SVGID_6_);}
	.st2{clip-path:url(#SVGID_8_);fill:url(#SVGID_9_);}
	.st3{fill:none;stroke:#F5F119;stroke-width:0.656;}
	.st4{clip-path:url(#SVGID_11_);fill:url(#SVGID_12_);}
	.st5{clip-path:url(#SVGID_14_);fill:url(#SVGID_15_);}
	.st6{clip-path:url(#SVGID_17_);fill:url(#SVGID_18_);}
	.st7{clip-path:url(#SVGID_20_);fill:url(#SVGID_21_);}
	.st8{clip-path:url(#SVGID_23_);fill:url(#SVGID_24_);}
	.st9{opacity:0.7;}
	.st10{clip-path:url(#SVGID_26_);fill:#FFFFFF;}
	.st11{fill:#C4750D;}
</style>
<rect x="668.1" y="193.4" width="48.2" height="41.3"/>
<polygon points="720.5,28.4 712,183.7 672.3,183.7 663.9,28.4 "/>
<g>
	<g>
		<g>
			<defs>
				<polygon id="SVGID_1_" points="659.7,92.9 659.6,168.8 669.5,160.9 679.4,171.1 679.5,95.1 				"/>
			</defs>
			<clipPath id="SVGID_2_">
				<use xlink:href="#SVGID_1_"  style="overflow:visible;"/>
			</clipPath>
			
				<linearGradient id="SVGID_3_" gradientUnits="userSpaceOnUse" x1="-21.0263" y1="355.2802" x2="-20.5793" y2="355.2802" gradientTransform="matrix(77.3799 17.3315 -17.0634 80.7647 8341.4619 -28201.6094)">
				<stop  offset="0" style="stop-color:#9F0F09"/>
				<stop  offset="0.4946" style="stop-color:#FA0F0C"/>
				<stop  offset="0.5914" style="stop-color:#F40F0C"/>
				<stop  offset="0.7248" style="stop-color:#E20E0B"/>
				<stop  offset="0.8787" style="stop-color:#C50E0B"/>
				<stop  offset="1" style="stop-color:#A90D0A"/>
			</linearGradient>
			<polygon class="st0" points="652.3,86.9 703.3,98.3 686.7,177 635.7,165.6 			"/>
		</g>
	</g>
	<g>
		<g>
			<defs>
				<polygon id="SVGID_4_" points="659.7,92.9 659.6,168.8 660.9,167.7 661,93 				"/>
			</defs>
			<clipPath id="SVGID_5_">
				<use xlink:href="#SVGID_4_"  style="overflow:visible;"/>
			</clipPath>
			
				<linearGradient id="SVGID_6_" gradientUnits="userSpaceOnUse" x1="-18.5848" y1="379.7944" x2="-18.1379" y2="379.7944" gradientTransform="matrix(13.8169 0.9177 -0.9177 13.8169 1261.8062 -5099.9131)">
				<stop  offset="0" style="stop-color:#9F0F09"/>
				<stop  offset="0.4946" style="stop-color:#FA0F0C"/>
				<stop  offset="0.5914" style="stop-color:#F40F0C"/>
				<stop  offset="0.7248" style="stop-color:#E20E0B"/>
				<stop  offset="0.8787" style="stop-color:#C50E0B"/>
				<stop  offset="1" style="stop-color:#A90D0A"/>
			</linearGradient>
			<polygon class="st1" points="641.3,91.4 684,94.2 678.9,170.4 636.2,167.5 			"/>
		</g>
	</g>
	<g>
		<g>
			<defs>
				<polygon id="SVGID_7_" points="678.1,94.9 678,169.7 679.4,171.1 679.5,95.1 				"/>
			</defs>
			<clipPath id="SVGID_8_">
				<use xlink:href="#SVGID_7_"  style="overflow:visible;"/>
			</clipPath>
			
				<linearGradient id="SVGID_9_" gradientUnits="userSpaceOnUse" x1="-20.2713" y1="379.3259" x2="-19.8245" y2="379.3259" gradientTransform="matrix(13.9984 0.9297 -0.9297 13.9984 1311.3462 -5158.5044)">
				<stop  offset="0" style="stop-color:#9F0F09"/>
				<stop  offset="0.4946" style="stop-color:#FA0F0C"/>
				<stop  offset="0.5914" style="stop-color:#F40F0C"/>
				<stop  offset="0.7248" style="stop-color:#E20E0B"/>
				<stop  offset="0.8787" style="stop-color:#C50E0B"/>
				<stop  offset="1" style="stop-color:#A90D0A"/>
			</linearGradient>
			<polygon class="st2" points="659.8,93.4 702.8,96.3 697.8,172.3 654.7,169.4 			"/>
		</g>
	</g>
	<polygon class="st3" points="678.1,94.9 678,169.7 679.4,171.1 679.5,95.1 	"/>
	<g>
		<g>
			<defs>
				<polygon id="SVGID_10_" points="617,152.4 630.5,149.3 634.8,161.6 673.6,97 655.8,87.8 				"/>
			</defs>
			<clipPath id="SVGID_11_">
				<use xlink:href="#SVGID_10_"  style="overflow:visible;"/>
			</clipPath>
			
				<linearGradient id="SVGID_12_" gradientUnits="userSpaceOnUse" x1="-17.6329" y1="356.933" x2="-17.1861" y2="356.933" gradientTransform="matrix(45.0461 24.731 -25.7863 46.9782 10633.4893 -16212.834)">
				<stop  offset="0" style="stop-color:#9F0F09"/>
				<stop  offset="0.4946" style="stop-color:#FA0F0C"/>
				<stop  offset="0.5914" style="stop-color:#F40F0C"/>
				<stop  offset="0.7248" style="stop-color:#E20E0B"/>
				<stop  offset="0.8787" style="stop-color:#C50E0B"/>
				<stop  offset="1" style="stop-color:#A90D0A"/>
			</linearGradient>
			<polygon class="st4" points="643.6,77.1 686.3,100.6 647,172.2 604.3,148.8 			"/>
		</g>
	</g>
	<g>
		<g>
			<defs>
				<polygon id="SVGID_13_" points="617,152.4 618.8,152 657,88.4 655.8,87.8 				"/>
			</defs>
			<clipPath id="SVGID_14_">
				<use xlink:href="#SVGID_13_"  style="overflow:visible;"/>
			</clipPath>
			
				<linearGradient id="SVGID_15_" gradientUnits="userSpaceOnUse" x1="-13.6464" y1="365.0819" x2="-13.1994" y2="365.0819" gradientTransform="matrix(22.9868 9.9999 -9.9999 22.9868 4596.3872 -8137.4946)">
				<stop  offset="0" style="stop-color:#9F0F09"/>
				<stop  offset="0.4946" style="stop-color:#FA0F0C"/>
				<stop  offset="0.5914" style="stop-color:#F40F0C"/>
				<stop  offset="0.7248" style="stop-color:#E20E0B"/>
				<stop  offset="0.8787" style="stop-color:#C50E0B"/>
				<stop  offset="1" style="stop-color:#A90D0A"/>
			</linearGradient>
			<polygon class="st5" points="641.1,81.3 662.8,90.7 632.9,159.4 611.3,149.9 			"/>
		</g>
	</g>
	<g>
		<g>
			<defs>
				<polygon id="SVGID_16_" points="634.2,159.9 634.8,161.6 673.6,97 672.4,96.3 				"/>
			</defs>
			<clipPath id="SVGID_17_">
				<use xlink:href="#SVGID_16_"  style="overflow:visible;"/>
			</clipPath>
			
				<linearGradient id="SVGID_18_" gradientUnits="userSpaceOnUse" x1="1.2706" y1="386.6486" x2="1.7175" y2="386.6486" gradientTransform="matrix(8.3669 4.5931 -4.5931 8.3669 2417.2246 -3112.8701)">
				<stop  offset="0" style="stop-color:#9F0F09"/>
				<stop  offset="0.4946" style="stop-color:#FA0F0C"/>
				<stop  offset="0.5914" style="stop-color:#F40F0C"/>
				<stop  offset="0.7248" style="stop-color:#E20E0B"/>
				<stop  offset="0.8787" style="stop-color:#C50E0B"/>
				<stop  offset="1" style="stop-color:#A90D0A"/>
			</linearGradient>
			<polygon class="st6" points="658.8,88.6 685,103 648.6,169.4 622.4,155 			"/>
		</g>
	</g>
	<polygon class="st3" points="672.4,96.3 634.2,159.9 634.8,161.6 673.6,97 	"/>
	<g>
		<g>
			<defs>
				<path id="SVGID_19_" d="M683.8,41.8c-1-0.3-1.8-1.2-2.7-2c-1-1-2.1-2-3.3-2.2c-2.3-0.3-4.6,2.6-6.8,2.8
					c-1.1,0.1-2.2-0.4-3.4-0.8c-1.3-0.5-2.7-1.1-3.8-0.7c-2.2,0.6-3.2,4.1-5.2,5.2c-2,1-5.5-0.1-7.3,1.3c-1.8,1.4-1.4,5-2.9,6.8
					c-1.5,1.7-5.1,2-6.2,4c-1.1,2,0.6,5.2,0,7.4c-0.7,2.1-3.9,3.7-4.2,6c-0.3,2.3,2.6,4.6,2.8,6.8c0.2,2.3-2.2,5-1.6,7.2
					c0.6,2.2,4.1,3.2,5.2,5.2c1,2-0.1,5.5,1.3,7.2c0.8,1,2.2,1.3,3.6,1.6c1.2,0.3,2.4,0.6,3.2,1.2c1.7,1.5,2,5.1,4,6.2
					c2,1.1,5.2-0.6,7.4,0c1,0.3,1.8,1.2,2.7,2c1,1,2.1,2,3.3,2.2c2.3,0.3,4.6-2.6,6.8-2.8c1.1-0.1,2.2,0.4,3.4,0.8
					c1.3,0.5,2.7,1.1,3.8,0.7c2.2-0.6,3.2-4.1,5.2-5.2c2-1,5.5,0.1,7.2-1.3c1.8-1.4,1.4-5,2.9-6.8c1.5-1.7,5.1-2,6.2-4
					c1.1-2-0.6-5.2,0-7.4c0.7-2.1,3.9-3.7,4.2-6c0.3-2.3-2.6-4.6-2.8-6.8c-0.2-2.3,2.2-5,1.6-7.2c-0.6-2.2-4.1-3.2-5.2-5.2
					c-1-2,0.1-5.5-1.3-7.2c-0.8-0.9-2.2-1.3-3.6-1.6c-1.2-0.3-2.4-0.6-3.2-1.2c-1.7-1.5-2-5.1-4-6.2c-0.1-0.1-0.3-0.1-0.4-0.2
					C688.8,41,685.8,42.5,683.8,41.8"/>
			</defs>
			<clipPath id="SVGID_20_">
				<use xlink:href="#SVGID_19_"  style="overflow:visible;"/>
			</clipPath>
			
				<linearGradient id="SVGID_21_" gradientUnits="userSpaceOnUse" x1="-19.4444" y1="351.6868" x2="-18.9975" y2="351.6868" gradientTransform="matrix(63.0217 144.2205 -144.2205 63.0217 52606.7305 -19315.3906)">
				<stop  offset="0" style="stop-color:#F6F9D5"/>
				<stop  offset="0.1" style="stop-color:#F9F97F"/>
				<stop  offset="0.26" style="stop-color:#F6E749"/>
				<stop  offset="0.54" style="stop-color:#FDD137"/>
				<stop  offset="1" style="stop-color:#E4911A"/>
			</linearGradient>
			<polygon class="st7" points="699.8,7 740.3,99.7 647.6,140.2 607.1,47.5 			"/>
		</g>
	</g>
	<g>
		<g>
			<defs>
				<path id="SVGID_22_" d="M647.7,86.3c-3.3-6.7-4.1-14.6-1.5-22.2c2.6-7.6,8-13.4,14.6-16.7c6.7-3.3,14.6-4.1,22.2-1.5
					c7.6,2.6,13.4,8,16.7,14.6c3.3,6.7,4.1,14.6,1.5,22.2c-2.6,7.6-8,13.4-14.6,16.7c-6.7,3.3-14.6,4.1-22.2,1.5S651,93,647.7,86.3
					 M644.5,63.6c-5.5,16.1,3.2,33.7,19.4,39.1c16.1,5.5,33.7-3.2,39.1-19.4c5.5-16.1-3.2-33.7-19.4-39.1
					C667.5,38.8,650,47.4,644.5,63.6"/>
			</defs>
			<clipPath id="SVGID_23_">
				<use xlink:href="#SVGID_22_"  style="overflow:visible;"/>
			</clipPath>
			
				<linearGradient id="SVGID_24_" gradientUnits="userSpaceOnUse" x1="-25.2859" y1="349.2809" x2="-24.8391" y2="349.2809" gradientTransform="matrix(-55.3767 -134.442 134.442 -55.3767 -47672.0508 16046.2383)">
				<stop  offset="0" style="stop-color:#F6F9D5"/>
				<stop  offset="0.1" style="stop-color:#F9F97F"/>
				<stop  offset="0.26" style="stop-color:#F6E749"/>
				<stop  offset="0.54" style="stop-color:#FDD137"/>
				<stop  offset="1" style="stop-color:#E4911A"/>
			</linearGradient>
			<polygon class="st8" points="650.1,130.3 616.9,49.8 697.4,16.6 730.6,97.1 			"/>
		</g>
	</g>
	<g class="st9">
		<g>
			<g>
				<defs>
					
						<rect id="SVGID_25_" x="663" y="32.7" transform="matrix(0.32 -0.9474 0.9474 0.32 403.2874 683.3109)" width="29.4" height="56"/>
				</defs>
				<clipPath id="SVGID_26_">
					<use xlink:href="#SVGID_25_"  style="overflow:visible;"/>
				</clipPath>
				<path class="st10" d="M681.5,49.4c14.2,4.8,22,19.9,18,34.1c0.2-0.4,0.3-0.9,0.5-1.3c4.9-14.6-2.9-30.5-17.6-35.5
					c-14.6-4.9-30.5,2.9-35.5,17.6c-0.2,0.4-0.3,0.9-0.4,1.3C651.9,51.9,667.3,44.6,681.5,49.4"/>
			</g>
		</g>
	</g>
	<path class="st11" d="M658.8,60c0-0.1,0-0.2,0.2-0.2c0.9,0.2,2.1,0,2.9,0.2c0.6,0.2,1.1,0.6,1.1,1.4c-0.1,0.9-0.5,1.4-1.1,1.8
		c-0.5,0.3-1.3,0.7-2.3,0.8c0.2,0.2,0.3,0.4,0.4,0.7c0.1,0.4-0.1,1.1-0.8,1.5c-0.7,0.4-1.7,0.5-2.4,0.4c-0.5-0.1-0.8-0.2-1-0.4
		c-0.2-0.2-0.3-0.5-0.4-0.7c-0.1-0.3-0.1-0.5,0.4-1.2c0.9-1.2,2.4-2.6,3.7-3.6C659,60.6,658.8,60.2,658.8,60z M658.2,64
		c-0.3-0.1-0.6-0.2-0.7-0.3c-0.5,0.5-1,1-1.4,1.6c-0.3,0.4-0.2,0.6,0.2,0.6c0.8,0.2,2,0,2.7-0.4c0.6-0.4,0.8-0.9-0.3-1.3
		C658.5,64.1,658.4,64.1,658.2,64z M662.5,61.5c0-0.7-1.4-0.5-2.3-0.6c-0.1,0.3-0.3,0.6-0.7,1c-0.4,0.4-0.9,0.8-1.5,1.3
		C660.5,63.5,662.5,62.4,662.5,61.5z"/>
	<path class="st11" d="M661.6,68c1,0.4,2.1-0.3,2.9-0.9c0.1-0.1,0.2,0,0.2,0.1c0,0.1-0.1,0.4-0.4,0.7c-0.7,0.6-1.8,0.8-2.7,0.5
		c-1.5-0.5-1.5-2.1-0.2-3.4c1.3-1.3,2.7-1.5,3.2-0.9c0.2,0.3,0.4,0.5,0.5,0.9c0.1,0.4-0.2,1-0.9,1.5c-0.8,0.5-1.7,0.6-2.3-0.4
		C660.9,66.9,661,67.8,661.6,68z M663.5,65.6c0.5-0.4,1-0.9,0.9-1.1c-0.2-0.3-1.4,0.1-2.3,1c-0.1,0.1-0.1,0.1-0.2,0.2
		C662.3,66.3,663,66,663.5,65.6z"/>
	<path class="st11" d="M666.8,65.5c0.2-0.4,0.4-0.6,0.7-0.8c0.3-0.2,0.6-0.1,0.7,0c0.1,0.2,0,0.3-0.3,0.5c-0.1,0.1-0.1,0.1-0.2,0.2
		c-0.4,1.1-0.5,2.1-0.8,2.9c-0.2,0.5-0.4,0.9-0.9,1.1c0.9,0,1.6-0.6,2.1-1.1c0.1-0.1,0.2,0,0.2,0.1c0,0.1-0.1,0.4-0.4,0.7
		c-0.7,0.7-1.7,0.8-2.5,0.6c-0.7-0.2-1.3-0.6-1.4-1.5c-0.1-0.6,0.2-1.4,0.7-1.6c0.2-0.1,0.3,0,0.2,0.2c0,0.1-0.1,0.2-0.1,0.3
		C665.4,66.6,666.2,66,666.8,65.5z M664.6,67.8c-0.1,0.7,0.1,1.3,0.6,1.4c0.6,0,1-1.9,1.3-2.9C665.9,66.8,665.3,67.3,664.6,67.8z"/>
	<path class="st11" d="M669.5,65.4c-0.1-0.2,0-0.3,0.2-0.2c0.3,0.1,0.7,0.2,1,0.3c0.6-0.5,1.1-1,1.4-1.2c0.2-0.1,0.3-0.1,0.3,0.1
		c0,0.4-0.1,0.8-0.6,1.3c0.5,0.1,0.6,0.4,0.6,0.6c0,0.2,0,0.2-0.2,0.2c-0.2-0.1-0.6-0.2-0.9-0.3c-0.7,0.6-1.8,1.6-2.6,2.4
		c-0.7,0.7-0.8,1.5-0.3,1.7c0.5,0.2,1.5-0.4,2.2-1.1c0.1-0.1,0.3-0.1,0.2,0.1c0,0.2-0.1,0.4-0.3,0.6c-0.3,0.3-1.4,1.1-2.3,0.7
		c-0.8-0.3-1.1-1.4-0.1-2.5c0.4-0.5,1.3-1.3,2.1-2.1C669.8,65.9,669.6,65.6,669.5,65.4z"/>
	<path class="st11" d="M676.2,65.9c0-0.1,0-0.2,0.2-0.2c0.8,0.2,2.1,0,2.9,0.2c0.6,0.2,1.1,0.6,1.1,1.4c-0.1,0.9-0.5,1.4-1.1,1.8
		c-0.5,0.3-1.3,0.7-2.3,0.8c0.2,0.2,0.3,0.4,0.4,0.7c0.1,0.5-0.1,1.1-0.8,1.5c-0.7,0.4-1.7,0.5-2.4,0.4c-0.5-0.1-0.8-0.2-1-0.4
		c-0.2-0.2-0.3-0.5-0.4-0.7c-0.1-0.3-0.1-0.5,0.4-1.2c0.9-1.2,2.4-2.6,3.7-3.6C676.4,66.5,676.2,66.1,676.2,65.9z M675.6,69.9
		c-0.3-0.1-0.6-0.2-0.7-0.3c-0.5,0.5-1,1-1.4,1.6c-0.3,0.4-0.2,0.6,0.2,0.6c0.8,0.2,2,0,2.7-0.4c0.6-0.4,0.8-0.9-0.3-1.3
		C676,70,675.8,69.9,675.6,69.9z M679.9,67.3c0-0.7-1.4-0.5-2.3-0.6c-0.1,0.3-0.3,0.6-0.7,1c-0.4,0.4-0.9,0.8-1.5,1.3
		C677.9,69.3,679.9,68.2,679.9,67.3z"/>
	<path class="st11" d="M684.4,70.9c0.2-0.1,0.3-0.1,0.4,0.1c0.1,0.3,0.2,1-0.2,1.2c-0.8,0.4-1.6,1.1-2,1.6c-0.4,0.6-0.5,1.1-0.1,1.2
		c0.5,0.2,1.3-0.4,2-1.1c0.1-0.1,0.2-0.1,0.2,0.1c0,0.2-0.1,0.5-0.3,0.7c-0.5,0.6-1.4,0.9-2.1,0.6c-0.9-0.3-1-1.3-0.4-2.1
		c0.5-0.7,1.6-1.4,2.3-1.8c-0.7,0.2-1.2,0.1-1.6,0c-1.3,1.4-3.1,2.8-4.4,2.5c-0.9-0.2-0.9-1.1-0.3-2c0.7-1,2.1-2.1,2.5-2.4
		c0.2-0.1,0.2-0.1,0.3,0c0.1,0.2,0,0.8-0.5,1.3c-0.4,0.4-1.1,1-1.7,1.6c-0.5,0.6-0.6,1-0.2,1.1c0.8,0.2,2.5-0.8,3.8-2.4
		c-0.8-0.6,0.9-1.9,1.4-1.7c0.4,0.1,0,0.8-0.6,1.5C683.4,71.1,683.9,71.1,684.4,70.9z M681.5,69.8c-0.2,0.1-0.5,0-0.6-0.4
		c-0.1-0.4,0.1-0.7,0.3-0.8c0.3-0.1,0.6,0.1,0.6,0.5C681.9,69.4,681.7,69.7,681.5,69.8z"/>
	<path class="st11" d="M687.1,76.7c0.5,0.1,1.4-0.4,2.1-1.1c0.1-0.1,0.2-0.1,0.2,0.1c0,0.1-0.1,0.4-0.3,0.7
		c-0.5,0.5-1.5,0.9-2.1,0.7c-0.6-0.2-0.8-0.7-0.6-1.3c-0.5,0.3-1.2,0.6-1.8,0.4c-1.1-0.4-0.8-1.9,0.6-3c1.4-1.1,2.5-1.3,3.1-1.1
		c0.5,0.2,0.6,0.6,0.4,1c1-1,2.5-2.3,3.1-2.8c0.2-0.1,0.3-0.1,0.3,0.1c0,0.4-0.2,0.9-1,1.7c-0.9,0.8-2.7,2.4-3.7,3.4
		C686.8,76.1,686.7,76.6,687.1,76.7z M685.7,73.8c-1,0.8-1.5,1.8-1,2c0.5,0.2,1.3-0.3,2.3-1.2c1.1-1.1,1.6-1.8,1.2-1.9
		C687.8,72.6,686.7,73,685.7,73.8z"/>
	<path class="st11" d="M691.6,73.9c0.2-0.4,0.4-0.6,0.7-0.8c0.3-0.1,0.6-0.1,0.7,0c0.1,0.2,0,0.3-0.3,0.5c-0.1,0.1-0.1,0.1-0.2,0.2
		c-0.5,1.1-0.5,2.1-0.8,2.9c-0.2,0.5-0.4,0.9-1,1.1c0.9,0,1.6-0.6,2.1-1.1c0.1-0.1,0.2,0,0.2,0.1c0,0.1-0.1,0.4-0.4,0.7
		c-0.7,0.7-1.7,0.8-2.5,0.6c-0.7-0.2-1.3-0.6-1.4-1.5c-0.1-0.6,0.2-1.4,0.7-1.6c0.2-0.1,0.3,0,0.2,0.2c0,0.1-0.1,0.2-0.1,0.3
		C690.2,75,691,74.4,691.6,73.9z M689.4,76.2c-0.1,0.7,0.1,1.3,0.6,1.4c0.6,0,1-1.9,1.3-2.9C690.7,75.2,690.1,75.7,689.4,76.2z"/>
</g>
<path d="M26.5,28.4h53.5c16.9,0,29.7,1.3,38.4,3.9s15.7,8,21.1,16c5.4,8,8,20.9,8,38.8c0,12.1-1.9,20.5-5.7,25.2
	c-3.8,4.7-11.2,8.4-22.4,10.9c12.4,2.8,20.8,7.5,25.2,14c4.4,6.5,6.6,16.5,6.6,29.9v19.1c0,13.9-1.6,24.3-4.8,31
	c-3.2,6.7-8.3,11.3-15.2,13.8c-7,2.5-21.2,3.7-42.8,3.7h-62C26.5,234.6,26.5,28.4,26.5,28.4z M80.2,63.7v45.9
	c2.3-0.1,4.1-0.1,5.4-0.1c5.3,0,8.6-1.3,10.1-3.9c1.4-2.6,2.2-10,2.2-22.2c0-6.5-0.6-11-1.8-13.6c-1.2-2.6-2.7-4.2-4.7-4.9
	C89.4,64.1,85.7,63.7,80.2,63.7z M80.2,141.6v57.7c7.6-0.3,12.4-1.4,14.5-3.6s3.1-7.3,3.1-15.7v-19.2c0-8.8-0.9-14.2-2.8-16.1
	S88.2,141.9,80.2,141.6z"/>
<path d="M224.3,28.4v206.2h-53.6V28.4H224.3z"/>
<path d="M245.8,28.4h38c25.3,0,42.4,1,51.4,2.9c9,2,16.3,6.9,21.9,15c5.6,8,8.5,20.8,8.5,38.4c0,16.1-2,26.8-6,32.4
	c-4,5.5-11.8,8.8-23.6,9.9c10.6,2.6,17.8,6.2,21.4,10.6c3.7,4.4,5.9,8.5,6.8,12.2c0.9,3.7,1.3,13.9,1.3,30.5v54.4h-49.8v-68.5
	c0-11-0.9-17.9-2.6-20.5s-6.3-3.9-13.7-3.9v93h-53.6L245.8,28.4L245.8,28.4z M299.4,63.7v45.9c6,0,10.3-0.8,12.7-2.5
	c2.4-1.7,3.6-7,3.6-16.1V79.6c0-6.5-1.2-10.8-3.5-12.9C309.9,64.7,305.6,63.7,299.4,63.7z"/>
<path d="M386.3,28.4h40.1c25.9,0,43.4,1.2,52.5,3.6c9.1,2.4,16.1,6.3,20.8,11.7c4.8,5.4,7.7,11.5,8.9,18.2s1.8,19.8,1.8,39.3v72.2
	c0,18.5-0.9,30.9-2.6,37.1c-1.7,6.2-4.8,11.1-9.1,14.6c-4.3,3.5-9.7,6-16.1,7.4c-6.4,1.4-16,2.1-28.8,2.1h-67.6L386.3,28.4
	L386.3,28.4z M439.9,63.7v135.7c7.7,0,12.5-1.5,14.3-4.6c1.8-3.1,2.7-11.5,2.7-25.3V89.3c0-9.3-0.3-15.3-0.9-18
	c-0.6-2.6-2-4.6-4.1-5.8C449.8,64.3,445.8,63.7,439.9,63.7z"/>
<path d="M644.1,90.8h-49.8V75.5c0-7.1-0.6-11.7-1.9-13.6c-1.3-2-3.4-2.9-6.4-2.9c-3.2,0-5.7,1.3-7.3,3.9c-1.7,2.6-2.5,6.6-2.5,12
	c0,6.9,0.9,12.1,2.8,15.6c1.8,3.5,6.8,7.7,15.2,12.6c23.9,14.2,38.9,25.8,45.1,34.9c6.2,9.1,9.3,23.7,9.3,43.9
	c0,14.7-1.7,25.5-5.2,32.5c-3.4,7-10.1,12.8-19.9,17.5c-9.9,4.7-21.3,7.1-34.4,7.1c-14.4,0-26.6-2.7-36.8-8.2
	c-10.1-5.4-16.8-12.4-19.9-20.8c-3.1-8.4-4.7-20.3-4.7-35.8v-13.5h49.8v25.1c0,7.7,0.7,12.7,2.1,14.9c1.4,2.2,3.9,3.3,7.5,3.3
	s6.2-1.4,8-4.2c1.7-2.8,2.6-7,2.6-12.5c0-12.1-1.7-20.1-5-23.8c-3.4-3.7-11.8-10-25.1-18.7c-13.3-8.8-22.2-15.2-26.5-19.2
	c-4.3-4-7.9-9.5-10.8-16.6c-2.8-7-4.3-16.1-4.3-27c0-15.8,2-27.3,6.1-34.7c4-7.3,10.6-13,19.6-17.1c9-4.1,19.9-6.2,32.6-6.2
	c13.9,0,25.8,2.3,35.6,6.8c9.8,4.5,16.3,10.2,19.5,17c3.2,6.8,4.8,18.5,4.8,34.8L644.1,90.8L644.1,90.8L644.1,90.8z"/>
<g>
	<path class="st11" d="M662.9,80.9c0,0.1-0.1,0.2-0.3,0.3c-0.1,0.1-0.3,0.1-0.4,0.1c-0.1,0-0.3-0.1-0.5-0.3
		c-0.2-0.1-0.4-0.2-0.5-0.3c-1.5-0.5-3-0.8-4.7-0.9c-0.3,0-0.5,0-0.6-0.1c-0.2-0.1-0.4-0.2-0.5-0.4s-0.1-0.4-0.1-0.6
		c0.1-0.2,0.3-0.4,0.6-0.6c0.1-0.1,0.4-0.2,0.8-0.3c1.2-0.4,2.4-1,3.4-1.6c1.4-0.9,2.2-1.8,2.5-2.6c0.1-0.3,0.1-0.7-0.1-1
		c-0.2-0.3-0.4-0.5-0.8-0.6c-0.4-0.1-0.9-0.1-1.4,0c-0.6,0.2-1,0.4-1.2,0.7c-0.2,0.3-0.3,0.6-0.5,0.9c-0.3,0.4-0.5,0.5-0.8,0.4
		c-0.1,0-0.3-0.2-0.4-0.4c-0.1-0.2-0.2-0.4-0.2-0.5c0.2-0.6,0.7-1.1,1.4-1.5c0.7-0.4,1.3-0.7,2-0.7c0.6-0.1,1.1,0,1.6,0.2
		c0.7,0.2,1.2,0.7,1.5,1.3s0.4,1.3,0.2,2c-0.3,1-1.2,1.9-2.6,2.7c-0.5,0.3-1.6,0.8-3.5,1.6c-0.2,0.1-0.3,0.1-0.5,0.2l4.9,0.9
		c0,0,0.1,0,0.2,0c0.2,0.1,0.4,0.2,0.4,0.5C663,80.4,663,80.6,662.9,80.9z"/>
	<path class="st11" d="M673.2,79.8c-0.4,1.3-1.2,2.3-2.2,3.1c-1.2,0.9-2.4,1.1-3.6,0.7c-1.2-0.4-2-1.2-2.4-2.3c-0.4-1-0.4-2.1,0-3.3
		c0.4-1.1,1-2,1.9-2.8c1-0.9,2.1-1.3,3.1-1.2c0.4,0,0.8,0.1,1.2,0.3c1,0.3,1.7,1.1,2,2.4C673.6,77.7,673.6,78.8,673.2,79.8z
		 M672,79.3c0.3-0.9,0.4-1.7,0.2-2.4c-0.2-0.9-0.7-1.4-1.5-1.7c-0.3-0.1-0.6-0.1-0.9,0c-0.8,0.2-1.5,0.6-2.1,1.2
		c-0.6,0.6-1,1.3-1.3,2.1c-0.3,0.9-0.3,1.6-0.1,2.3c0.3,0.8,0.8,1.3,1.7,1.6c0.9,0.3,1.7,0.1,2.5-0.7
		C671.2,81.1,671.7,80.3,672,79.3z"/>
	<path class="st11" d="M677.9,77.2c0,0.1-0.2,0.4-0.5,0.9c-0.7,1.2-1.2,2.2-1.5,3l-0.9,2.8c-0.3,0.7-0.4,1.2-0.3,1.3
		c0.1,0.3,0.1,0.5,0.1,0.5c0,0.1-0.1,0.2-0.3,0.3c-0.1,0.1-0.3,0.1-0.4,0c-0.2-0.1-0.4-0.2-0.7-0.5c0-0.3,0-0.5,0.1-0.7l2-5.8
		l-0.2-0.2l0.2-0.5c0.1-0.4,0.4-0.8,0.8-1.4c0.5-0.6,0.9-0.8,1.2-0.7c0.2,0.1,0.3,0.2,0.4,0.5C677.9,76.8,678,77.1,677.9,77.2z"/>
	<path class="st11" d="M684.8,82.7c-0.4,1.2-1.1,2.3-2.2,3.2c-0.5,0.4-1,0.8-1.7,1.1c-0.9,0.5-1.5,0.6-1.9,0.5
		c-0.2-0.1-0.4-0.2-0.6-0.5c-0.3-0.3-0.4-0.5-0.3-0.7c0-0.1,0.1-0.2,0.3-0.3c0.1-0.1,0.3-0.1,0.4,0c0.2,0.1,0.3,0.2,0.4,0.4
		c0.3,0.1,0.8-0.1,1.6-0.6c0.5-0.4,1-0.8,1.4-1.2c-0.8,0.2-1.5,0.2-2.1,0c-0.9-0.3-1.5-0.8-1.8-1.5c-0.3-0.7-0.4-1.5-0.1-2.4
		c0.4-1.1,1-1.9,1.8-2.4c0.9-0.5,1.8-0.6,2.9-0.2c1,0.3,1.7,1,2,2C685.1,80.8,685.1,81.7,684.8,82.7z M683.5,82.4
		c0.2-0.7,0.3-1.3,0.2-2c-0.1-0.8-0.5-1.3-1.1-1.5c-0.6-0.2-1.3-0.1-2,0.4c-0.6,0.5-1,1-1.2,1.7c-0.2,0.5-0.2,1,0,1.4
		c0.2,0.4,0.5,0.8,1,0.9c0.3,0.1,0.8,0.1,1.5-0.1c0.7-0.2,1.2-0.3,1.3-0.5C683.3,82.7,683.4,82.5,683.5,82.4z"/>
</g>
</svg>
