<?xml version="1.0" encoding="utf-8"?>
<!-- Generator: Adobe Illustrator 23.0.1, SVG Export Plug-In . SVG Version: 6.00 Build 0)  -->
<svg version="1.1" id="Layer_1" xmlns="http://www.w3.org/2000/svg" xmlns:xlink="http://www.w3.org/1999/xlink" x="0px" y="0px"
	 viewBox="0 0 141.9 66.6" style="enable-background:new 0 0 141.9 66.6;" xml:space="preserve">
<style type="text/css">
	.st0{fill:none;stroke:url(#SVGID_1_);stroke-width:6;stroke-miterlimit:10;}
	.st1{fill:#FFFFFF;}
</style>
<path d="M130.2,62.9H11.7c-4,0-7.2-4.1-7.2-9.1v-41c0-5,3.3-9.1,7.2-9.1h118.5c4,0,7.2,4.1,7.2,9.1v41.1
	C137.4,58.8,134.2,62.9,130.2,62.9z"/>
<linearGradient id="SVGID_1_" gradientUnits="userSpaceOnUse" x1="0" y1="32.1" x2="141.9202" y2="32.1" gradientTransform="matrix(1 0 0 -1 0 65.4)">
	<stop  offset="0" style="stop-color:#1E4E9A"/>
	<stop  offset="0.492" style="stop-color:#27D146"/>
	<stop  offset="1" style="stop-color:#C73DC9"/>
</linearGradient>
<path class="st0" d="M131.7,63.6H10.2c-4,0-7.2-4.1-7.2-9.1V12.1C3,7.1,6.3,3,10.2,3h121.5c4,0,7.2,4.1,7.2,9.1v42.4
	C138.9,59.5,135.7,63.6,131.7,63.6z"/>
<g>
	<path class="st1" d="M33.5,26.1c0,0.6-0.1,1.2-0.4,1.8c-0.3,0.5-0.6,1-1,1.4c-0.4,0.4-0.9,0.7-1.5,0.9c-0.6,0.2-1.2,0.3-1.8,0.3h-8
		v-17h8.2c0.6,0,1.1,0.1,1.6,0.4c0.5,0.3,0.9,0.6,1.2,1c0.3,0.4,0.6,0.9,0.8,1.4c0.2,0.5,0.3,1,0.3,1.6c0,0.9-0.2,1.7-0.6,2.4
		c-0.4,0.7-1,1.2-1.8,1.6c1,0.3,1.7,0.8,2.3,1.6C33.3,24.1,33.5,25.1,33.5,26.1z M22.4,14.9v6.3h5.9c0.4,0,0.8-0.1,1.2-0.3
		c0.4-0.2,0.7-0.4,0.9-0.7c0.3-0.3,0.5-0.6,0.6-1c0.1-0.4,0.2-0.8,0.2-1.2c0-0.4-0.1-0.8-0.2-1.2c-0.1-0.4-0.3-0.7-0.6-1
		c-0.2-0.3-0.5-0.5-0.9-0.7s-0.7-0.3-1.1-0.3H22.4z M31.9,25.8c0-0.4-0.1-0.8-0.2-1.2c-0.1-0.4-0.3-0.7-0.6-1
		c-0.3-0.3-0.6-0.5-0.9-0.7c-0.4-0.2-0.7-0.3-1.2-0.3h-6.5V29h6.4c0.4,0,0.8-0.1,1.2-0.3c0.4-0.2,0.7-0.4,1-0.7
		c0.3-0.3,0.5-0.6,0.6-1C31.8,26.6,31.9,26.2,31.9,25.8z"/>
	<path class="st1" d="M36.4,15.4V13H38v2.4H36.4z M36.4,30.5V18H38v12.5H36.4z"/>
	<path class="st1" d="M48.9,19.4c-1.1,0-2.1,0.3-2.9,0.9c-0.8,0.6-1.4,1.4-1.7,2.4v7.8h-1.6V18h1.5v3c0.4-0.9,1-1.6,1.7-2.2
		c0.7-0.6,1.5-0.9,2.3-0.9c0.1,0,0.3,0,0.4,0c0.1,0,0.2,0,0.3,0V19.4z"/>
	<path class="st1" d="M55.7,30.7c-0.9,0-1.7-0.2-2.4-0.5c-0.7-0.4-1.4-0.8-1.9-1.4c-0.5-0.6-1-1.3-1.2-2.1c-0.3-0.8-0.4-1.6-0.4-2.4
		c0-0.9,0.1-1.7,0.4-2.5s0.7-1.5,1.2-2.1c0.5-0.6,1.1-1.1,1.8-1.4c0.7-0.3,1.5-0.5,2.3-0.5c1.1,0,2,0.3,2.8,0.8
		c0.8,0.6,1.5,1.2,1.9,2V13h1.6v15.4c0,0.4,0.2,0.7,0.6,0.7v1.4c-0.3,0-0.5,0.1-0.6,0.1c-0.4,0-0.7-0.1-1-0.3
		c-0.3-0.2-0.4-0.5-0.4-0.8v-1.3c-0.5,0.8-1.2,1.5-2,1.9C57.5,30.5,56.6,30.7,55.7,30.7z M56,29.3c0.4,0,0.9-0.1,1.3-0.2
		c0.5-0.2,0.9-0.4,1.3-0.7c0.4-0.3,0.7-0.6,1-1c0.3-0.4,0.5-0.8,0.5-1.2v-3.9c-0.2-0.4-0.4-0.8-0.7-1.2c-0.3-0.4-0.7-0.7-1.1-1
		c-0.4-0.3-0.8-0.5-1.2-0.7s-0.9-0.2-1.3-0.2c-0.7,0-1.3,0.1-1.8,0.4c-0.6,0.3-1,0.7-1.4,1.1c-0.4,0.5-0.7,1-0.9,1.6
		c-0.2,0.6-0.3,1.2-0.3,1.9c0,0.7,0.1,1.3,0.4,1.9c0.2,0.6,0.6,1.1,1,1.6s0.9,0.8,1.5,1.1C54.8,29.1,55.4,29.3,56,29.3z"/>
	<g>
		<path class="st1" d="M19.7,43.8c0-1,0.2-2,0.5-3.1c0.4-1,0.9-1.9,1.6-2.7c0.7-0.8,1.5-1.5,2.5-2c1-0.5,2.2-0.8,3.4-0.8
			c1.5,0,2.8,0.3,3.9,1c1.1,0.7,1.9,1.6,2.4,2.7l-1.3,0.8c-0.3-0.6-0.6-1-1-1.4c-0.4-0.4-0.8-0.7-1.2-0.9c-0.4-0.2-0.9-0.4-1.4-0.5
			c-0.5-0.1-1-0.2-1.4-0.2c-1,0-1.9,0.2-2.7,0.6c-0.8,0.4-1.4,1-2,1.6c-0.5,0.7-0.9,1.4-1.2,2.3c-0.3,0.8-0.4,1.7-0.4,2.6
			c0,0.9,0.2,1.8,0.5,2.7c0.3,0.9,0.8,1.6,1.3,2.3c0.6,0.7,1.2,1.2,2,1.6c0.8,0.4,1.6,0.6,2.5,0.6c0.5,0,1-0.1,1.5-0.2
			c0.5-0.1,1-0.3,1.5-0.6c0.5-0.3,0.9-0.6,1.3-1c0.4-0.4,0.7-0.9,1-1.4l1.4,0.7c-0.3,0.6-0.7,1.2-1.2,1.7c-0.5,0.5-1,0.9-1.7,1.2
			s-1.3,0.6-1.9,0.8c-0.7,0.2-1.3,0.3-2,0.3c-1.2,0-2.2-0.3-3.2-0.8c-1-0.5-1.8-1.2-2.5-2c-0.7-0.8-1.3-1.8-1.6-2.8
			C19.9,46,19.7,44.9,19.7,43.8z"/>
		<path class="st1" d="M47.4,52.5h-1.6v-7c0-1.4-0.2-2.5-0.7-3.2c-0.5-0.7-1.2-1.1-2.1-1.1c-0.5,0-0.9,0.1-1.4,0.3
			c-0.5,0.2-0.9,0.4-1.3,0.8c-0.4,0.3-0.7,0.7-1,1.1c-0.3,0.4-0.5,0.9-0.7,1.4v7.7h-1.6V35h1.6v7.8c0.5-0.9,1.2-1.7,2.1-2.2
			c0.9-0.5,1.8-0.8,2.8-0.8c0.7,0,1.3,0.1,1.8,0.4c0.5,0.3,0.9,0.6,1.2,1.1c0.3,0.5,0.5,1,0.7,1.7c0.1,0.7,0.2,1.4,0.2,2.2V52.5z"/>
		<path class="st1" d="M54.1,52.7c-0.6,0-1.2-0.1-1.8-0.3c-0.5-0.2-1-0.5-1.4-0.8c-0.4-0.4-0.7-0.8-0.9-1.2c-0.2-0.5-0.3-1-0.3-1.5
			c0-0.6,0.1-1.1,0.4-1.6c0.3-0.5,0.6-0.9,1.1-1.2c0.5-0.3,1-0.6,1.7-0.8c0.6-0.2,1.4-0.3,2.1-0.3c0.6,0,1.3,0.1,1.9,0.2
			c0.7,0.1,1.2,0.3,1.8,0.5v-1.1c0-1.1-0.3-2-0.9-2.6c-0.6-0.6-1.5-1-2.6-1c-0.7,0-1.3,0.1-2,0.4c-0.7,0.3-1.3,0.6-2,1.1l-0.6-1.1
			c0.8-0.5,1.6-1,2.4-1.2c0.8-0.3,1.6-0.4,2.4-0.4c1.5,0,2.7,0.4,3.6,1.3c0.9,0.9,1.3,2.1,1.3,3.6v5.6c0,0.4,0.2,0.7,0.6,0.7v1.4
			c-0.1,0-0.2,0-0.4,0c-0.1,0-0.2,0-0.3,0c-0.3,0-0.6-0.1-0.9-0.3C59.2,52,59,51.8,59,51.4l0-1c-0.5,0.7-1.3,1.3-2.1,1.7
			C55.9,52.5,55,52.7,54.1,52.7z M54.5,51.5c0.7,0,1.4-0.2,2.1-0.5c0.7-0.3,1.3-0.7,1.7-1.3c0.1-0.1,0.2-0.3,0.3-0.5
			c0.1-0.2,0.1-0.3,0.1-0.5v-2c-0.5-0.2-1.1-0.4-1.7-0.5c-0.6-0.1-1.2-0.2-1.7-0.2c-1.2,0-2.1,0.2-2.8,0.7c-0.7,0.5-1.1,1.1-1.1,2
			c0,0.3,0.1,0.7,0.2,1c0.1,0.3,0.3,0.6,0.6,0.9c0.3,0.3,0.6,0.5,1,0.6C53.5,51.4,54,51.5,54.5,51.5z"/>
		<path class="st1" d="M69.8,51.9c-0.1,0-0.2,0.1-0.4,0.2c-0.2,0.1-0.4,0.2-0.6,0.2c-0.2,0.1-0.5,0.2-0.8,0.2
			c-0.3,0.1-0.6,0.1-1,0.1c-0.4,0-0.7,0-1-0.1s-0.6-0.2-0.8-0.4c-0.2-0.2-0.4-0.5-0.6-0.8c-0.1-0.3-0.2-0.7-0.2-1.1v-8.9h-1.7V40
			h1.7v-4.2H66V40h2.9v1.3H66v8.5c0,0.5,0.2,0.8,0.5,1c0.3,0.2,0.6,0.3,1,0.3c0.5,0,0.9-0.1,1.2-0.2c0.4-0.2,0.6-0.3,0.7-0.3
			L69.8,51.9z"/>
	</g>
</g>
<path class="st1" d="M117.7,14.4H88.4c-2.7,0-4.9,2.2-4.9,4.9v22c0,2.7,2.2,4.9,4.9,4.9h7.3v6.4c0,0.7,0.9,1.2,1.5,0.7l9.6-7.2h11
	c2.7,0,4.9-2.2,4.9-4.9v-22C122.6,16.6,120.4,14.4,117.7,14.4z"/>
</svg>
