<?xml version="1.0" encoding="utf-8"?>
<!-- Generator: Adobe Illustrator 15.1.0, SVG Export Plug-In . SVG Version: 6.00 Build 0)  -->
<!DOCTYPE svg PUBLIC "-//W3C//DTD SVG 1.1//EN" "http://www.w3.org/Graphics/SVG/1.1/DTD/svg11.dtd">
<svg version="1.1" id="Layer_1" xmlns="http://www.w3.org/2000/svg" xmlns:xlink="http://www.w3.org/1999/xlink" x="0px" y="0px"
	 width="800px" height="300px" viewBox="0 0 800 300" enable-background="new 0 0 800 300" xml:space="preserve">
<g>
	<path d="M53.048,46.876h53.505c16.9,0,29.703,1.316,38.408,3.949s15.733,7.951,21.083,15.977
		c5.351,8.015,8.026,20.935,8.026,38.759c0,12.06-1.89,20.457-5.669,25.213c-3.779,4.745-11.232,8.397-22.357,10.945
		c12.399,2.803,20.808,7.453,25.224,13.96c4.416,6.496,6.624,16.465,6.624,29.885v19.119c0,13.938-1.592,24.268-4.777,30.977
		c-3.185,6.721-8.259,11.307-15.223,13.77c-6.965,2.463-21.232,3.693-42.804,3.693h-62.04V46.876z M106.68,82.164v45.861
		c2.293-0.085,4.076-0.127,5.351-0.127c5.266,0,8.62-1.295,10.063-3.886c1.444-2.59,2.166-10,2.166-22.23
		c0-6.454-0.595-10.977-1.783-13.567c-1.189-2.59-2.739-4.225-4.65-4.905C115.916,82.631,112.2,82.249,106.68,82.164z
		 M106.68,160.127v57.709c7.559-0.254,12.378-1.443,14.459-3.566s3.121-7.346,3.121-15.67v-19.236
		c0-8.832-0.935-14.182-2.803-16.051S114.663,160.383,106.68,160.127z"/>
	<path d="M250.76,46.876v206.247h-53.632V46.876H250.76z"/>
	<path d="M272.289,46.876h37.963c25.309,0,42.443,0.977,51.403,2.93c8.96,1.953,16.264,6.943,21.911,14.968
		c5.647,8.026,8.472,20.829,8.472,38.409c0,16.052-1.996,26.837-5.987,32.358c-3.992,5.52-11.848,8.833-23.567,9.937
		c10.615,2.633,17.75,6.157,21.401,10.573c3.652,4.416,5.924,8.473,6.815,12.166c0.892,3.695,1.338,13.865,1.338,30.51v54.396
		h-49.811v-68.537c0-11.039-0.87-17.877-2.611-20.51s-6.306-3.949-13.694-3.949v92.996h-53.633V46.876z M325.922,82.164v45.861
		c6.029,0,10.255-0.828,12.675-2.484c2.421-1.656,3.631-7.028,3.631-16.115V98.087c0-6.539-1.168-10.828-3.503-12.866
		C336.389,83.183,332.121,82.164,325.922,82.164z"/>
	<path d="M412.803,46.876h40.129c25.902,0,43.419,1.189,52.549,3.567s16.072,6.285,20.828,11.72
		c4.757,5.436,7.729,11.486,8.918,18.153c1.188,6.667,1.783,19.767,1.783,39.3v72.231c0,18.516-0.87,30.893-2.611,37.135
		s-4.777,11.127-9.108,14.65c-4.331,3.525-9.682,5.988-16.052,7.389c-6.369,1.402-15.966,2.102-28.79,2.102h-67.646V46.876z
		 M466.435,82.164v135.672c7.729,0,12.484-1.549,14.269-4.65c1.783-3.1,2.675-11.527,2.675-25.287V107.77
		c0-9.342-0.297-15.33-0.892-17.962s-1.953-4.565-4.077-5.796C476.286,82.779,472.295,82.164,466.435,82.164z"/>
	<path d="M670.645,109.298h-49.811V94.011c0-7.134-0.637-11.678-1.911-13.631c-1.273-1.953-3.396-2.93-6.369-2.93
		c-3.228,0-5.669,1.316-7.325,3.949c-1.656,2.643-2.484,6.635-2.484,11.985c0,6.89,0.935,12.07,2.792,15.552
		c1.773,3.482,6.826,7.686,15.16,12.612c23.875,14.172,38.907,25.797,45.107,34.885c6.199,9.086,9.299,23.736,9.299,43.949
		c0,14.693-1.72,25.521-5.159,32.486c-3.439,6.963-10.085,12.803-19.937,17.516s-21.317,7.07-34.396,7.07
		c-14.353,0-26.604-2.717-36.752-8.152c-10.149-5.436-16.795-12.357-19.938-20.766c-3.142-8.408-4.713-20.34-4.713-35.797v-13.504
		h49.811v25.096c0,7.729,0.7,12.697,2.102,14.906c1.401,2.207,3.886,3.311,7.452,3.311c3.567,0,6.222-1.4,7.962-4.203
		c1.741-2.803,2.612-6.965,2.612-12.484c0-12.145-1.656-20.086-4.969-23.822c-3.397-3.736-11.763-9.979-25.096-18.727
		c-13.334-8.832-22.167-15.245-26.498-19.236s-7.919-9.512-10.765-16.561c-2.845-7.049-4.268-16.051-4.268-27.007
		c0-15.797,2.018-27.347,6.051-34.651c4.034-7.304,10.553-13.015,19.555-17.134c9.003-4.119,19.873-6.179,32.613-6.179
		c13.928,0,25.797,2.251,35.605,6.752c9.81,4.501,16.307,10.17,19.491,17.007s4.777,18.451,4.777,34.842V109.298z"/>
	<path d="M746.952,46.876l-8.408,155.29h-39.746l-8.408-155.29H746.952z M742.748,211.85v41.273h-48.154V211.85H742.748z"/>
</g>
</svg>
