<?xml version="1.0" encoding="utf-8"?>
<!-- Generator: Adobe Illustrator 15.1.0, SVG Export Plug-In . SVG Version: 6.00 Build 0)  -->
<!DOCTYPE svg PUBLIC "-//W3C//DTD SVG 1.1//EN" "http://www.w3.org/Graphics/SVG/1.1/DTD/svg11.dtd">
<svg version="1.1" id="Layer_1" xmlns="http://www.w3.org/2000/svg" xmlns:xlink="http://www.w3.org/1999/xlink" x="0px" y="0px"
	 width="742px" height="261px" viewBox="26.5 18.5 742 261" enable-background="new 26.5 18.5 742 261" xml:space="preserve">
<rect x="694.594" y="211.85" width="48.154" height="41.273"/>
<polygon points="746.952,46.876 738.544,202.166 698.798,202.166 690.39,46.876 "/>
<g>
	<g>
		<defs>
			<polygon id="SVGID_1_" points="686.162,111.359 686.056,187.322 695.97,179.418 705.857,189.555 705.965,113.591 			"/>
		</defs>
		<clipPath id="SVGID_2_">
			<use xlink:href="#SVGID_1_"  overflow="visible"/>
		</clipPath>
		
			<linearGradient id="SVGID_3_" gradientUnits="userSpaceOnUse" x1="-19.0854" y1="448.9004" x2="-18.6384" y2="448.9004" gradientTransform="matrix(77.3799 17.3315 17.0634 -80.7647 -5504.2715 36732.6289)">
			<stop  offset="0" style="stop-color:#9F0F09"/>
			<stop  offset="0.4946" style="stop-color:#FA0F0C"/>
			<stop  offset="0.5914" style="stop-color:#F40F0C"/>
			<stop  offset="0.7248" style="stop-color:#E20E0B"/>
			<stop  offset="0.8787" style="stop-color:#C50E0B"/>
			<stop  offset="1" style="stop-color:#A90D0A"/>
		</linearGradient>
		<polygon clip-path="url(#SVGID_2_)" fill="url(#SVGID_3_)" points="678.793,105.407 729.848,116.841 713.229,195.508 
			662.173,184.072 		"/>
	</g>
	<g>
		<defs>
			<polygon id="SVGID_4_" points="686.162,111.359 686.056,187.322 687.399,186.248 687.507,111.509 			"/>
		</defs>
		<clipPath id="SVGID_5_">
			<use xlink:href="#SVGID_4_"  overflow="visible"/>
		</clipPath>
		
			<linearGradient id="SVGID_6_" gradientUnits="userSpaceOnUse" x1="-16.3682" y1="455.6084" x2="-15.9213" y2="455.6084" gradientTransform="matrix(13.8169 0.9177 0.9177 -13.8169 491.0309 6459.2202)">
			<stop  offset="0" style="stop-color:#9F0F09"/>
			<stop  offset="0.4946" style="stop-color:#FA0F0C"/>
			<stop  offset="0.5914" style="stop-color:#F40F0C"/>
			<stop  offset="0.7248" style="stop-color:#E20E0B"/>
			<stop  offset="0.8787" style="stop-color:#C50E0B"/>
			<stop  offset="1" style="stop-color:#A90D0A"/>
		</linearGradient>
		<polygon clip-path="url(#SVGID_5_)" fill="url(#SVGID_6_)" points="667.753,109.857 710.496,112.697 705.439,188.85 
			662.694,186.01 		"/>
	</g>
	<g>
		<defs>
			<polygon id="SVGID_7_" points="704.621,113.439 704.515,188.18 705.857,189.555 705.965,113.591 			"/>
		</defs>
		<clipPath id="SVGID_8_">
			<use xlink:href="#SVGID_7_"  overflow="visible"/>
		</clipPath>
		
			<linearGradient id="SVGID_9_" gradientUnits="userSpaceOnUse" x1="-18.0444" y1="455.5908" x2="-17.5976" y2="455.5908" gradientTransform="matrix(13.9984 0.9297 0.9297 -13.9984 530.4504 6545.4297)">
			<stop  offset="0" style="stop-color:#9F0F09"/>
			<stop  offset="0.4946" style="stop-color:#FA0F0C"/>
			<stop  offset="0.5914" style="stop-color:#F40F0C"/>
			<stop  offset="0.7248" style="stop-color:#E20E0B"/>
			<stop  offset="0.8787" style="stop-color:#C50E0B"/>
			<stop  offset="1" style="stop-color:#A90D0A"/>
		</linearGradient>
		<polygon clip-path="url(#SVGID_8_)" fill="url(#SVGID_9_)" points="686.284,111.945 729.331,114.804 724.286,190.777 
			681.238,187.92 		"/>
	</g>
	<polygon fill="none" stroke="#F5F119" stroke-width="0.656" points="704.621,113.439 704.515,188.18 705.857,189.555 
		705.965,113.591 	"/>
	<g>
		<defs>
			<polygon id="SVGID_10_" points="643.482,170.918 656.99,167.816 661.275,180.055 700.113,115.464 682.321,106.324 			"/>
		</defs>
		<clipPath id="SVGID_11_">
			<use xlink:href="#SVGID_10_"  overflow="visible"/>
		</clipPath>
		
			<linearGradient id="SVGID_12_" gradientUnits="userSpaceOnUse" x1="-19.0776" y1="449.7432" x2="-18.6308" y2="449.7432" gradientTransform="matrix(45.0461 24.731 25.7863 -46.9782 -10076.1172 21737.5762)">
			<stop  offset="0" style="stop-color:#9F0F09"/>
			<stop  offset="0.4946" style="stop-color:#FA0F0C"/>
			<stop  offset="0.5914" style="stop-color:#F40F0C"/>
			<stop  offset="0.7248" style="stop-color:#E20E0B"/>
			<stop  offset="0.8787" style="stop-color:#C50E0B"/>
			<stop  offset="1" style="stop-color:#A90D0A"/>
		</linearGradient>
		<polygon clip-path="url(#SVGID_11_)" fill="url(#SVGID_12_)" points="670.072,95.641 712.836,119.119 673.524,190.738 
			630.76,167.262 		"/>
	</g>
	<g>
		<defs>
			<polygon id="SVGID_13_" points="643.482,170.918 645.313,170.496 683.526,106.944 682.321,106.324 			"/>
		</defs>
		<clipPath id="SVGID_14_">
			<use xlink:href="#SVGID_13_"  overflow="visible"/>
		</clipPath>
		
			<linearGradient id="SVGID_15_" gradientUnits="userSpaceOnUse" x1="-18.022" y1="452.2217" x2="-17.575" y2="452.2217" gradientTransform="matrix(22.9868 9.9999 9.9999 -22.9868 -3449.4932 10711.9717)">
			<stop  offset="0" style="stop-color:#9F0F09"/>
			<stop  offset="0.4946" style="stop-color:#FA0F0C"/>
			<stop  offset="0.5914" style="stop-color:#F40F0C"/>
			<stop  offset="0.7248" style="stop-color:#E20E0B"/>
			<stop  offset="0.8787" style="stop-color:#C50E0B"/>
			<stop  offset="1" style="stop-color:#A90D0A"/>
		</linearGradient>
		<polygon clip-path="url(#SVGID_14_)" fill="url(#SVGID_15_)" points="667.63,99.81 689.296,109.234 659.443,177.861 
			637.778,168.432 		"/>
	</g>
	<g>
		<defs>
			<polygon id="SVGID_16_" points="660.696,178.396 661.275,180.055 700.113,115.464 698.909,114.843 			"/>
		</defs>
		<clipPath id="SVGID_17_">
			<use xlink:href="#SVGID_16_"  overflow="visible"/>
		</clipPath>
		
			<linearGradient id="SVGID_18_" gradientUnits="userSpaceOnUse" x1="-19.6621" y1="460.0664" x2="-19.2152" y2="460.0664" gradientTransform="matrix(8.3669 4.5931 4.5931 -8.3669 -1270.1699 4086.1372)">
			<stop  offset="0" style="stop-color:#9F0F09"/>
			<stop  offset="0.4946" style="stop-color:#FA0F0C"/>
			<stop  offset="0.5914" style="stop-color:#F40F0C"/>
			<stop  offset="0.7248" style="stop-color:#E20E0B"/>
			<stop  offset="0.8787" style="stop-color:#C50E0B"/>
			<stop  offset="1" style="stop-color:#A90D0A"/>
		</linearGradient>
		<polygon clip-path="url(#SVGID_17_)" fill="url(#SVGID_18_)" points="685.327,107.12 711.529,121.503 675.103,187.861 
			648.9,173.477 		"/>
	</g>
	<polygon fill="none" stroke="#F5F119" stroke-width="0.656" points="698.909,114.843 660.695,178.396 661.275,180.055 
		700.113,115.463 	"/>
	<g>
		<defs>
			<path id="SVGID_19_" d="M710.309,60.32c-0.978-0.309-1.85-1.172-2.732-2.035c-1.031-1.016-2.074-2.031-3.313-2.17
				c-2.298-0.256-4.605,2.582-6.825,2.769c-1.059,0.088-2.218-0.378-3.371-0.843c-1.337-0.537-2.666-1.072-3.822-0.736
				c-2.188,0.634-3.236,4.139-5.236,5.176c-2.017,1.047-5.481-0.113-7.251,1.299c-1.768,1.414-1.401,5.049-2.866,6.783
				c-1.452,1.724-5.104,1.971-6.203,3.97c-1.086,1.961,0.646,5.175-0.047,7.364c-0.672,2.121-3.948,3.749-4.204,6.045
				c-0.258,2.297,2.579,4.604,2.766,6.824c0.192,2.288-2.203,5.039-1.579,7.193c0.634,2.19,4.139,3.238,5.178,5.237
				c1.046,2.017-0.113,5.483,1.298,7.25c0.762,0.954,2.167,1.286,3.574,1.619c1.205,0.286,2.409,0.571,3.21,1.248
				c1.722,1.454,1.97,5.104,3.968,6.206c1.964,1.082,5.178-0.647,7.365,0.045c0.977,0.309,1.85,1.172,2.73,2.035
				c1.032,1.016,2.076,2.031,3.315,2.17c2.295,0.254,4.605-2.58,6.825-2.769c1.059-0.089,2.218,0.378,3.37,0.843
				c1.337,0.537,2.666,1.072,3.821,0.738c2.192-0.635,3.238-4.14,5.239-5.18c2.016-1.045,5.48,0.116,7.25-1.299
				c1.768-1.412,1.399-5.049,2.865-6.783c1.453-1.721,5.103-1.969,6.205-3.968c1.083-1.962-0.646-5.177,0.046-7.364
				c0.672-2.122,3.948-3.748,4.204-6.047c0.257-2.297-2.58-4.605-2.767-6.824c-0.194-2.285,2.202-5.037,1.579-7.193
				c-0.633-2.189-4.139-3.236-5.177-5.237c-1.047-2.015,0.113-5.479-1.3-7.25c-0.761-0.949-2.167-1.283-3.573-1.616
				c-1.203-0.285-2.409-0.572-3.211-1.25c-1.721-1.452-1.97-5.102-3.967-6.204c-0.136-0.075-0.278-0.138-0.426-0.188
				C715.27,59.511,712.343,60.964,710.309,60.32"/>
		</defs>
		<clipPath id="SVGID_20_">
			<use xlink:href="#SVGID_19_"  overflow="visible"/>
		</clipPath>
		
			<linearGradient id="SVGID_21_" gradientUnits="userSpaceOnUse" x1="-19.3975" y1="447.7676" x2="-18.9506" y2="447.7676" gradientTransform="matrix(63.0217 144.2205 144.2205 -63.0217 -62667.2969 31079.2656)">
			<stop  offset="0" style="stop-color:#F6F9D5"/>
			<stop  offset="0.1" style="stop-color:#F9F97F"/>
			<stop  offset="0.26" style="stop-color:#F6E749"/>
			<stop  offset="0.54" style="stop-color:#FDD137"/>
			<stop  offset="1" style="stop-color:#E4911A"/>
		</linearGradient>
		<polygon clip-path="url(#SVGID_20_)" fill="url(#SVGID_21_)" points="726.3,25.533 766.79,118.191 674.109,158.691 
			633.619,66.031 		"/>
	</g>
	<g>
		<defs>
			<path id="SVGID_22_" d="M674.232,104.828c-3.296-6.664-4.053-14.581-1.485-22.18c2.566-7.599,7.969-13.438,14.629-16.734
				c6.663-3.299,14.58-4.055,22.18-1.487c7.599,2.565,13.438,7.968,16.734,14.63c3.297,6.664,4.055,14.58,1.487,22.18
				c-2.565,7.599-7.97,13.436-14.631,16.735c-6.662,3.295-14.581,4.052-22.179,1.485S677.531,111.488,674.232,104.828 M671.03,82.07
				c-5.453,16.143,3.216,33.65,19.357,39.104c16.145,5.453,33.652-3.215,39.105-19.357c5.452-16.145-3.213-33.654-19.357-39.107
				C693.992,57.257,676.482,65.924,671.03,82.07"/>
		</defs>
		<clipPath id="SVGID_23_">
			<use xlink:href="#SVGID_22_"  overflow="visible"/>
		</clipPath>
		
			<linearGradient id="SVGID_24_" gradientUnits="userSpaceOnUse" x1="-19.0566" y1="447.2129" x2="-18.6098" y2="447.2129" gradientTransform="matrix(-55.3767 -134.442 -134.442 55.3767 59781.7969 -27205.043)">
			<stop  offset="0" style="stop-color:#F6F9D5"/>
			<stop  offset="0.1" style="stop-color:#F9F97F"/>
			<stop  offset="0.26" style="stop-color:#F6E749"/>
			<stop  offset="0.54" style="stop-color:#FDD137"/>
			<stop  offset="1" style="stop-color:#E4911A"/>
		</linearGradient>
		<polygon clip-path="url(#SVGID_23_)" fill="url(#SVGID_24_)" points="676.591,148.769 643.433,68.269 723.933,35.113 
			757.091,115.611 		"/>
	</g>
	<g opacity="0.7">
		<g>
			<defs>
				
					<rect id="SVGID_25_" x="676.164" y="64.495" transform="matrix(-0.9474 -0.32 0.32 -0.9474 1345.9363 379.5721)" width="55.984" height="29.403"/>
			</defs>
			<clipPath id="SVGID_26_">
				<use xlink:href="#SVGID_25_"  overflow="visible"/>
			</clipPath>
			<path clip-path="url(#SVGID_26_)" fill="#FFFFFF" d="M707.957,67.943c14.198,4.795,22.021,19.869,17.981,34.129
				c0.172-0.436,0.333-0.877,0.485-1.327c4.946-14.644-2.917-30.529-17.563-35.476c-14.647-4.949-30.53,2.914-35.478,17.562
				c-0.152,0.448-0.291,0.899-0.418,1.349C678.399,70.388,693.761,63.148,707.957,67.943"/>
		</g>
	</g>
	<path fill="#C4750D" d="M685.298,78.52c-0.015-0.147,0.041-0.195,0.187-0.158c0.851,0.209,2.107-0.013,2.915,0.208
		c0.612,0.168,1.129,0.553,1.068,1.426c-0.054,0.863-0.5,1.447-1.078,1.832c-0.49,0.32-1.314,0.701-2.315,0.781
		c0.188,0.184,0.32,0.412,0.397,0.688c0.126,0.45-0.121,1.142-0.816,1.524c-0.71,0.393-1.734,0.505-2.437,0.4
		c-0.477-0.066-0.755-0.176-0.972-0.393c-0.195-0.199-0.343-0.471-0.419-0.747c-0.09-0.319-0.143-0.548,0.384-1.213
		c0.919-1.162,2.398-2.581,3.729-3.604C685.478,79.082,685.316,78.74,685.298,78.52z M684.695,82.525
		c-0.342-0.076-0.566-0.188-0.702-0.328c-0.527,0.506-1.035,1.033-1.411,1.562c-0.269,0.368-0.187,0.556,0.206,0.636
		c0.788,0.16,1.967,0.02,2.687-0.436c0.618-0.395,0.798-0.926-0.257-1.348C685.04,82.591,684.869,82.558,684.695,82.525z
		 M688.994,79.955c-0.027-0.693-1.379-0.545-2.281-0.561c-0.063,0.268-0.268,0.594-0.745,1.037
		c-0.383,0.357-0.913,0.797-1.459,1.282C687.028,81.959,689.021,80.858,688.994,79.955z"/>
	<path fill="#C4750D" d="M688.065,86.531c0.966,0.379,2.145-0.274,2.916-0.883c0.091-0.074,0.185-0.041,0.197,0.08
		c0.014,0.109-0.134,0.43-0.448,0.664c-0.74,0.554-1.832,0.787-2.743,0.494c-1.508-0.482-1.529-2.133-0.247-3.396
		c1.281-1.265,2.69-1.473,3.165-0.932c0.236,0.278,0.389,0.526,0.491,0.852c0.117,0.353-0.222,1.043-0.922,1.477
		c-0.818,0.513-1.713,0.553-2.31-0.399C687.42,85.445,687.454,86.285,688.065,86.531z M689.964,84.146
		c0.544-0.366,1.01-0.893,0.891-1.079c-0.182-0.285-1.4,0.095-2.335,1.027c-0.059,0.06-0.116,0.118-0.161,0.169
		C688.812,84.826,689.47,84.48,689.964,84.146z"/>
	<path fill="#C4750D" d="M693.274,84.043c0.215-0.441,0.408-0.625,0.732-0.765c0.341-0.15,0.626-0.105,0.696,0.038
		c0.079,0.156-0.025,0.267-0.269,0.487c-0.071,0.055-0.133,0.112-0.206,0.18c-0.449,1.058-0.537,2.055-0.848,2.856
		c-0.179,0.452-0.43,0.921-0.949,1.06c0.89-0.027,1.625-0.568,2.136-1.105c0.104-0.111,0.211-0.035,0.224,0.076
		c0.012,0.121-0.104,0.424-0.428,0.723c-0.724,0.664-1.678,0.84-2.527,0.594c-0.695-0.208-1.294-0.609-1.448-1.477
		c-0.104-0.627,0.195-1.395,0.708-1.588c0.181-0.072,0.261,0.009,0.208,0.199c-0.021,0.102-0.053,0.195-0.073,0.292
		C691.938,85.117,692.729,84.529,693.274,84.043z M691.122,86.289c-0.054,0.744,0.125,1.344,0.554,1.356
		c0.599,0.019,1.048-1.896,1.319-2.854C692.442,85.3,691.785,85.802,691.122,86.289z"/>
	<path fill="#C4750D" d="M696.046,83.94c-0.062-0.204,0.037-0.263,0.21-0.192c0.327,0.125,0.665,0.213,0.996,0.283
		c0.586-0.525,1.104-0.967,1.392-1.159c0.157-0.118,0.271-0.065,0.283,0.095c0.017,0.375-0.114,0.766-0.604,1.283
		c0.464,0.143,0.569,0.416,0.611,0.602c0.035,0.168-0.039,0.236-0.216,0.175c-0.25-0.123-0.626-0.21-0.938-0.263
		c-0.727,0.635-1.787,1.553-2.57,2.393c-0.68,0.73-0.797,1.506-0.309,1.696c0.521,0.203,1.479-0.408,2.213-1.146
		c0.12-0.117,0.257-0.097,0.248,0.083c-0.005,0.209-0.136,0.401-0.344,0.635c-0.271,0.29-1.398,1.065-2.331,0.712
		c-0.773-0.287-1.101-1.371-0.078-2.539c0.446-0.506,1.277-1.33,2.099-2.091C696.31,84.371,696.098,84.103,696.046,83.94z"/>
	<path fill="#C4750D" d="M702.717,84.404c-0.015-0.148,0.04-0.196,0.187-0.158c0.85,0.208,2.106-0.014,2.914,0.208
		c0.613,0.167,1.128,0.552,1.069,1.426c-0.056,0.862-0.502,1.446-1.079,1.832c-0.491,0.321-1.313,0.7-2.314,0.782
		c0.187,0.183,0.319,0.41,0.397,0.686c0.125,0.451-0.122,1.143-0.817,1.526c-0.711,0.392-1.735,0.505-2.438,0.401
		c-0.476-0.068-0.754-0.178-0.971-0.395c-0.194-0.198-0.34-0.471-0.419-0.748c-0.088-0.318-0.143-0.547,0.385-1.211
		c0.918-1.162,2.397-2.582,3.731-3.605C702.895,84.964,702.735,84.621,702.717,84.404z M702.114,88.41
		c-0.343-0.076-0.565-0.192-0.703-0.33c-0.527,0.506-1.033,1.031-1.41,1.562c-0.27,0.368-0.188,0.555,0.205,0.635
		c0.789,0.162,1.968,0.02,2.686-0.434c0.62-0.396,0.801-0.928-0.254-1.35C702.46,88.474,702.286,88.441,702.114,88.41z
		 M706.415,85.837c-0.031-0.693-1.382-0.545-2.283-0.56c-0.064,0.267-0.266,0.593-0.745,1.036c-0.382,0.357-0.913,0.797-1.458,1.283
		C704.449,87.842,706.438,86.742,706.415,85.837z"/>
	<path fill="#C4750D" d="M710.904,89.407c0.179-0.06,0.313-0.067,0.367,0.083c0.129,0.32,0.225,0.972-0.247,1.246
		c-0.772,0.449-1.621,1.055-2.033,1.614c-0.429,0.565-0.466,1.104-0.092,1.244c0.469,0.171,1.328-0.394,2.007-1.149
		c0.083-0.09,0.165-0.063,0.176,0.059c0.017,0.15-0.062,0.455-0.317,0.748c-0.535,0.609-1.409,0.864-2.056,0.635
		c-0.89-0.328-0.984-1.254-0.354-2.106c0.519-0.72,1.565-1.364,2.264-1.759c-0.65,0.173-1.222,0.111-1.612-0.018
		c-1.296,1.428-3.063,2.764-4.396,2.471c-0.941-0.213-0.896-1.131-0.261-1.995c0.726-0.979,2.128-2.095,2.49-2.354
		c0.155-0.106,0.25-0.112,0.31,0.024c0.112,0.25,0.009,0.793-0.451,1.294c-0.4,0.445-1.113,0.954-1.67,1.595
		c-0.512,0.577-0.626,1.037-0.232,1.117c0.799,0.164,2.497-0.773,3.776-2.381c-0.795-0.648,0.905-1.863,1.404-1.707
		c0.382,0.114-0.022,0.808-0.555,1.455C709.86,89.619,710.354,89.562,710.904,89.407z M708.039,88.281
		c-0.202,0.128-0.532-0.021-0.602-0.401c-0.069-0.377,0.093-0.706,0.35-0.841c0.257-0.137,0.553,0.119,0.597,0.49
		C708.427,87.873,708.224,88.158,708.039,88.281z"/>
	<path fill="#C4750D" d="M713.564,95.171c0.491,0.139,1.398-0.438,2.084-1.112c0.096-0.086,0.178-0.06,0.194,0.053
		c0.012,0.122-0.081,0.435-0.341,0.699c-0.539,0.542-1.482,0.921-2.119,0.665c-0.625-0.25-0.825-0.711-0.639-1.266
		c-0.536,0.344-1.215,0.601-1.769,0.414c-1.099-0.371-0.805-1.943,0.642-3.033c1.396-1.051,2.52-1.266,3.107-1.066
		c0.485,0.165,0.599,0.61,0.438,1.042c1.048-0.999,2.487-2.302,3.116-2.759c0.173-0.125,0.275-0.079,0.283,0.094
		c0.032,0.445-0.173,0.941-0.968,1.66c-0.91,0.822-2.7,2.387-3.714,3.439C713.331,94.578,713.155,95.058,713.564,95.171z
		 M712.237,92.328c-0.98,0.799-1.457,1.782-1,1.951c0.467,0.171,1.34-0.312,2.258-1.196c1.126-1.079,1.553-1.763,1.217-1.892
		C714.35,91.056,713.237,91.509,712.237,92.328z"/>
	<path fill="#C4750D" d="M718.074,92.419c0.214-0.439,0.409-0.625,0.73-0.765c0.342-0.149,0.627-0.106,0.698,0.038
		c0.079,0.157-0.023,0.267-0.271,0.486c-0.071,0.055-0.131,0.114-0.204,0.18c-0.451,1.06-0.537,2.057-0.847,2.857
		c-0.18,0.455-0.431,0.922-0.951,1.061c0.891-0.028,1.625-0.57,2.137-1.107c0.101-0.109,0.207-0.033,0.223,0.076
		c0.013,0.123-0.104,0.426-0.429,0.724c-0.722,0.661-1.677,0.841-2.527,0.593c-0.694-0.207-1.293-0.609-1.446-1.475
		c-0.104-0.627,0.196-1.395,0.707-1.59c0.183-0.07,0.26,0.01,0.209,0.203c-0.021,0.098-0.052,0.191-0.071,0.291
		C716.738,93.494,717.528,92.906,718.074,92.419z M715.92,94.665c-0.053,0.745,0.125,1.345,0.556,1.356
		c0.599,0.019,1.047-1.895,1.318-2.854C717.241,93.677,716.585,94.177,715.92,94.665z"/>
	<g>
		<path fill="#C4750D" d="M687.696,99.025c0.77,0.242,1.129,0.678,1.137,1.218c-0.002,0.157-0.033,0.252-0.235,0.185
			c-0.896-0.34-3.064-0.654-4.062-0.695c-0.445-0.014-0.633-0.129-0.743-0.373c-0.117-0.268-0.162-0.542-0.167-0.788
			c-0.021-0.353,0.063-0.447,0.46-0.54c5.026-1.083,10.032-3.758,9.361-5.32c-0.45-1.041-2.314,0.207-3.091,0.813
			c-0.734,0.57-1.238,0.782-1.917,0.52c-0.194-0.085-0.195-0.136-0.071-0.303c0.52-0.66,2.034-2.007,3.479-2.216
			c0.86-0.127,1.771,0.217,2.175,1.029c0.381,0.772,0.353,1.684-0.752,2.789c-1.019,1.013-4.215,2.75-7.822,3.34
			C686.308,98.712,687.146,98.857,687.696,99.025z"/>
		<path fill="#C4750D" d="M698.937,100.351c-1.885,1.921-4.305,3.173-6.086,1.857c-1.07-0.797-1.254-2.058-0.861-3.265
			c1.032-3.214,4.692-5.247,6.547-5.386c0.964-0.072,1.648,0.314,1.913,0.873C702.044,95.734,700.682,98.578,698.937,100.351z
			 M700.053,94.679c-0.634-0.492-2.85,0.047-4.947,1.875c-2.121,1.857-2.954,4.375-2.07,5.107c0.823,0.697,3-0.028,4.935-2
			C700.116,97.483,700.77,95.236,700.053,94.679z"/>
		<path fill="#C4750D" d="M703.284,96.917c0.621-0.295,1.367-0.651,2.004-0.991c0.183-0.079,0.295-0.056,0.404,0.136
			c0.317,0.56,0.147,1.162-0.825,2.086c-1.491,1.428-4.198,3.729-6.427,6.263c-0.116,0.134-0.236,0.128-0.304-0.034
			c-0.153-0.365-0.114-0.89,0.508-1.758c0.644-0.878,3.203-3.457,5.089-5.184C702.922,97.212,703.096,97.011,703.284,96.917z"/>
		<path fill="#C4750D" d="M707.417,102.644c0.153,1.406-0.107,2.641-1.637,3.41c-1.09,0.554-2.788,0.275-3.557-0.487
			c-1.12-1.11-0.541-2.462,0.378-3.282c0.752-0.684,1.976-1.314,3.284-1.793c-0.061-0.646-0.058-1.271,0.157-1.703
			c0.484-1.02,1.589-1.566,2.669-1.617c1.572-0.08,2.881,0.834,2.255,2.324c0.475,0.037,0.792,0.18,0.954,0.374
			c0.112,0.125,0.07,0.25-0.111,0.276c-1.257,0.219-2.967,0.597-4.58,1.111C707.288,101.695,707.367,102.175,707.417,102.644z
			 M703.102,103.427c-0.572,0.607-0.812,1.275-0.371,1.719c0.441,0.445,1.342,0.506,2.084,0.113
			c0.719-0.383,1.369-0.859,1.343-2.227c-0.014-0.42-0.071-0.875-0.136-1.348C704.816,102.165,703.753,102.744,703.102,103.427z
			 M709.417,97.808c-0.812-0.117-1.894,0.559-2.172,1.385c-0.092,0.267-0.123,0.568-0.111,0.903c0.942-0.272,1.91-0.468,2.74-0.552
			C710.211,98.753,710.178,97.924,709.417,97.808z"/>
	</g>
</g>
<path d="M53.048,46.876h53.505c16.9,0,29.703,1.316,38.408,3.949c8.705,2.633,15.733,7.951,21.083,15.977
	c5.351,8.015,8.026,20.935,8.026,38.759c0,12.06-1.89,20.457-5.669,25.213c-3.779,4.745-11.232,8.397-22.357,10.945
	c12.399,2.803,20.808,7.453,25.224,13.961c4.416,6.495,6.624,16.465,6.624,29.885v19.119c0,13.938-1.592,24.268-4.777,30.977
	c-3.185,6.721-8.259,11.307-15.223,13.77c-6.965,2.463-21.232,3.693-42.804,3.693h-62.04V46.876z M106.68,82.164v45.861
	c2.293-0.085,4.076-0.127,5.351-0.127c5.266,0,8.62-1.295,10.063-3.886c1.444-2.59,2.166-10,2.166-22.229
	c0-6.454-0.595-10.977-1.783-13.567c-1.189-2.59-2.739-4.225-4.65-4.905C115.916,82.631,112.2,82.249,106.68,82.164z
	 M106.68,160.127v57.709c7.559-0.254,12.378-1.443,14.459-3.566s3.121-7.346,3.121-15.67v-19.235c0-8.832-0.935-14.183-2.803-16.052
	S114.663,160.383,106.68,160.127z"/>
<path d="M250.76,46.876v206.247h-53.632V46.876H250.76z"/>
<path d="M272.289,46.876h37.963c25.309,0,42.443,0.977,51.403,2.93c8.96,1.953,16.264,6.943,21.911,14.968
	c5.646,8.026,8.472,20.829,8.472,38.409c0,16.052-1.996,26.837-5.987,32.358c-3.992,5.52-11.848,8.833-23.566,9.937
	c10.614,2.633,17.75,6.157,21.4,10.573c3.652,4.416,5.924,8.473,6.815,12.166c0.892,3.695,1.338,13.865,1.338,30.51v54.396h-49.812
	v-68.537c0-11.039-0.869-17.877-2.61-20.51s-6.306-3.949-13.694-3.949v92.996h-53.633V46.876L272.289,46.876z M325.922,82.164
	v45.861c6.029,0,10.255-0.828,12.675-2.484c2.421-1.656,3.631-7.028,3.631-16.115V98.087c0-6.539-1.168-10.828-3.503-12.866
	C336.389,83.183,332.121,82.164,325.922,82.164z"/>
<path d="M412.803,46.876h40.129c25.902,0,43.419,1.189,52.55,3.567c9.13,2.378,16.071,6.285,20.827,11.72
	c4.758,5.436,7.729,11.486,8.918,18.153s1.783,19.767,1.783,39.3v72.231c0,18.516-0.87,30.893-2.61,37.135
	c-1.741,6.242-4.777,11.127-9.108,14.649c-4.331,3.525-9.682,5.988-16.052,7.39c-6.369,1.401-15.966,2.102-28.79,2.102h-67.646
	V46.876L412.803,46.876z M466.435,82.164v135.672c7.729,0,12.484-1.549,14.27-4.65c1.783-3.1,2.675-11.526,2.675-25.287V107.77
	c0-9.342-0.297-15.33-0.892-17.962c-0.596-2.632-1.953-4.565-4.077-5.796C476.286,82.779,472.295,82.164,466.435,82.164z"/>
<path d="M670.645,109.298h-49.811V94.011c0-7.134-0.637-11.678-1.911-13.631c-1.272-1.953-3.396-2.93-6.369-2.93
	c-3.228,0-5.669,1.316-7.325,3.949c-1.655,2.643-2.483,6.635-2.483,11.985c0,6.89,0.935,12.07,2.792,15.552
	c1.772,3.482,6.826,7.686,15.16,12.612c23.875,14.172,38.906,25.797,45.106,34.886c6.199,9.086,9.299,23.735,9.299,43.948
	c0,14.693-1.72,25.521-5.158,32.486c-3.439,6.963-10.085,12.803-19.938,17.516c-9.852,4.714-21.317,7.07-34.396,7.07
	c-14.354,0-26.604-2.718-36.752-8.152c-10.149-5.436-16.795-12.356-19.938-20.766c-3.142-8.408-4.713-20.341-4.713-35.797v-13.505
	h49.811v25.097c0,7.729,0.7,12.696,2.103,14.905c1.4,2.207,3.886,3.312,7.452,3.312s6.222-1.399,7.962-4.203
	c1.741-2.803,2.611-6.965,2.611-12.483c0-12.146-1.655-20.086-4.969-23.822c-3.396-3.736-11.763-9.979-25.096-18.727
	c-13.334-8.832-22.167-15.246-26.498-19.236c-4.331-3.991-7.919-9.512-10.765-16.561c-2.846-7.049-4.269-16.051-4.269-27.007
	c0-15.797,2.019-27.347,6.051-34.651c4.034-7.304,10.554-13.015,19.556-17.134c9.003-4.119,19.873-6.179,32.612-6.179
	c13.929,0,25.797,2.251,35.605,6.752c9.81,4.501,16.307,10.17,19.491,17.007c3.184,6.837,4.776,18.451,4.776,34.842v8.153H670.645z"
	/>
</svg>
