<?xml version="1.0" encoding="utf-8"?>
<!-- Generator: Adobe Illustrator 23.0.1, SVG Export Plug-In . SVG Version: 6.00 Build 0)  -->
<svg version="1.1" id="Layer_1" xmlns="http://www.w3.org/2000/svg" xmlns:xlink="http://www.w3.org/1999/xlink" x="0px" y="0px"
	 viewBox="0 0 46.4 48.6" style="enable-background:new 0 0 46.4 48.6;" xml:space="preserve">
<style type="text/css">
	.st0{fill:#FFFFFF;}
</style>
<path class="st0" d="M15.6,24.2c-2.3,0.4-4.3,0.8-6.7,1.2c-0.7,0.1-1.5,0.4-1.9,0.4c-0.5-0.1-1.3-0.8-1.8-1.2
	c-1.8-1.3-3.5-2.5-5.2-3.8c5.5-0.8,12.2-1.7,17.4-2.5"/>
<path class="st0" d="M22.7,23c-2.1,0.4-4.3,0.8-6.5,1.2c0.4-1.8,1-3.4,1.8-4.8h0.1c0,0,0.1,0.1,0.2,0.2l0.1,0.2l0.1-0.1
	c0.1,0,0.1-0.1,0.2-0.1l0,0C20,20.7,21.6,22,22.7,23z"/>
<path class="st0" d="M32.8,18.9c-0.5,1.8-1.2,3.6-1.8,5.4c-2.5-0.4-4.9-0.8-7.3-1.3c0-0.2,0.3-0.3,0.5-0.5c1.4-1.2,3.1-2.7,4.6-4
	c0.1,0,0.1-0.1,0.2-0.1C30.3,18.6,31.5,18.7,32.8,18.9z"/>
<path class="st0" d="M46.4,20.8c-0.1,0.3-0.5,0.4-0.8,0.6c-1.7,1.2-3.4,2.4-5.3,3.8c-0.3,0.2-0.7,0.6-0.9,0.6
	c-0.5,0.1-1.3-0.3-2-0.4c-2-0.4-3.9-0.7-6-1.1c0.7-1.8,1.3-3.6,1.8-5.4C37.6,19.6,42.1,20.3,46.4,20.8z"/>
<path class="st0" d="M6,26.4c5.5,1.8,10.9,3.6,16.3,5.4c-1.5,2-3.2,3.9-4.8,5.8C12,35.8,6.6,34,1.2,32.2C2.7,30.3,4.3,28.3,6,26.4z"
	/>
<path class="st0" d="M40,26.4c1.6,1.9,3.4,3.9,4.8,5.8c-5.4,1.8-10.9,3.6-16.3,5.4c-1.7-1.9-3.3-3.9-4.8-5.8
	C29.1,30,34.5,28.2,40,26.4z"/>
<path class="st0" d="M22.7,32.1c0.1,5.4,0,11,0.1,16.5c-5.6-1.9-11.2-3.7-16.9-5.6c0-2.9,0-5.8,0-8.7c3.4,1.1,6.8,2.2,10.3,3.4
	c0.5,0.1,1.2,0.5,1.5,0.5c0.4-0.1,0.9-1,1.3-1.5C20.1,35.2,21.6,33.5,22.7,32.1z"/>
<path class="st0" d="M23.2,32.1c1.1,1.3,2.5,3,3.8,4.6c0.3,0.4,0.9,1.4,1.3,1.5c0.3,0.1,1.1-0.3,1.5-0.5c3.4-1.1,6.9-2.2,10.2-3.4
	c0.1,2.8,0,5.8,0.1,8.7c-5.6,1.9-11.2,3.7-16.8,5.6C23.2,43.2,23.3,37.6,23.2,32.1z"/>
<g>
	<g>
		<path class="st0" d="M32.4,13.3l-0.3,0.1l0.1-0.3c0.5-1.3,1.2-2.7,1.8-4c1.4-2.7,2.8-5.6,2.6-8.6L36.4,0c-0.3,0-0.6,0.2-0.9,0.3
			c-0.6,0.2-1.3,0.5-1.7,0.1c-1.4,1.5-2.3,3.2-3.2,4.9c-1.2,2.1-2.4,4.4-4.6,6.2l-0.1,0.1h-0.1c-1-0.6-1.7,0.4-2.5,1.3
			c-0.3,0.4-0.6,0.8-0.9,1l0,0l0,0c-1.2-0.2-2-1.1-2.5-2.7v-0.1H20c1.2-0.7,2.2-1.4,2.2-2.4C22.1,8.8,22,9,21.9,9.1
			c-0.5,0.6-1,1.3-2,1.3h-0.1h-0.1v-0.1c-0.1-0.3-0.3-0.6-0.4-0.9V9.3l0.1-0.1c0.2-0.1,0.4-0.3,0.6-0.4c0.8-0.6,1.6-1.1,1.6-2
			c-0.5,0.9-1.4,1.2-2.5,1.5c-0.7,0.2-1.4,0.4-2.2,0.8c-0.4,0.2-0.7,0.4-1.1,0.6c-0.9,0.5-1.6,0.9-2.4,0.8c0.4,0.3,0.9,0.2,1.4,0.1
			c0.4,0,0.8-0.1,1.2,0h0.1v0.1c0,0.2,0,0.4-0.1,0.6c-0.3,0.3-0.8,0.4-1.2,0.5c-0.1,0-0.3,0-0.4,0.1c0.1,0.1,0.2,0.2,0.2,0.3
			c0,0.1-0.2,0.1-0.4,0.2h-0.1c0.4,0.4,0.9,0.3,1.5,0.3c0.4,0,0.8-0.1,1.2,0h0.1v0.1c-0.1,0.4-0.4,0.7-0.8,0.9
			c-0.3,0.1-0.6,0.2-0.8,0.1c0.1,0.1,0.3,0.2,0.5,0.2h0.1c0.8,0,1.9-1.1,2.5-1.7c0.2-0.2,0.3-0.3,0.4-0.4l0.1-0.1l0.1,0.1
			c0.3,0.7,0.7,1.5,1,2.2v0.1v0.1c-0.4,0.6-0.4,1.4-0.3,2.3c0.1,1,0.1,2.1-0.7,2.8c-0.1,0-0.1,0.1-0.2,0.1l-0.1,0.1l-0.1-0.2
			c0-0.1-0.1-0.2-0.2-0.2h-0.1c-0.8,1.5-1.3,3-1.8,4.8c-0.1,0.4-0.2,0.9-0.3,1.3c-0.2,1.1-0.4,2.3-0.5,3.6l7.8,2.5l5.9-2.1
			c0.1-0.1,0.1-0.3,0.2-0.4l0.2-0.4c0.5-1.4,1.1-2.8,1.6-4.3c0.7-1.8,1.3-3.6,1.8-5.4c0.6-2,1.1-4,1.4-5.7
			C33.9,12.7,33.3,12.9,32.4,13.3z M15.9,12.1c0.3-0.3,1.4-1.3,1.9-1.9C18,11.1,16.7,11.5,15.9,12.1z"/>
	</g>
</g>
</svg>
