<?xml version="1.0" encoding="utf-8"?>
<!-- Generator: Adobe Illustrator 23.0.1, SVG Export Plug-In . SVG Version: 6.00 Build 0)  -->
<svg version="1.1" id="Layer_1" xmlns="http://www.w3.org/2000/svg" xmlns:xlink="http://www.w3.org/1999/xlink" x="0px" y="0px"
	 viewBox="0 0 25 26.2" style="enable-background:new 0 0 25 26.2;" xml:space="preserve">
<path d="M8.4,13c-1.2,0.2-2.3,0.4-3.6,0.6c-0.4,0.1-0.8,0.2-1,0.2c-0.3-0.1-0.7-0.4-1-0.6c-1-0.7-1.9-1.3-2.8-2
	c3-0.4,6.6-0.9,9.4-1.3"/>
<path d="M12.2,12.4c-1.1,0.2-2.3,0.4-3.5,0.6c0.2-1,0.5-1.8,1-2.6h0.1c0,0,0.1,0.1,0.1,0.1l0.1,0.1l0.1-0.1c0.1,0,0.1-0.1,0.1-0.1
	l0,0C10.8,11.2,11.6,11.9,12.2,12.4z"/>
<path d="M17.7,10.2c-0.3,1-0.6,1.9-1,2.9c-1.3-0.2-2.6-0.4-3.9-0.7c0-0.1,0.2-0.2,0.3-0.3c0.8-0.6,1.7-1.5,2.5-2.2
	c0.1,0,0.1-0.1,0.1-0.1C16.3,10,17,10.1,17.7,10.2z"/>
<path d="M25,11.2c-0.1,0.2-0.3,0.2-0.4,0.3c-0.9,0.6-1.8,1.3-2.9,2c-0.2,0.1-0.4,0.3-0.5,0.3c-0.3,0.1-0.7-0.2-1.1-0.2
	c-1.1-0.2-2.1-0.4-3.2-0.6c0.4-1,0.7-1.9,1-2.9C20.3,10.6,22.7,10.9,25,11.2z"/>
<path d="M3.2,14.2c3,1,5.9,1.9,8.8,2.9c-0.8,1.1-1.7,2.1-2.6,3.1c-3-1-5.9-1.9-8.8-2.9C1.5,16.3,2.3,15.2,3.2,14.2z"/>
<path d="M21.6,14.2c0.9,1,1.8,2.1,2.6,3.1c-2.9,1-5.9,1.9-8.8,2.9c-0.9-1-1.8-2.1-2.6-3.1C15.7,16.2,18.6,15.2,21.6,14.2z"/>
<path d="M12.2,17.3c0.1,2.9,0,5.9,0.1,8.9c-3-1-6-2-9.1-3c0-1.6,0-3.1,0-4.7c1.8,0.6,3.7,1.2,5.5,1.8c0.3,0.1,0.6,0.3,0.8,0.3
	c0.2-0.1,0.5-0.5,0.7-0.8C10.8,19,11.6,18,12.2,17.3z"/>
<path d="M12.5,17.3c0.6,0.7,1.3,1.6,2,2.5c0.2,0.2,0.5,0.8,0.7,0.8c0.2,0.1,0.6-0.2,0.8-0.3c1.8-0.6,3.7-1.2,5.5-1.8
	c0.1,1.5,0,3.1,0.1,4.7c-3,1-6,2-9.1,3C12.5,23.3,12.6,20.3,12.5,17.3z"/>
<g>
	<g>
		<path d="M17.5,7.2l-0.2,0.1l0.1-0.2c0.3-0.7,0.6-1.5,1-2.2c0.8-1.5,1.5-3,1.4-4.6L19.6,0c-0.2,0-0.3,0.1-0.5,0.2
			c-0.3,0.1-0.7,0.3-0.9,0.1C17.5,1,17,1.9,16.5,2.9C15.8,4,15.2,5.2,14,6.2L14,6.3h-0.1C13.4,5.9,13,6.5,12.6,7
			c-0.2,0.2-0.3,0.4-0.5,0.5l0,0l0,0C11.4,7.4,11,6.9,10.7,6V6h0.1C11.4,5.6,12,5.2,12,4.7c-0.1,0.1-0.1,0.2-0.2,0.2
			c-0.3,0.3-0.5,0.7-1.1,0.7h-0.1h-0.1V5.5c-0.1-0.2-0.2-0.3-0.2-0.5V5L10.5,5c0.1-0.1,0.2-0.2,0.3-0.2c0.4-0.3,0.9-0.6,0.9-1.1
			c-0.3,0.5-0.8,0.6-1.3,0.8C9.9,4.6,9.5,4.7,9.1,4.9C8.9,5,8.7,5.1,8.5,5.2C8,5.5,7.7,5.7,7.2,5.7C7.4,5.8,7.7,5.8,8,5.7
			c0.2,0,0.4-0.1,0.6,0h0.1v0.1c0,0.1,0,0.2-0.1,0.3C8.5,6.2,8.2,6.3,8,6.4c-0.1,0-0.2,0-0.2,0.1c0.1,0.1,0.1,0.1,0.1,0.2
			c0,0.1-0.1,0.1-0.2,0.1H7.6c0.2,0.2,0.5,0.2,0.8,0.2c0.2,0,0.4-0.1,0.6,0h0.1v0.1C9.1,7.1,8.9,7.3,8.7,7.4
			C8.5,7.4,8.4,7.5,8.2,7.4c0.1,0.1,0.2,0.1,0.3,0.1h0.1c0.4,0,1-0.6,1.3-0.9c0.1-0.1,0.2-0.2,0.2-0.2l0.1-0.1l0.1,0.1
			c0.2,0.4,0.4,0.8,0.5,1.2v0.1v0.1c-0.2,0.3-0.2,0.8-0.2,1.2c0.1,0.5,0.1,1.1-0.4,1.5c-0.1,0-0.1,0.1-0.1,0.1l-0.1,0.1L10,10.5
			c0-0.1-0.1-0.1-0.1-0.1H9.9c-0.4,0.8-0.7,1.6-1,2.6c-0.1,0.2-0.1,0.5-0.2,0.7c-0.1,0.6-0.2,1.2-0.3,1.9l4.2,1.3l3.2-1.1
			c0.1-0.1,0.1-0.2,0.1-0.2l0.1-0.2c0.3-0.8,0.6-1.5,0.9-2.3c0.4-1,0.7-1.9,1-2.9c0.3-1.1,0.6-2.2,0.8-3.1C18.3,6.8,17.9,7,17.5,7.2
			z M8.6,6.5c0.2-0.2,0.8-0.7,1-1C9.7,6,9,6.2,8.6,6.5z"/>
	</g>
</g>
</svg>
