<?xml version="1.0" encoding="utf-8"?>
<!-- Generator: Adobe Illustrator 23.0.1, SVG Export Plug-In . SVG Version: 6.00 Build 0)  -->
<svg version="1.1" id="Layer_1" xmlns="http://www.w3.org/2000/svg" xmlns:xlink="http://www.w3.org/1999/xlink" x="0px" y="0px"
	 viewBox="0 0 178.2 69.9" style="enable-background:new 0 0 178.2 69.9;" xml:space="preserve">
<style type="text/css">
	.st0{fill:none;stroke:url(#SVGID_1_);stroke-width:6;stroke-miterlimit:10;}
	.st1{enable-background:new    ;}
	.st2{fill:#FFFFFF;stroke:#FFFFFF;stroke-width:0.5;stroke-miterlimit:10;}
	.st3{fill:#FFFFFF;}
</style>
<path d="M164.2,64.7H14.8c-5,0-9.1-4.1-9.1-9.1v-41c0-5,4.1-9.1,9.1-9.1h149.4c5,0,9.1,4.1,9.1,9.1v41.1
	C173.3,60.6,169.2,64.7,164.2,64.7z"/>
<linearGradient id="SVGID_1_" gradientUnits="userSpaceOnUse" x1="0.8" y1="36.9" x2="178.2" y2="36.9" gradientTransform="matrix(1 0 0 -1 0 72)">
	<stop  offset="0" style="stop-color:#1E4E9A"/>
	<stop  offset="0.492" style="stop-color:#27D146"/>
	<stop  offset="1" style="stop-color:#C73DC9"/>
</linearGradient>
<path class="st0" d="M166.1,65.4H12.9c-5,0-9.1-4.1-9.1-9.1V13.9c0-5,4.1-9.1,9.1-9.1h153.2c5,0,9.1,4.1,9.1,9.1v42.4
	C175.2,61.3,171.1,65.4,166.1,65.4z"/>
<g class="st1">
	<path class="st2" d="M29.6,24.4c0.6,0.7,0.9,1.6,0.9,2.6c0,1.3-0.4,2.4-1.3,3.1s-1.9,1.1-3.3,1.1h-6.1c-0.1,0-0.2,0-0.3-0.1
		c-0.1-0.1-0.1-0.2-0.1-0.3V16.1c0-0.1,0-0.2,0.1-0.3c0.1-0.1,0.2-0.1,0.3-0.1h6c1.2,0,2.1,0.3,2.8,1c0.7,0.7,1.1,1.6,1.1,2.8
		c0,0.8-0.2,1.6-0.6,2.3c-0.4,0.7-1,1.1-1.7,1.4C28.2,23.3,29,23.7,29.6,24.4z M27.9,17.4c-0.5-0.5-1.3-0.8-2.3-0.8h-5.4v6.2h5.4
		c0.9,0,1.7-0.3,2.2-0.9c0.6-0.6,0.9-1.4,0.9-2.5C28.7,18.6,28.4,17.9,27.9,17.4z M28.5,29.5c0.7-0.6,1-1.4,1-2.5
		c0-1.1-0.3-1.9-1-2.5c-0.7-0.6-1.6-0.8-2.7-0.8h-5.5v6.6h5.5C26.9,30.4,27.8,30.1,28.5,29.5z"/>
	<path class="st2" d="M42.1,20.3c0.1,0.1,0.1,0.2,0.1,0.3v6.5c0,1.4-0.4,2.5-1.2,3.2c-0.8,0.7-1.9,1.1-3.2,1.1
		c-1.4,0-2.4-0.4-3.2-1.1c-0.8-0.7-1.2-1.8-1.2-3.2v-6.5c0-0.1,0-0.2,0.1-0.3c0.1-0.1,0.2-0.1,0.3-0.1c0.1,0,0.2,0,0.3,0.1
		c0.1,0.1,0.1,0.2,0.1,0.3v6.5c0,1.1,0.3,2,0.9,2.6c0.6,0.6,1.5,0.9,2.6,0.9c1.1,0,2-0.3,2.6-0.9c0.6-0.6,0.9-1.5,0.9-2.6v-6.5
		c0-0.1,0-0.2,0.1-0.3c0.1-0.1,0.2-0.1,0.3-0.1S42,20.2,42.1,20.3z"/>
	<path class="st2" d="M54.6,19.9c0.1,0.1,0.1,0.2,0.1,0.3v9.9c0,1.1-0.2,2.1-0.7,2.9c-0.5,0.8-1.1,1.5-1.9,1.9
		c-0.8,0.5-1.7,0.7-2.7,0.7c-0.7,0-1.2-0.1-1.8-0.2c-0.5-0.2-1-0.4-1.4-0.6c-0.3-0.2-0.3-0.4-0.2-0.6c0.1-0.2,0.2-0.3,0.4-0.3
		c0.1,0,0.1,0,0.2,0.1c0.4,0.2,0.8,0.4,1.3,0.6c0.5,0.2,1,0.3,1.6,0.3c0.8,0,1.6-0.2,2.2-0.6c0.7-0.4,1.2-1,1.5-1.7
		c0.4-0.7,0.5-1.5,0.5-2.5v-1c-0.3,0.7-0.9,1.2-1.6,1.7c-0.7,0.4-1.5,0.7-2.3,0.7c-1.3,0-2.3-0.4-3-1.1c-0.7-0.8-1-1.8-1-3.1v-6.9
		c0-0.1,0-0.2,0.1-0.3c0.1-0.1,0.2-0.1,0.3-0.1c0.1,0,0.2,0,0.3,0.1c0.1,0.1,0.1,0.2,0.1,0.3v6.9c0,2.3,1,3.4,3.1,3.4
		c0.6,0,1.3-0.2,1.9-0.5c0.6-0.3,1.1-0.8,1.5-1.3c0.4-0.5,0.6-1.1,0.6-1.6v-6.9c0-0.1,0-0.2,0.1-0.3s0.2-0.1,0.3-0.1
		C54.4,19.8,54.5,19.9,54.6,19.9z"/>
</g>
<g class="st1">
	<path class="st2" d="M29.6,45.5c0.6,0.7,0.9,1.6,0.9,2.6c0,1.3-0.4,2.4-1.3,3.1s-1.9,1.1-3.3,1.1h-6.1c-0.1,0-0.2,0-0.3-0.1
		c-0.1-0.1-0.1-0.2-0.1-0.3V37.3c0-0.1,0-0.2,0.1-0.3c0.1-0.1,0.2-0.1,0.3-0.1h6c1.2,0,2.1,0.3,2.8,1c0.7,0.7,1.1,1.6,1.1,2.8
		c0,0.8-0.2,1.6-0.6,2.3c-0.4,0.7-1,1.1-1.7,1.4C28.2,44.4,29,44.9,29.6,45.5z M27.9,38.5c-0.5-0.5-1.3-0.8-2.3-0.8h-5.4V44h5.4
		c0.9,0,1.7-0.3,2.2-0.9c0.6-0.6,0.9-1.4,0.9-2.5C28.7,39.7,28.4,39,27.9,38.5z M28.5,50.7c0.7-0.6,1-1.4,1-2.5c0-1.1-0.3-1.9-1-2.5
		c-0.7-0.6-1.6-0.8-2.7-0.8h-5.5v6.6h5.5C26.9,51.5,27.8,51.2,28.5,50.7z"/>
	<path class="st2" d="M33.3,39.2c-0.1-0.1-0.2-0.3-0.2-0.5v-0.2c0-0.2,0.1-0.4,0.2-0.5c0.1-0.1,0.3-0.2,0.6-0.2
		c0.2,0,0.4,0.1,0.5,0.2c0.1,0.1,0.2,0.3,0.2,0.5v0.2c0,0.2-0.1,0.4-0.2,0.5c-0.1,0.1-0.3,0.2-0.5,0.2
		C33.6,39.4,33.4,39.4,33.3,39.2z M34.1,52.3c-0.1,0.1-0.2,0.1-0.3,0.1c-0.1,0-0.2,0-0.3-0.1c-0.1-0.1-0.1-0.2-0.1-0.3V41.4
		c0-0.1,0-0.2,0.1-0.3s0.2-0.1,0.3-0.1c0.1,0,0.2,0,0.3,0.1c0.1,0.1,0.1,0.2,0.1,0.3v10.6C34.3,52.1,34.2,52.2,34.1,52.3z"/>
	<path class="st2" d="M44,41.4c0,0.1,0,0.2-0.1,0.3c-0.1,0.1-0.2,0.1-0.3,0.1c0,0-0.2,0-0.3-0.1c-0.2-0.1-0.4-0.1-0.5-0.1
		c-0.6,0-1.2,0.2-1.8,0.7c-0.6,0.5-1.1,1.1-1.5,1.8c-0.4,0.7-0.6,1.4-0.6,2.1v5.6c0,0.1,0,0.2-0.1,0.3c-0.1,0.1-0.2,0.1-0.3,0.1
		c-0.1,0-0.2,0-0.3-0.1C38,52.2,38,52.1,38,51.9V41.7c0-0.1,0-0.2,0.1-0.3c0.1-0.1,0.2-0.1,0.3-0.1c0.1,0,0.2,0,0.3,0.1
		s0.1,0.2,0.1,0.3v2.4c0.3-0.9,0.9-1.7,1.6-2.2c0.7-0.6,1.6-0.9,2.5-0.9C43.7,40.9,44,41.1,44,41.4z"/>
	<path class="st2" d="M55.1,36.1c0.1,0.1,0.1,0.2,0.1,0.3v15.6c0,0.1,0,0.2-0.1,0.3c-0.1,0.1-0.2,0.1-0.3,0.1c-0.1,0-0.2,0-0.3-0.1
		c-0.1-0.1-0.1-0.2-0.1-0.3v-2.1c-0.4,0.8-0.9,1.4-1.7,2c-0.8,0.5-1.6,0.8-2.6,0.8c-1,0-1.8-0.3-2.6-0.8c-0.8-0.5-1.4-1.2-1.9-2.1
		s-0.7-1.9-0.7-3c0-1.1,0.2-2.1,0.7-3s1.1-1.6,1.9-2.1c0.8-0.5,1.7-0.8,2.6-0.8c0.9,0,1.8,0.3,2.6,0.8c0.8,0.5,1.4,1.2,1.7,2v-7.4
		c0-0.1,0-0.2,0.1-0.3c0.1-0.1,0.2-0.1,0.3-0.1S55,36,55.1,36.1z M52.3,51.1c0.7-0.4,1.2-1,1.5-1.8c0.4-0.8,0.6-1.6,0.6-2.6
		c0-0.9-0.2-1.8-0.6-2.6c-0.4-0.8-0.9-1.3-1.5-1.8s-1.4-0.6-2.2-0.6c-0.8,0-1.5,0.2-2.2,0.6s-1.2,1-1.6,1.8s-0.6,1.6-0.6,2.5
		c0,0.9,0.2,1.8,0.6,2.6c0.4,0.8,0.9,1.4,1.5,1.8c0.7,0.4,1.4,0.7,2.2,0.7C50.9,51.8,51.6,51.5,52.3,51.1z"/>
	<path class="st2" d="M76.8,36.9c0.1,0.1,0.1,0.2,0.1,0.3v14.7c0,0.2,0,0.3-0.1,0.4c-0.1,0.1-0.2,0.1-0.3,0.1
		c-0.1,0-0.3-0.1-0.4-0.2l-10-13.7V52c0,0.1,0,0.2-0.1,0.3c-0.1,0.1-0.2,0.1-0.3,0.1c-0.1,0-0.2,0-0.3-0.1c-0.1-0.1-0.1-0.2-0.1-0.3
		V37.3c0-0.1,0-0.3,0.1-0.3c0.1-0.1,0.2-0.1,0.3-0.1c0.1,0,0.2,0.1,0.3,0.2l10.1,13.8V37.2c0-0.1,0-0.2,0.1-0.3
		c0.1-0.1,0.2-0.1,0.3-0.1C76.6,36.8,76.7,36.9,76.8,36.9z"/>
	<path class="st2" d="M90.5,49.8c-0.5,0.9-1.1,1.6-2,2.1c-0.8,0.5-1.8,0.8-2.8,0.8c-1,0-2-0.3-2.8-0.8c-0.8-0.5-1.5-1.2-2-2.1
		c-0.5-0.9-0.7-1.9-0.7-3c0-1.1,0.2-2.1,0.7-3c0.5-0.9,1.1-1.6,2-2.1c0.8-0.5,1.8-0.8,2.8-0.8c1,0,2,0.3,2.8,0.8
		c0.8,0.5,1.5,1.2,2,2.1c0.5,0.9,0.7,1.9,0.7,3C91.2,47.9,90.9,48.9,90.5,49.8z M89.7,44.2c-0.4-0.8-0.9-1.4-1.6-1.8
		c-0.7-0.4-1.5-0.7-2.4-0.7c-0.9,0-1.6,0.2-2.3,0.7c-0.7,0.4-1.3,1-1.7,1.8c-0.4,0.8-0.6,1.6-0.6,2.6c0,0.9,0.2,1.8,0.6,2.5
		c0.4,0.8,1,1.4,1.7,1.8c0.7,0.4,1.5,0.7,2.3,0.7c0.9,0,1.7-0.2,2.4-0.6c0.7-0.4,1.2-1,1.6-1.8c0.4-0.8,0.6-1.6,0.6-2.5
		C90.3,45.8,90.1,45,89.7,44.2z"/>
	<path class="st2" d="M107.9,41c0.1,0.1,0.1,0.2,0.1,0.3l0,0.2l-3.4,10.6c-0.1,0.2-0.2,0.3-0.4,0.3c-0.2,0-0.3-0.1-0.4-0.3l-3.2-7.3
		l-2.9,7.3c0,0.1-0.1,0.2-0.2,0.2c-0.1,0.1-0.2,0.1-0.3,0.1s-0.2,0-0.3-0.1c-0.1-0.1-0.1-0.1-0.2-0.2l-3.6-10.6l0-0.2
		c0-0.1,0-0.2,0.1-0.3c0.1-0.1,0.2-0.1,0.3-0.1c0.2,0,0.3,0.1,0.4,0.3l3.1,9.7l3-7.3c0-0.1,0.1-0.2,0.2-0.2c0.1-0.1,0.2-0.1,0.3-0.1
		s0.2,0,0.3,0.1s0.1,0.1,0.2,0.2l3.1,7.2l3.1-9.6c0.1-0.2,0.2-0.3,0.4-0.3C107.7,40.9,107.8,40.9,107.9,41z"/>
	<path class="st2" d="M110.1,52.2c-0.1-0.1-0.2-0.3-0.2-0.5v-0.5c0-0.2,0.1-0.4,0.2-0.5c0.1-0.1,0.3-0.2,0.4-0.2h0.1
		c0.2,0,0.3,0.1,0.4,0.2c0.1,0.1,0.2,0.3,0.2,0.5v0.5c0,0.2-0.1,0.4-0.2,0.5c-0.1,0.1-0.3,0.2-0.4,0.2h-0.1
		C110.4,52.4,110.2,52.3,110.1,52.2z M110.3,47.9l-0.1-10.4c0-0.2,0-0.4,0.1-0.5c0.1-0.1,0.2-0.2,0.4-0.2c0.2,0,0.3,0.1,0.4,0.2
		c0.1,0.1,0.1,0.3,0.1,0.5l-0.1,10.4c0,0.2-0.1,0.4-0.3,0.4S110.3,48.1,110.3,47.9z"/>
</g>
<g>
	<path class="st3" d="M162.4,17.7c0,0.1,0,0.3,0,0.4c-2.1,0.8-7.2,0.7-6.6,4.6c0.3,1.6,1.8,2.2,2,3.8c0.4,3.5-2.4,7.2-4,9.4
		c-1.6,2.1-3.4,4.1-5.6,5.6c-0.4,0.1-0.4-0.3-0.4-0.6c-2.5,0.4-2.1,4-4.1,5.1c0,1-0.1,1.9-0.1,2.9c0.6-0.1,4.7-2.2,5,0.4
		c-0.5-0.7-2-0.8-2.5-0.1c0.8,0.8,2.7,0.7,2.8,2c-0.4-0.1-1-0.4-0.6,0.2c0.1,0.6-2.1-1.1-2.5,0.3c0.9,0.8,2.7,0.6,2.8,2
		c-1.2-1.1-2.6-0.6-4.8-0.6c-3,0.1-4.9-1.3-6.6,0.4c0.4-1.7,2.3-1.7,4-2c0-0.4,0-0.8,0-1.2c-1.4-0.8-2.7,0.4-3.7,0.7
		c0.5-1.5,2.2-1.7,4-1.8c0.4-2.1-0.1-3.4-1.2-4.1c-1.5,0.3-3.9,2.5-5.1,0.6c-6,1.4-9.2,5.8-14.7,7.9c-0.3-1.1-2.1-0.7-3.1-1.1
		c0-0.3,0-0.5,0-0.8c2.2-5.2,7.7-7.7,11.7-11.5c-1.1,0-2.2-0.1-2.3-1.1c3.4-4.8,9.5-10.4,14.1-14.7c1.8-1.7,4-2.9,5.2-4.5
		c1-1.3,1.2-2.6,2.5-3.4C151.4,14.6,160,16.1,162.4,17.7z M143.4,51.5c0.9-0.4,2.7-0.9,3.1-1.1C145.3,50.6,143.6,50.3,143.4,51.5z"
		/>
</g>
</svg>
