<?xml version="1.0" encoding="utf-8"?>
<!-- Generator: Adobe Illustrator 15.1.0, SVG Export Plug-In . SVG Version: 6.00 Build 0)  -->
<!DOCTYPE svg PUBLIC "-//W3C//DTD SVG 1.1//EN" "http://www.w3.org/Graphics/SVG/1.1/DTD/svg11.dtd">
<svg version="1.1" id="Layer_1" xmlns="http://www.w3.org/2000/svg" xmlns:xlink="http://www.w3.org/1999/xlink" x="0px" y="0px"
	 width="172.333px" height="52.25px" viewBox="0 0 172.333 52.25" enable-background="new 0 0 172.333 52.25" xml:space="preserve">
<rect x="7.741" y="5.264" fill="none" width="108.333" height="43"/>
<g enable-background="new    ">
	<path d="M21.218,15.632c0.616,0.735,0.924,1.688,0.924,2.855c0,1.456-0.46,2.576-1.38,3.36c-0.92,0.784-2.092,1.176-3.516,1.176
		h-6.624c-0.128,0-0.24-0.048-0.336-0.144c-0.096-0.097-0.144-0.208-0.144-0.337V6.703c0-0.128,0.048-0.239,0.144-0.336
		c0.096-0.096,0.208-0.144,0.336-0.144h6.456c1.28,0,2.304,0.368,3.072,1.104c0.768,0.736,1.152,1.729,1.152,2.977
		c0,0.896-0.224,1.708-0.672,2.436c-0.448,0.729-1.072,1.229-1.872,1.5C19.781,14.432,20.602,14.896,21.218,15.632z M19.417,8.023
		c-0.584-0.56-1.404-0.84-2.46-0.84H11.15v6.744h5.808c0.992-0.016,1.796-0.34,2.412-0.973c0.616-0.632,0.924-1.523,0.924-2.676
		C20.293,9.336,20.001,8.584,19.417,8.023z M20.03,21.163c0.736-0.6,1.104-1.491,1.104-2.676c0-1.184-0.368-2.076-1.104-2.676
		c-0.736-0.6-1.704-0.9-2.904-0.9H11.15v7.152h5.976C18.326,22.063,19.293,21.764,20.03,21.163z"/>
	<path d="M34.729,11.191c0.087,0.096,0.132,0.208,0.132,0.336v6.984c0,1.52-0.428,2.676-1.284,3.468s-2.02,1.188-3.492,1.188
		c-1.472,0-2.632-0.396-3.48-1.188c-0.849-0.792-1.272-1.948-1.272-3.468v-6.984c0-0.128,0.048-0.24,0.144-0.336
		c0.096-0.096,0.208-0.144,0.336-0.144c0.144,0,0.26,0.048,0.348,0.144s0.132,0.208,0.132,0.336v6.984
		c0,1.2,0.336,2.124,1.008,2.771c0.672,0.648,1.6,0.973,2.784,0.973c1.2,0,2.136-0.324,2.808-0.973
		c0.672-0.647,1.008-1.571,1.008-2.771v-6.984c0-0.128,0.044-0.24,0.132-0.336s0.204-0.144,0.348-0.144S34.641,11.096,34.729,11.191
		z"/>
	<path d="M48.217,10.808c0.088,0.096,0.132,0.208,0.132,0.336v10.704c0,1.2-0.244,2.252-0.732,3.156
		c-0.488,0.903-1.161,1.6-2.016,2.088c-0.856,0.487-1.828,0.731-2.916,0.731c-0.704,0-1.348-0.084-1.932-0.252
		s-1.076-0.388-1.476-0.66c-0.288-0.191-0.376-0.407-0.264-0.647c0.112-0.192,0.248-0.288,0.408-0.288
		c0.08,0,0.152,0.023,0.216,0.072c0.384,0.239,0.844,0.451,1.38,0.636c0.536,0.184,1.108,0.275,1.716,0.275
		c0.912,0,1.72-0.216,2.424-0.647c0.704-0.432,1.251-1.036,1.644-1.812c0.392-0.775,0.588-1.659,0.588-2.651v-1.08
		c-0.368,0.72-0.957,1.316-1.764,1.788c-0.808,0.472-1.644,0.708-2.508,0.708c-1.44,0-2.512-0.412-3.216-1.236
		s-1.056-1.956-1.056-3.396v-7.488c0-0.128,0.043-0.24,0.132-0.336c0.088-0.096,0.204-0.145,0.348-0.145s0.26,0.049,0.348,0.145
		s0.132,0.208,0.132,0.336v7.488c0,2.479,1.104,3.72,3.312,3.72c0.688,0,1.364-0.18,2.028-0.54c0.664-0.36,1.204-0.828,1.62-1.404
		c0.416-0.576,0.624-1.168,0.624-1.775v-7.488c0-0.128,0.044-0.24,0.132-0.336s0.204-0.145,0.348-0.145S48.129,10.712,48.217,10.808
		z"/>
</g>
<g enable-background="new    ">
	<path d="M21.218,38.432c0.616,0.735,0.924,1.688,0.924,2.855c0,1.456-0.46,2.576-1.38,3.36c-0.92,0.784-2.092,1.176-3.516,1.176
		h-6.624c-0.128,0-0.24-0.048-0.336-0.144c-0.096-0.097-0.144-0.208-0.144-0.337v-15.84c0-0.128,0.048-0.239,0.144-0.336
		c0.096-0.096,0.208-0.144,0.336-0.144h6.456c1.28,0,2.304,0.368,3.072,1.104c0.768,0.736,1.152,1.729,1.152,2.977
		c0,0.896-0.224,1.708-0.672,2.436c-0.448,0.729-1.072,1.229-1.872,1.5C19.781,37.231,20.602,37.695,21.218,38.432z M19.417,30.823
		c-0.584-0.56-1.404-0.84-2.46-0.84H11.15v6.744h5.808c0.992-0.016,1.796-0.34,2.412-0.973c0.616-0.632,0.924-1.523,0.924-2.676
		C20.293,32.136,20.001,31.384,19.417,30.823z M20.03,43.963c0.736-0.6,1.104-1.491,1.104-2.676c0-1.184-0.368-2.076-1.104-2.676
		c-0.736-0.6-1.704-0.9-2.904-0.9H11.15v7.152h5.976C18.326,44.863,19.293,44.563,20.03,43.963z"/>
	<path d="M25.201,31.615c-0.152-0.144-0.228-0.328-0.228-0.552v-0.192c0-0.224,0.08-0.408,0.24-0.552
		c0.16-0.145,0.368-0.216,0.624-0.216c0.224,0,0.412,0.071,0.564,0.216c0.152,0.144,0.228,0.328,0.228,0.552v0.192
		c0,0.224-0.076,0.408-0.228,0.552c-0.152,0.144-0.348,0.216-0.588,0.216C25.557,31.831,25.353,31.759,25.201,31.615z M26.149,45.68
		c-0.096,0.096-0.208,0.144-0.336,0.144c-0.144,0-0.26-0.048-0.348-0.144c-0.088-0.097-0.132-0.208-0.132-0.337V33.943
		c0-0.128,0.048-0.24,0.144-0.336c0.096-0.096,0.208-0.145,0.336-0.145c0.144,0,0.26,0.049,0.348,0.145s0.132,0.208,0.132,0.336
		v11.399C26.293,45.472,26.245,45.583,26.149,45.68z"/>
	<path d="M36.806,34.016c0,0.144-0.04,0.264-0.12,0.359c-0.08,0.097-0.184,0.145-0.312,0.145c-0.048,0-0.164-0.036-0.348-0.108
		c-0.185-0.072-0.38-0.107-0.588-0.107c-0.656,0-1.312,0.26-1.968,0.779c-0.656,0.521-1.192,1.176-1.608,1.968
		c-0.417,0.792-0.624,1.557-0.624,2.292v6c0,0.129-0.048,0.24-0.144,0.337c-0.096,0.096-0.208,0.144-0.336,0.144
		c-0.144,0-0.26-0.048-0.348-0.144c-0.088-0.097-0.132-0.208-0.132-0.337V34.327c0-0.128,0.048-0.24,0.144-0.336
		c0.096-0.096,0.208-0.144,0.336-0.144c0.144,0,0.26,0.048,0.348,0.144s0.132,0.208,0.132,0.336v2.544
		c0.368-0.976,0.939-1.784,1.716-2.424c0.776-0.64,1.692-0.968,2.748-0.984C36.438,33.463,36.806,33.647,36.806,34.016z"/>
	<path d="M48.745,28.207c0.088,0.097,0.132,0.208,0.132,0.336v16.8c0,0.129-0.048,0.24-0.144,0.337
		c-0.096,0.096-0.208,0.144-0.336,0.144c-0.144,0-0.26-0.048-0.348-0.144c-0.088-0.097-0.132-0.208-0.132-0.337v-2.279
		c-0.384,0.848-0.992,1.56-1.824,2.136s-1.76,0.864-2.784,0.864c-1.041,0-1.984-0.276-2.832-0.828
		c-0.849-0.552-1.516-1.309-2.004-2.269s-0.732-2.031-0.732-3.216c0-1.184,0.244-2.256,0.732-3.216s1.156-1.712,2.004-2.256
		c0.848-0.544,1.792-0.816,2.832-0.816c0.992,0,1.912,0.28,2.76,0.841c0.848,0.56,1.464,1.288,1.848,2.184v-7.944
		c0-0.128,0.044-0.239,0.132-0.336c0.088-0.096,0.204-0.144,0.348-0.144S48.657,28.111,48.745,28.207z M45.757,44.455
		c0.704-0.464,1.256-1.107,1.656-1.932c0.399-0.824,0.6-1.748,0.6-2.772c0-1.023-0.2-1.943-0.6-2.76
		c-0.4-0.816-0.957-1.456-1.668-1.92s-1.508-0.696-2.388-0.696c-0.864,0-1.652,0.232-2.364,0.696s-1.272,1.108-1.68,1.932
		c-0.408,0.824-0.612,1.74-0.612,2.748c0,1.024,0.204,1.944,0.612,2.761c0.408,0.815,0.964,1.46,1.668,1.932
		c0.704,0.472,1.496,0.708,2.376,0.708C44.253,45.151,45.053,44.92,45.757,44.455z"/>
	<path d="M72.229,29.155c0.08,0.088,0.12,0.196,0.12,0.324v15.815c0,0.177-0.048,0.309-0.144,0.396s-0.216,0.132-0.36,0.132
		c-0.16,0-0.288-0.063-0.384-0.192l-10.8-14.76v14.544c0,0.112-0.044,0.208-0.132,0.288c-0.088,0.08-0.196,0.12-0.324,0.12
		c-0.144,0-0.256-0.04-0.336-0.12s-0.12-0.176-0.12-0.288V29.503c0-0.159,0.044-0.279,0.132-0.359c0.087-0.08,0.188-0.12,0.3-0.12
		c0.144,0,0.264,0.056,0.36,0.168l10.896,14.855V29.479c0-0.128,0.044-0.236,0.132-0.324c0.087-0.088,0.195-0.132,0.324-0.132
		C72.037,29.023,72.149,29.067,72.229,29.155z"/>
	<path d="M86.964,42.979c-0.512,0.952-1.22,1.704-2.124,2.256s-1.908,0.828-3.012,0.828s-2.108-0.276-3.012-0.828
		s-1.616-1.309-2.136-2.269c-0.52-0.96-0.78-2.023-0.78-3.191c0-1.184,0.26-2.256,0.78-3.216c0.52-0.96,1.228-1.717,2.124-2.269
		c0.896-0.552,1.904-0.828,3.024-0.828c1.104,0,2.108,0.276,3.012,0.828s1.612,1.309,2.124,2.269
		c0.513,0.96,0.769,2.032,0.769,3.216C87.733,40.96,87.477,42.027,86.964,42.979z M86.137,37.016
		c-0.424-0.816-1.012-1.46-1.764-1.933c-0.752-0.472-1.6-0.708-2.544-0.708c-0.928,0-1.772,0.236-2.532,0.708
		c-0.76,0.473-1.356,1.116-1.788,1.933c-0.432,0.815-0.648,1.736-0.648,2.76c0,1.008,0.216,1.92,0.648,2.736
		c0.432,0.815,1.028,1.46,1.788,1.932s1.604,0.708,2.532,0.708c0.944,0,1.792-0.231,2.544-0.696c0.752-0.464,1.34-1.107,1.764-1.932
		c0.423-0.824,0.635-1.74,0.635-2.748C86.772,38.752,86.56,37.831,86.137,37.016z"/>
	<path d="M105.733,33.535c0.096,0.08,0.144,0.192,0.144,0.336l-0.048,0.24l-3.721,11.4c-0.096,0.208-0.248,0.312-0.455,0.312
		c-0.192,0-0.345-0.104-0.457-0.312l-3.479-7.849l-3.12,7.849c-0.032,0.096-0.092,0.172-0.18,0.228
		c-0.088,0.057-0.18,0.084-0.276,0.084c-0.096,0-0.188-0.027-0.276-0.084c-0.088-0.056-0.147-0.132-0.18-0.228l-3.84-11.4
		l-0.048-0.24c0-0.144,0.048-0.256,0.144-0.336s0.217-0.12,0.36-0.12c0.208,0,0.352,0.104,0.433,0.312l3.383,10.464l3.192-7.896
		c0.032-0.096,0.093-0.172,0.181-0.228s0.18-0.084,0.275-0.084s0.188,0.028,0.275,0.084s0.148,0.132,0.181,0.228l3.384,7.824
		l3.336-10.392c0.08-0.208,0.225-0.312,0.432-0.312C105.516,33.415,105.636,33.455,105.733,33.535z"/>
	<path d="M108.157,45.619c-0.113-0.136-0.168-0.315-0.168-0.54v-0.552c0-0.224,0.055-0.404,0.168-0.54
		c0.111-0.136,0.271-0.204,0.479-0.204h0.096c0.208,0,0.368,0.068,0.479,0.204c0.112,0.136,0.168,0.316,0.168,0.54v0.552
		c0,0.225-0.056,0.404-0.168,0.54c-0.111,0.136-0.271,0.204-0.479,0.204h-0.096C108.428,45.823,108.268,45.755,108.157,45.619z
		 M108.325,40.951l-0.121-11.184c0-0.24,0.032-0.424,0.097-0.553c0.063-0.128,0.192-0.191,0.384-0.191s0.32,0.063,0.384,0.191
		c0.063,0.129,0.097,0.312,0.097,0.553l-0.121,11.184c-0.016,0.256-0.135,0.384-0.359,0.384S108.34,41.207,108.325,40.951z"/>
</g>
<g>
	<path fill="#86C800" d="M164.591,8.358c-0.006,0.139-0.011,0.278-0.015,0.419c-2.26,0.882-7.772,0.803-7.098,5.011
		c0.27,1.686,1.973,2.352,2.172,4.063c0.44,3.769-2.562,7.82-4.33,10.145c-1.758,2.309-3.705,4.383-6.086,6.094
		c-0.451,0.083-0.391-0.312-0.397-0.645c-2.75,0.466-2.3,4.349-4.386,5.523c-0.036,1.049-0.07,2.098-0.108,3.146
		c0.692-0.125,5.111-2.366,5.449,0.392c-0.568-0.803-2.108-0.854-2.728-0.091c0.897,0.854,2.862,0.708,3.075,2.204
		c-0.483-0.079-1.047-0.483-0.637,0.188c0.063,0.601-2.315-1.146-2.741,0.327c0.926,0.827,2.881,0.693,3.076,2.205
		c-1.277-1.215-2.797-0.669-5.229-0.599c-3.276,0.098-5.289-1.412-7.154,0.392c0.41-1.808,2.508-1.81,4.273-2.166
		c0.014-0.421,0.027-0.842,0.041-1.26c-1.527-0.833-2.888,0.383-4.012,0.703c0.521-1.615,2.355-1.824,4.266-1.953
		c0.412-2.281-0.158-3.646-1.32-4.456c-1.608,0.326-4.215,2.67-5.48,0.656c-6.492,1.531-9.972,6.283-15.826,8.496
		c-0.285-1.154-2.272-0.719-3.32-1.163c0.01-0.279,0.02-0.558,0.029-0.837c2.346-5.572,8.283-8.299,12.598-12.387
		c-1.199-0.031-2.393-0.066-2.482-1.135c3.717-5.144,10.249-11.207,15.233-15.867c1.925-1.799,4.321-3.183,5.622-4.85
		c1.087-1.393,1.334-2.757,2.645-3.691C152.735,5.079,161.971,6.649,164.591,8.358z M144.042,44.835
		c0.942-0.444,2.897-0.95,3.399-1.146C146.106,43.855,144.338,43.559,144.042,44.835z"/>
</g>
</svg>
