<?xml version="1.0" encoding="utf-8"?>
<!-- Generator: Adobe Illustrator 23.0.1, SVG Export Plug-In . SVG Version: 6.00 Build 0)  -->
<svg version="1.1" id="Layer_1" xmlns="http://www.w3.org/2000/svg" xmlns:xlink="http://www.w3.org/1999/xlink" x="0px" y="0px"
	 viewBox="0 0 141.9 56.3" style="enable-background:new 0 0 141.9 56.3;" xml:space="preserve">
<style type="text/css">
	.st0{fill:none;stroke:url(#SVGID_1_);stroke-width:6;stroke-miterlimit:10;}
	.st1{fill:#FFFFFF;}
</style>
<path d="M130.2,52.8H11.7c-4,0-7.2-3.4-7.2-7.6V11.1c0-4.2,3.3-7.6,7.2-7.6h118.5c4,0,7.2,3.4,7.2,7.6v34.1
	C137.4,49.4,134.2,52.8,130.2,52.8z"/>
<linearGradient id="SVGID_1_" gradientUnits="userSpaceOnUse" x1="0" y1="26.9691" x2="141.9202" y2="26.9691" gradientTransform="matrix(1 0 0 -1 0 55.1382)">
	<stop  offset="0" style="stop-color:#1E4E9A"/>
	<stop  offset="0.492" style="stop-color:#27D146"/>
	<stop  offset="1" style="stop-color:#C73DC9"/>
</linearGradient>
<path class="st0" d="M131.7,53.3H10.2c-4,0-7.2-3.4-7.2-7.6V10.6C3,6.4,6.3,3,10.2,3h121.5c4,0,7.2,3.4,7.2,7.6v35.2
	C138.9,49.9,135.7,53.3,131.7,53.3z"/>
<g>
	<path class="st1" d="M18.8,28.2c0-1,0.2-2,0.5-3c0.4-1,0.9-1.9,1.6-2.7c0.7-0.8,1.5-1.4,2.5-1.9c1-0.5,2.1-0.7,3.4-0.7
		c1.5,0,2.8,0.3,3.8,1c1.1,0.7,1.9,1.6,2.4,2.6l-1.7,1.1c-0.3-0.5-0.6-1-0.9-1.3c-0.4-0.4-0.7-0.7-1.2-0.9c-0.4-0.2-0.8-0.4-1.3-0.5
		s-0.9-0.1-1.3-0.1c-0.9,0-1.7,0.2-2.5,0.6c-0.7,0.4-1.3,0.9-1.8,1.5c-0.5,0.6-0.9,1.3-1.1,2.1s-0.4,1.6-0.4,2.3
		c0,0.9,0.1,1.7,0.4,2.5c0.3,0.8,0.7,1.5,1.2,2.1c0.5,0.6,1.1,1.1,1.8,1.5c0.7,0.4,1.5,0.5,2.3,0.5c0.4,0,0.9-0.1,1.4-0.2
		c0.5-0.1,0.9-0.3,1.3-0.5c0.4-0.2,0.8-0.6,1.2-0.9c0.4-0.4,0.7-0.8,0.9-1.3l1.8,1c-0.3,0.6-0.6,1.2-1.1,1.7c-0.5,0.5-1,0.9-1.6,1.2
		s-1.2,0.6-1.9,0.8s-1.3,0.3-2,0.3c-1.1,0-2.2-0.3-3.2-0.8c-1-0.5-1.8-1.2-2.5-2s-1.2-1.7-1.6-2.8C18.9,30.3,18.8,29.2,18.8,28.2z"
		/>
	<path class="st1" d="M46.3,36.7h-2.1v-6.9c0-1.3-0.2-2.2-0.7-2.8c-0.4-0.6-1.1-0.9-1.9-0.9c-0.4,0-0.8,0.1-1.2,0.2
		c-0.4,0.2-0.8,0.4-1.1,0.7c-0.4,0.3-0.7,0.6-0.9,1c-0.3,0.4-0.5,0.8-0.6,1.3v7.4h-2.1V19.4h2.1V27c0.5-0.9,1.1-1.6,2-2.1
		c0.8-0.5,1.7-0.8,2.7-0.8c0.7,0,1.3,0.1,1.8,0.4c0.5,0.3,0.9,0.6,1.2,1.1c0.3,0.5,0.5,1,0.6,1.6c0.1,0.6,0.2,1.3,0.2,2V36.7z"/>
	<path class="st1" d="M54.9,36.9c-0.9,0-1.8-0.2-2.5-0.5c-0.8-0.3-1.4-0.8-2-1.4c-0.6-0.6-1-1.3-1.3-2c-0.3-0.8-0.5-1.6-0.5-2.5
		s0.2-1.7,0.5-2.5c0.3-0.8,0.7-1.4,1.3-2c0.6-0.6,1.2-1,2-1.4c0.8-0.3,1.6-0.5,2.5-0.5c0.9,0,1.8,0.2,2.5,0.5
		c0.8,0.3,1.4,0.8,1.9,1.4c0.5,0.6,0.9,1.2,1.2,2c0.3,0.8,0.4,1.6,0.4,2.4c0,0.2,0,0.3,0,0.5c0,0.1,0,0.3,0,0.3H50.8
		c0,0.6,0.2,1.2,0.4,1.7c0.2,0.5,0.5,0.9,0.9,1.3c0.4,0.4,0.8,0.6,1.3,0.8c0.5,0.2,1,0.3,1.5,0.3c0.4,0,0.7-0.1,1.1-0.2
		c0.4-0.1,0.7-0.2,1-0.4c0.3-0.2,0.6-0.4,0.8-0.6c0.2-0.3,0.4-0.5,0.6-0.8l1.8,0.5c-0.2,0.5-0.5,0.9-0.8,1.3c-0.4,0.4-0.8,0.7-1.2,1
		c-0.5,0.3-1,0.5-1.5,0.6S55.5,36.9,54.9,36.9z M59.1,29.7c0-0.6-0.2-1.1-0.4-1.6c-0.2-0.5-0.6-0.9-0.9-1.3
		c-0.4-0.3-0.8-0.6-1.3-0.8c-0.5-0.2-1-0.3-1.6-0.3c-0.6,0-1.1,0.1-1.6,0.3c-0.5,0.2-0.9,0.5-1.3,0.8c-0.4,0.4-0.7,0.8-0.9,1.3
		c-0.2,0.5-0.4,1-0.4,1.6H59.1z"/>
	<path class="st1" d="M62.6,30.5c0-0.9,0.1-1.7,0.4-2.5c0.3-0.8,0.7-1.4,1.3-2c0.6-0.6,1.2-1,2-1.4c0.8-0.3,1.6-0.5,2.6-0.5
		c1.2,0,2.3,0.3,3.2,0.8c0.9,0.5,1.6,1.3,2,2.2l-2,0.6c-0.3-0.6-0.8-1-1.3-1.4c-0.6-0.3-1.2-0.5-1.9-0.5c-0.6,0-1.1,0.1-1.6,0.3
		c-0.5,0.2-0.9,0.5-1.3,1s-0.6,0.9-0.9,1.4c-0.2,0.6-0.3,1.2-0.3,1.8c0,0.6,0.1,1.3,0.3,1.8c0.2,0.6,0.5,1.1,0.9,1.5
		c0.4,0.4,0.8,0.7,1.3,1c0.5,0.2,1,0.4,1.6,0.4c0.4,0,0.7-0.1,1.1-0.2c0.4-0.1,0.7-0.2,1-0.4c0.3-0.2,0.5-0.4,0.8-0.6
		c0.2-0.2,0.4-0.5,0.5-0.7l2,0.6c-0.2,0.5-0.5,0.9-0.8,1.3c-0.3,0.4-0.7,0.7-1.2,1c-0.5,0.3-1,0.5-1.5,0.6c-0.6,0.2-1.1,0.2-1.8,0.2
		c-0.9,0-1.8-0.2-2.5-0.5c-0.8-0.3-1.4-0.8-2-1.4c-0.6-0.6-1-1.3-1.3-2C62.7,32.2,62.6,31.3,62.6,30.5z"/>
	<path class="st1" d="M85.1,36.7l-4.2-6l-2.4,2.2v3.8h-2.1V19.4h2.1v11.3l6.3-6.4h2.3l-4.9,5.1l5.1,7.2H85.1z"/>
	<path class="st1" d="M93.9,36.9c-0.9,0-1.8-0.2-2.5-0.5s-1.4-0.8-2-1.4c-0.5-0.6-1-1.3-1.3-2c-0.3-0.8-0.4-1.6-0.4-2.4
		c0-0.9,0.2-1.7,0.5-2.5c0.3-0.8,0.7-1.4,1.3-2c0.5-0.6,1.2-1,2-1.4c0.8-0.3,1.6-0.5,2.5-0.5s1.8,0.2,2.5,0.5c0.8,0.3,1.4,0.8,2,1.4
		s1,1.3,1.3,2c0.3,0.8,0.5,1.6,0.5,2.5c0,0.8-0.1,1.7-0.4,2.4c-0.3,0.8-0.7,1.4-1.3,2c-0.6,0.6-1.2,1-2,1.4S94.8,36.9,93.9,36.9z
		 M89.8,30.6c0,0.6,0.1,1.2,0.3,1.8c0.2,0.6,0.5,1,0.9,1.4c0.4,0.4,0.8,0.7,1.3,1c0.5,0.2,1,0.4,1.6,0.4s1.1-0.1,1.6-0.4
		c0.5-0.2,0.9-0.6,1.3-1c0.4-0.4,0.7-0.9,0.9-1.5c0.2-0.6,0.3-1.2,0.3-1.8c0-0.6-0.1-1.2-0.3-1.8c-0.2-0.6-0.5-1-0.9-1.5
		c-0.4-0.4-0.8-0.7-1.3-1c-0.5-0.2-1-0.4-1.6-0.4s-1.1,0.1-1.6,0.4s-0.9,0.6-1.3,1c-0.4,0.4-0.7,0.9-0.9,1.5
		C89.9,29.3,89.8,29.9,89.8,30.6z"/>
	<path class="st1" d="M106.4,36.9c-1.3,0-2.3-0.4-2.9-1.3c-0.7-0.9-1-2.2-1-3.9v-7.4h2.1v7c0,2.5,0.9,3.8,2.6,3.8
		c0.8,0,1.6-0.3,2.4-0.8c0.7-0.5,1.3-1.3,1.7-2.2v-7.7h2.1v9.8c0,0.5,0.2,0.7,0.7,0.8v1.8c-0.2,0-0.3,0.1-0.5,0.1
		c-0.1,0-0.3,0-0.4,0c-0.5,0-0.8-0.1-1.1-0.3c-0.3-0.2-0.4-0.5-0.4-0.9l-0.1-1.5c-0.6,0.9-1.3,1.6-2.2,2.1
		C108.4,36.7,107.5,36.9,106.4,36.9z"/>
	<path class="st1" d="M123.2,36.1c-0.1,0.1-0.3,0.1-0.5,0.2c-0.2,0.1-0.4,0.2-0.7,0.3c-0.3,0.1-0.5,0.2-0.8,0.2
		c-0.3,0.1-0.6,0.1-1,0.1c-0.8,0-1.4-0.2-2-0.6c-0.6-0.4-0.8-1.1-0.8-1.9V26h-1.7v-1.6h1.7v-4.1h2.1v4.1h2.8V26h-2.8v7.6
		c0,0.5,0.2,0.8,0.4,1c0.3,0.2,0.6,0.3,0.9,0.3c0.4,0,0.8-0.1,1.1-0.2c0.3-0.1,0.6-0.2,0.7-0.3L123.2,36.1z"/>
</g>
</svg>
