<?xml version="1.0" encoding="utf-8"?>
<!-- Generator: Adobe Illustrator 15.1.0, SVG Export Plug-In . SVG Version: 6.00 Build 0)  -->
<!DOCTYPE svg PUBLIC "-//W3C//DTD SVG 1.1//EN" "http://www.w3.org/Graphics/SVG/1.1/DTD/svg11.dtd">
<svg version="1.1" id="Layer_1" xmlns="http://www.w3.org/2000/svg" xmlns:xlink="http://www.w3.org/1999/xlink" x="0px" y="0px"
	 width="1343.64px" height="210.444px" viewBox="0 0 1343.64 210.444" enable-background="new 0 0 1343.64 210.444"
	 xml:space="preserve">
<g>
	<path fill="#BB3711" d="M162.55,56.288c0,0,0.73-7.92,3.61-8.87c4.35-1.43,6.16,0.76,8.859,0c2.49-0.69,3.45-1.47,3.45-1.47
		s-0.41-1.28-3.609-1.65c-3.76-0.43-6.73,0.73-8.371-1.03c-1.65-1.76-5.38-3.19-0.66-2.74c2.78,0.26,5.25-0.33,6.24,0
		c0.98,0.33-0.66-2.52-3.29-2.9c-2.62-0.39-4.8-2.01-6.43-5.65v-0.01c-4.35-2.58-9.28-6.24-14.25-11.36c0,0-16.2-21.02-37.66-20.58
		c0,0-5.69-0.44-11.38,2.19c-5.69,2.63-28.75,8.98-37.21,11.82c-14.92,5-18.78,14.78-20.29,19.97c5.89-5.68,11.15-9.98,11.15-9.98
		l-12.1,13.19v0.01c-1.06,3.27-2.82,8.08-4.53,12.43c-0.45,1.16-0.9,2.28-1.32,3.34c-0.11,0.26-0.21,0.51-0.31,0.75
		c0.38-0.46,0.64-0.75,0.74-0.86l-1.07,1.65c-0.39,0.94-0.75,1.8-1.07,2.54c-0.2,0.43-0.38,0.83-0.54,1.18
		c-0.24,0.5-0.56,1.15-0.97,1.91c-2.73,5.23-8.88,15.8-11.98,22.23c1.8-1.31,3.61-2.55,5.33-3.71c-1.42,1.59-2.81,3.22-4.07,4.84
		l6.69-5.21l-11.43,13.09c-0.32,0.97-0.65,2.07-1,3.28c-0.08,0.29-0.17,0.6-0.25,0.91c-0.21,0.71-0.41,1.46-0.61,2.25l7.26-7.11
		l-7.62,8.55c-0.65,2.61-1.28,5.54-1.83,8.74c-0.19,1.09-0.37,2.22-0.54,3.38c-0.27,1.84-0.51,3.74-0.7,5.72
		c-0.1,0.91-0.18,1.84-0.25,2.79c-0.11,1.38-0.19,2.79-0.25,4.23c0,0-0.15,1.68-0.16,4.56c0,0.93,0.01,1.99,0.05,3.15
		c0.05,2.05,0.19,4.44,0.45,7.08c0.09,0.96,0.2,1.95,0.34,2.98c0.24,1.93,0.56,3.96,0.96,6.07c0.26,1.38,0.56,2.8,0.91,4.25
		c1.35,5.67,3.35,11.72,6.29,17.63c0.17,0.35,0.35,0.689,0.52,1.03c0.06,0.109,0.11,0.21,0.17,0.319c0,0,3.49,5.311,9.22,11.79
		c0.48,0.54,0.98,1.101,1.5,1.66c2.11,2.31,4.49,4.71,7.07,7.03c0.59,0.54,1.2,1.069,1.81,1.6c1.74,1.48,3.56,2.91,5.44,4.24
		c0.6,0.43,1.21,0.84,1.82,1.24c3.69,2.43,7.61,4.449,11.66,5.71c0,0,13.58,7.439,35.03,5.689c21.45-1.75,47.72,3.511,62.17-16.63
		l22.77-27.149c0,0,6.131-6.13,5.25-17.51c0,0-3.939-27.15-2.63-34.15c0,0,0-26.71-13.57-33.71c0,0,4.71-16.42-2.73-19.27
		c0,0,45.2-18.39,64.9,40.28c0,0,0.029-0.21,0.08-0.6c0,0,0,0,0-0.01C228,91.908,217.59,48.378,162.55,56.288z M133.98,27.388
		l-12.97-9.52C128.07,17.538,133.98,27.388,133.98,27.388z M128.66,29.868l-15.31-4.95C119.95,22.388,128.66,29.868,128.66,29.868z
		 M132.28,50.928c-5,0-11.27-4.54-11.27-8.76c0-4.22,4.92-6.9,10.2-6.51c4.99,0.36,9.06,3.42,9.06,7.63
		C140.27,47.508,137.28,50.928,132.28,50.928z M150.41,69.448l5.9,10.15C154.08,78.968,150.62,70.008,150.41,69.448z M151.71,63.508
		c5.61,3.19,12.59,16.64,12.59,16.64L151.71,63.508z"/>
	<path fill="#AC320F" d="M35.19,52.888l-1.07,1.65c0.11-0.25,0.21-0.51,0.33-0.78c-0.01-0.01-0.01-0.01,0-0.01
		C34.83,53.288,35.09,52.998,35.19,52.888z"/>
	<path fill="#AC320F" d="M27.51,78.318l-11.43,13.09c0.21-0.68,0.42-1.3,0.61-1.86c0.82-2.4,1.38-3.71,1.38-3.71
		c0.03-0.07,0.05-0.15,0.09-0.23c0.31-0.86,0.8-1.95,1.4-3.2v-0.01c1.8-1.31,3.61-2.55,5.33-3.71c-1.42,1.59-2.81,3.22-4.07,4.84
		L27.51,78.318z"/>
	<path fill="#AC320F" d="M21.48,90.738l-7.62,8.55c0.12-0.49,0.24-0.97,0.36-1.44L21.48,90.738z"/>
	<path fill="#AC320F" d="M52.71,24.028l-12.1,13.19c0.27-0.83,0.5-1.57,0.66-2.17c0.09-0.32,0.18-0.67,0.29-1.04
		C47.45,28.328,52.71,24.028,52.71,24.028z"/>
	<path fill="#AC320F" d="M128.66,29.868l-15.31-4.95C119.95,22.388,128.66,29.868,128.66,29.868z"/>
	<path fill="#AC320F" d="M133.98,27.388l-12.97-9.52C128.07,17.538,133.98,27.388,133.98,27.388z"/>
	<path fill="#AC320F" d="M140.27,43.288c0,4.22-2.99,7.64-7.99,7.64s-11.27-4.54-11.27-8.76c0-4.22,4.92-6.9,10.2-6.51
		C136.2,36.018,140.27,39.078,140.27,43.288z"/>
	<path fill="#AC320F" d="M156.31,79.598c-2.23-0.63-5.69-9.59-5.9-10.15L156.31,79.598z"/>
	<path fill="#AC320F" d="M164.3,80.148l-12.59-16.64C157.32,66.698,164.3,80.148,164.3,80.148z"/>
	<path fill="#AC320F" d="M229.61,101.428c-1.61-9.52-12.021-53.05-67.061-45.14c0,0,0.73-7.92,3.61-8.87
		c4.35-1.43,6.16,0.76,8.859,0c2.49-0.69,3.45-1.47,3.45-1.47s-0.41-1.28-3.609-1.65c-3.76-0.43-6.73,0.73-8.371-1.03
		c-1.65-1.76-5.38-3.19-0.66-2.74c2.78,0.26,5.25-0.33,6.24,0c0.98,0.33-0.66-2.52-3.29-2.9c-2.62-0.39-4.8-2.01-6.43-5.65
		c0.05,0.03,0.1,0.06,0.14,0.08c0.01,0,0.01,0,0.01,0c3.93,2.34,7.39,3.8,9.98,4.7c0.02,0.01,0.05,0.02,0.07,0.02
		c3.04,1.06,4.88,1.34,4.88,1.34C233.479,52.028,230.27,95.758,229.61,101.428z"/>
	<path fill="#D56E1A" d="M140.27,43.288c0,4.22-2.99,7.64-7.99,7.64s-11.27-4.54-11.27-8.76c0-4.22,4.92-6.9,10.2-6.51
		C136.2,36.018,140.27,39.078,140.27,43.288z"/>
	<path d="M136.331,42.441c0-2.902-2.462-4.816-5.363-4.816s-6.349,1.367-6.349,4.269c0,2.902,3.994,5.528,6.896,5.528
		S136.331,45.343,136.331,42.441z"/>
	<path fill="#FFFFFF" d="M229.87,103.248c0,0-0.07-0.65-0.26-1.81c0,0,0,0,0-0.01c-1.61-9.52-12.021-53.05-67.061-45.14
		c0,0,0.73-7.92,3.61-8.87c4.35-1.43,6.16,0.76,8.859,0c2.49-0.69,3.45-1.47,3.45-1.47s-0.41-1.28-3.609-1.65
		c-3.76-0.43-6.73,0.73-8.371-1.03c-1.65-1.76-5.38-3.19-0.66-2.74c2.78,0.26,5.25-0.33,6.24,0c0.98,0.33-0.66-2.52-3.29-2.9
		c-2.62-0.39-4.8-2.01-6.43-5.65v-0.01c0.02,0,0.06,0.03,0.14,0.09c0.01,0,0.01,0,0.01,0c0.8,0.58,4.56,3.57,9.98,4.7
		c0.02,0.01,0.05,0.02,0.07,0.02C197.19,41.838,234.35,58.258,229.87,103.248z"/>
	<path fill="#FFFFFF" d="M164.3,80.148l-12.59-16.64C157.32,66.698,164.3,80.148,164.3,80.148z"/>
	<path fill="#FFFFFF" d="M156.31,79.598c-2.23-0.63-5.69-9.59-5.9-10.15L156.31,79.598z"/>
	<path fill="#FFFFFF" d="M133.98,27.388l-12.97-9.52C128.07,17.538,133.98,27.388,133.98,27.388z"/>
	<path fill="#FFFFFF" d="M128.66,29.868l-15.31-4.95C119.95,22.388,128.66,29.868,128.66,29.868z"/>
	<g>
		<path fill="#AC320F" d="M227.891,94.049c-0.525-2.445-1.289-4.827-2.208-7.141c-0.898-2.321-1.952-4.58-3.154-6.753
			c-2.393-4.349-5.302-8.416-8.748-11.98c-3.386-3.622-7.302-6.729-11.514-9.36c-4.212-2.638-8.757-4.743-13.451-6.469
			c2.415,0.658,4.78,1.5,7.104,2.449c2.311,0.979,4.565,2.102,6.744,3.361c4.353,2.531,8.339,5.699,11.841,9.331
			c3.445,3.683,6.419,7.819,8.7,12.311C225.465,84.287,227.208,89.08,227.891,94.049z"/>
	</g>
	<path fill="#FFFFFF" d="M132.71,41.37c0-1.107-0.94-1.838-2.047-1.838s-2.423,0.522-2.423,1.629s1.525,2.11,2.632,2.11
		S132.71,42.478,132.71,41.37z"/>
</g>
<g>
	<path fill="#FFFFFF" d="M263.867,154.808V53.916c0-3.724-1.333-6.864-3.99-9.419c-1.812-1.916-4.048-3.137-6.706-3.671h30.969
		v109.192h12.612V40.826h20.435v109.192h12.77V40.826h20.274v113.982c0,3.726-1.331,6.864-3.991,9.417
		c-2.662,2.662-5.801,3.99-9.418,3.99h-59.704c-3.619,0-6.761-1.328-9.419-3.99c-2.555-2.339-3.831-5.268-3.831-8.78V154.808z"/>
	<path fill="#FFFFFF" d="M390.458,62.058v38.792h10.696V62.058h31.288c-2.553,0.426-4.895,1.65-7.022,3.671
		c-2.555,2.768-3.831,5.961-3.831,9.578v92.909h-20.435v-49.327h-10.696v49.327h-31.129c2.447-0.529,4.63-1.807,6.546-3.83
		c2.658-2.554,3.99-5.693,3.99-9.419V75.307c0-3.724-1.332-6.917-3.99-9.578c-1.916-1.916-4.151-3.138-6.706-3.671H390.458z"/>
	<path fill="#FFFFFF" d="M443.937,62.058h61.78c-3.727,0-6.866,1.117-9.419,3.352c-2.661,2.13-3.99,4.737-3.99,7.822v83.81
		c0,2.874,1.329,5.483,3.99,7.823c2.553,2.234,5.692,3.352,9.419,3.352h-46.775c3.514-0.104,6.546-1.221,9.101-3.352
		c2.658-2.235,3.991-4.841,3.991-7.823v-19.955h-14.848l-2.872,31.129h-30.651c3.938,0,6.945-0.982,9.021-2.953
		c2.075-1.967,3.377-4.494,3.911-7.582L443.937,62.058z M471.873,122.081V77.063h-10.377l-3.032,45.018H471.873z"/>
	<path fill="#FFFFFF" d="M550.952,80.096h-6.125v73.912c0,4.047,1.351,7.451,4.052,10.217c1.835,2.023,4.154,3.354,6.964,3.99
		h-42.305c2.658-0.637,5.001-1.967,7.023-3.99c2.66-2.978,3.991-6.384,3.991-10.217l0.16-73.912h-6.283
		c-2.688,0.534-4.996,1.811-6.93,3.832c-2.688,2.554-4.027,5.694-4.027,9.418V62.058h54.595v31.289c0-3.724-1.343-6.864-4.028-9.418
		C556.104,81.907,553.742,80.63,550.952,80.096z"/>
	<path fill="#FFFFFF" d="M664.395,40.826c3.616,0,6.811,1.277,9.578,3.831c2.555,2.769,3.833,5.961,3.833,9.578v100.574
		c0,3.726-1.278,6.864-3.833,9.417c-1.384,1.277-2.848,2.262-4.389,2.953c-1.546,0.693-3.274,1.037-5.189,1.037h-57.63
		c3.302,0,6.279-1.328,8.94-3.99c2.658-2.553,3.991-5.692,3.991-9.417V54.234c0-3.724-1.333-6.917-3.991-9.578
		c-2.555-2.554-5.691-3.831-9.42-3.831H664.395z M656.892,150.018V58.865h-17.08v91.153H656.892z"/>
	<path fill="#FFFFFF" d="M732.559,62.058c3.724,0,6.865,1.332,9.42,3.991c2.658,2.554,3.991,5.694,3.991,9.418v79.341
		c0,3.726-1.333,6.864-3.991,9.417c-2.662,2.662-5.804,3.99-9.42,3.99h-24.743c-3.621,0-6.76-1.328-9.42-3.99
		c-2.66-2.553-3.991-5.692-3.991-9.417V75.467c0-3.724,1.331-6.864,3.991-9.418c2.555-2.659,5.692-3.991,9.42-3.991H732.559z
		 M714.839,150.018h10.696V80.096h-10.696V150.018z"/>
	<path fill="#FFFFFF" d="M806.948,154.808V53.916c0-3.724-1.333-6.864-3.991-9.419c-1.812-1.916-4.047-3.137-6.705-3.671h30.969
		v109.192h12.612V40.826h20.435v109.192h12.77V40.826h20.274v113.982c0,3.726-1.331,6.864-3.991,9.417
		c-2.662,2.662-5.801,3.99-9.418,3.99h-59.705c-3.618,0-6.76-1.328-9.418-3.99c-2.555-2.339-3.831-5.268-3.831-8.78V154.808z"/>
	<path fill="#FFFFFF" d="M913.106,62.058h38.152c3.724,0,6.865-1.277,9.42-3.832c2.658-2.659,3.991-5.851,3.991-9.578v31.449
		h-31.131v20.753h31.131v18.04h-30.972c0,0.638,0,1.916,0,3.831s0.025,4.285,0.08,7.104c0.053,2.821,0.08,5.961,0.08,9.418
		c0,3.46,0,7.051,0,10.776h30.812v18.198h-64.016c1.811,0,3.406-0.344,4.788-1.037c1.382-0.691,2.715-1.676,3.991-2.953
		c1.381-1.277,2.314-2.713,2.794-4.31s0.72-3.298,0.72-5.107V75.467c0-3.724-1.334-6.864-3.991-9.418
		c-2.555-2.659-5.692-3.991-9.421-3.991H913.106z"/>
	<path fill="#FFFFFF" d="M1043.528,88.557h23.945c3.617,0,6.812,1.277,9.578,3.831c2.555,2.77,3.831,5.962,3.831,9.579v52.841
		c0,3.726-1.276,6.864-3.831,9.417c-1.384,1.277-2.847,2.262-4.389,2.953c-1.545,0.693-3.273,1.037-5.189,1.037h-44.38v-31.289
		c0,3.727,1.331,6.865,3.991,9.419c1.915,2.13,4.203,3.353,6.865,3.672h26.66v-43.421h-24.105c-3.728,0-6.865-1.33-9.42-3.991
		c-2.66-2.555-3.991-5.692-3.991-9.419V54.234c0-3.724,1.331-6.917,3.991-9.578c2.555-2.554,5.692-3.831,9.42-3.831h33.523
		c2.555-0.424,4.894-1.702,7.023-3.832c2.555-2.555,3.831-5.692,3.831-9.419v17.879c0,3.727-1.276,6.864-3.831,9.419
		c-2.66,2.661-5.854,3.991-9.578,3.991h-23.945V88.557z"/>
	<path fill="#FFFFFF" d="M1097.644,62.058h38.152c3.724,0,6.865-1.277,9.42-3.832c2.658-2.659,3.991-5.851,3.991-9.578v31.449
		h-31.131v20.753h31.131v18.04h-30.971c0,0.638,0,1.916,0,3.831s0.025,4.285,0.079,7.104c0.053,2.821,0.08,5.961,0.08,9.418
		c0,3.46,0,7.051,0,10.776h30.812v18.198h-64.016c1.811,0,3.406-0.344,4.788-1.037c1.382-0.691,2.715-1.676,3.991-2.953
		c1.382-1.277,2.314-2.713,2.794-4.31s0.72-3.298,0.72-5.107V75.467c0-3.724-1.333-6.864-3.991-9.418
		c-2.555-2.659-5.692-3.991-9.42-3.991H1097.644z"/>
	<path fill="#FFFFFF" d="M1182.889,62.058v87.96h20.274c2.659-0.319,4.949-1.542,6.865-3.672c2.658-2.554,3.991-5.692,3.991-9.419
		v31.289h-51.563V75.307c0-3.724-1.333-6.917-3.991-9.578c-1.917-1.916-4.15-3.138-6.705-3.671H1182.889z"/>
	<path fill="#FFFFFF" d="M1244.507,62.058v87.96h20.274c2.66-0.319,4.949-1.542,6.865-3.672c2.658-2.554,3.991-5.692,3.991-9.419
		v31.289h-51.563V75.307c0-3.724-1.333-6.917-3.99-9.578c-1.918-1.916-4.151-3.138-6.706-3.671H1244.507z"/>
	<path fill="#FFFFFF" d="M1323.367,95.262V58.865h-17.082v19.955h-20.435V53.916c0-3.724,1.331-6.864,3.991-9.419
		c1.809-1.916,4.096-3.137,6.865-3.671h33.523c3.617,0,6.811,1.277,9.578,3.831c2.555,2.769,3.831,5.961,3.831,9.578v45.658
		c0,3.726-1.276,6.919-3.831,9.578c-2.768,2.554-5.961,3.832-9.578,3.832h-8.938v22.988h-20.274v-27.617
		c0-3.724,1.329-6.864,3.99-9.419c2.556-2.659,5.692-3.991,9.419-3.991H1323.367z M1311.234,144.91c3.192,0,5.906,1.146,8.142,3.432
		c2.235,2.29,3.353,5.029,3.353,8.222c0,3.193-1.117,5.935-3.353,8.221c-2.235,2.291-4.949,3.432-8.142,3.432
		c-3.193,0-5.934-1.141-8.222-3.432c-2.29-2.287-3.432-5.028-3.432-8.221c0-3.192,1.142-5.932,3.432-8.222
		C1305.301,146.055,1308.041,144.91,1311.234,144.91z"/>
</g>
<g>
	<path fill="#BB3711" d="M33.05,57.078c-0.2,0.43-0.38,0.83-0.54,1.18c-0.24,0.5-0.56,1.15-0.97,1.91l-2.02,1.42l-3.1,2.17
		l-8.35,5.85c2.49-3.41,7.06-7.12,11.96-10.5c0.66-0.46,1.32-0.91,1.99-1.35C32.36,57.528,32.71,57.298,33.05,57.078z"/>
	<path fill="#BB3711" d="M36.08,49.658c-0.45,1.16-0.9,2.28-1.32,3.34l-8.07,6.64C28.63,56.498,32.14,53.008,36.08,49.658z"/>
	<path fill="#BB3711" d="M52.71,24.028l-12.1,13.19v0.01l-14.03,15.29c2.46-5.6,9.04-12.76,14.98-18.51
		C47.45,28.328,52.71,24.028,52.71,24.028z"/>
	<path fill="#BB3711" d="M12.03,108.028c-0.19,1.09-0.37,2.22-0.54,3.38l-3.23,4.07l-0.01,0.01l-2.21,2.78
		c0.65-1.82,1.7-3.82,3.01-5.91C9.93,110.938,10.94,109.488,12.03,108.028z"/>
	<path fill="#BB3711" d="M21.48,90.738l-7.62,8.55l-2.08,2.33l-0.01,0.01l-1.25,1.41l-5.31,5.96c0.78-1.85,2.01-3.87,3.5-5.96
		c1.04-1.45,2.2-2.92,3.45-4.4c0.01,0,0.01-0.01,0.01-0.02c0.18-0.2,0.34-0.4,0.52-0.6c0.69-0.81,1.41-1.62,2.14-2.42
		c-0.21,0.71-0.41,1.46-0.61,2.25L21.48,90.738z"/>
	<path fill="#BB3711" d="M24.89,78.688c-1.42,1.59-2.81,3.22-4.07,4.84l-2.66,2.08L5.15,95.728c2.8-4.27,8.61-9.12,14.41-13.32
		v-0.01C21.36,81.088,23.17,79.848,24.89,78.688z"/>
	<path fill="#BB3711" d="M15.08,94.688c-0.08,0.29-0.17,0.6-0.25,0.91c-0.21,0.71-0.41,1.46-0.61,2.25l-1.97,1.92l-0.01,0.01
		l-0.82,0.81l-2.93,2.87c0.07-0.14,0.14-0.28,0.22-0.42c0.95-1.76,2.31-3.65,3.91-5.58c0.01-0.01,0.01-0.01,0.01-0.01
		c0.11-0.12,0.2-0.23,0.29-0.35l0.01-0.01C13.62,96.288,14.33,95.498,15.08,94.688z"/>
	<path fill="#BB3711" d="M27.51,78.318l-11.43,13.09l-0.71,0.81c0.35-0.85,0.8-1.75,1.32-2.67c1.09-1.92,2.52-3.96,4.13-6.02
		L27.51,78.318z"/>
	<path fill="#BB3711" d="M35.19,52.888l-1.07,1.65l-2.1,3.22l-2.5,3.83l-15.43,23.63c1.57-6.16,7.25-14.7,12.33-21.46
		c1.26-1.68,2.49-3.25,3.61-4.65c1.91-2.41,3.51-4.3,4.42-5.35c-0.01-0.01-0.01-0.01,0-0.01C34.83,53.288,35.09,52.998,35.19,52.888
		z"/>
	<path fill="#BB3711" d="M10.97,141.918l-6.41,11.51c0.75-4.11,3.18-9.36,6.07-14.49C10.72,139.898,10.83,140.888,10.97,141.918z"/>
	<path fill="#BB3711" d="M10.18,131.858l-7.95,12.57c1.08-4.49,4.31-10.27,7.9-15.72C10.13,129.638,10.14,130.698,10.18,131.858z"/>
	<path fill="#BB3711" d="M10.79,117.128c-0.1,0.91-0.18,1.84-0.25,2.79l-4.71,5.1l-1.85,2.01l-0.01,0.01l-3.97,4.3
		c0.95-2.14,2.5-4.5,4.39-6.93c0.72-0.93,1.5-1.87,2.31-2.81C8,120.088,9.38,118.588,10.79,117.128z"/>
	<path fill="#BB3711" d="M13.188,96.054c0,0-10.48,25.329-9.515,37.476L13.188,96.054z"/>
	<path fill="#BB3711" d="M19.65,170.898l-0.01,0.88c-0.19-0.601-0.36-1.24-0.51-1.91C19.3,170.218,19.48,170.558,19.65,170.898z"/>
	<path fill="#BB3711" d="M12.84,152.238l-1.91,9.52c-0.48-3.69,0.04-8.65,1-13.77C12.19,149.368,12.49,150.788,12.84,152.238z"/>
	<path fill="#BB3711" d="M48.14,205.868c-1.28-2.18-2.37-5.09-3.28-8.33c0.6,0.43,1.21,0.84,1.82,1.24L48.14,205.868z"/>
	<path fill="#BB3711" d="M40.5,200.558c-1.2-2.33-2.15-5.43-2.89-8.859c0.59,0.54,1.2,1.069,1.81,1.6L40.5,200.558z"/>
	<path fill="#BB3711" d="M30.54,184.668l-0.26,7.43c-0.75-2.479-1.12-5.64-1.24-9.09C29.52,183.548,30.02,184.108,30.54,184.668z"/>
</g>
<g>
	<path fill="#BB3711" d="M166.065,85.114c0,0,16.215,13.451,19.921,22.053"/>
	<path fill="#BB3711" d="M163.088,74.686c0,0,15.122,14.67,18.148,23.534"/>
	<path fill="#BB3711" d="M173.816,118.887c0,0,11.727,17.503,12.836,26.803"/>
	<path fill="#BB3711" d="M174.545,112.85c0,0,12.688,16.818,14.317,26.042"/>
	<path fill="#BB3711" d="M172.398,105.927c0,0,15.519,14.25,18.785,23.028"/>
	<path fill="#BB3711" d="M171.303,109.167c0,0,13.801,15.916,16.055,25.008"/>
	<path fill="#BB3711" d="M170.066,98.393c0,0,12.526,16.94,14.064,26.18"/>
	<path fill="#BB3711" d="M176.008,91.662c0,0,10.043,18.52,10.281,27.883"/>
	<path fill="#BB3711" d="M173.439,143.753c0,0,8.713,19.18,8.291,28.538"/>
	<path fill="#BB3711" d="M175.143,137.915c0,0,9.774,18.664,9.878,28.029"/>
	<path fill="#BB3711" d="M174.155,130.735c0,0,12.984,16.59,14.775,25.783"/>
	<path fill="#BB3711" d="M185.106,127.822c0,0,3.507,20.774,0.7,29.711"/>
	<path fill="#BB3711" d="M168.937,158.47c0,0-2.539,20.915-7.767,28.687"/>
	<path fill="#BB3711" d="M173.431,154.371c0,0-1.364,21.024-6.148,29.074"/>
	<path fill="#BB3711" d="M176.322,147.726c0,0,2.458,20.924-0.796,29.707"/>
	<path fill="#BB3711" d="M173.377,149.464c0,0,0.07,21.068-4.158,29.425"/>
	<path fill="#BB3711" d="M152.422,177.064c0,0-5.917,20.221-12.343,27.032"/>
	<path fill="#BB3711" d="M157.525,173.751c0,0-4.775,20.522-10.81,27.686"/>
	<path fill="#BB3711" d="M161.461,167.667c0,0-0.989,21.043-5.633,29.18"/>
</g>
</svg>
