<?xml version="1.0" encoding="utf-8"?>
<!-- Generator: Adobe Illustrator 15.1.0, SVG Export Plug-In . SVG Version: 6.00 Build 0)  -->
<!DOCTYPE svg PUBLIC "-//W3C//DTD SVG 1.1//EN" "http://www.w3.org/Graphics/SVG/1.1/DTD/svg11.dtd">
<svg version="1.1" id="Layer_1" xmlns="http://www.w3.org/2000/svg" xmlns:xlink="http://www.w3.org/1999/xlink" x="0px" y="0px"
	 width="1343.64px" height="210.443px" viewBox="0 0 1343.64 210.443" enable-background="new 0 0 1343.64 210.443"
	 xml:space="preserve">
<g>
	<path fill="#FFFFFF" d="M263.867,154.808V53.916c0-3.725-1.333-6.864-3.99-9.419c-1.812-1.916-4.048-3.138-6.706-3.671h30.969
		v109.191h12.612V40.826h20.435v109.191h12.77V40.826h20.274v113.981c0,3.727-1.331,6.864-3.991,9.417
		c-2.662,2.662-5.801,3.99-9.418,3.99h-59.704c-3.619,0-6.761-1.328-9.419-3.99c-2.555-2.339-3.831-5.268-3.831-8.78
		L263.867,154.808L263.867,154.808z"/>
	<path fill="#FFFFFF" d="M390.458,62.058v38.792h10.696V62.058h31.288c-2.554,0.426-4.896,1.65-7.022,3.671
		c-2.555,2.769-3.831,5.961-3.831,9.578v92.909h-20.435v-49.327h-10.696v49.327h-31.129c2.447-0.529,4.63-1.807,6.546-3.83
		c2.658-2.554,3.99-5.693,3.99-9.419v-79.66c0-3.724-1.332-6.917-3.99-9.578c-1.916-1.916-4.151-3.138-6.706-3.671H390.458z"/>
	<path fill="#FFFFFF" d="M443.938,62.058h61.779c-3.727,0-6.866,1.117-9.419,3.353c-2.661,2.13-3.99,4.736-3.99,7.821v83.811
		c0,2.874,1.329,5.482,3.99,7.823c2.553,2.233,5.692,3.352,9.419,3.352h-46.774c3.514-0.104,6.546-1.221,9.101-3.352
		c2.658-2.235,3.991-4.842,3.991-7.823v-19.955h-14.849l-2.871,31.129h-30.651c3.938,0,6.945-0.982,9.021-2.953
		c2.075-1.967,3.377-4.494,3.911-7.582L443.938,62.058z M471.873,122.081V77.063h-10.377l-3.032,45.019H471.873z"/>
	<path fill="#FFFFFF" d="M550.952,80.096h-6.125v73.912c0,4.047,1.351,7.451,4.052,10.217c1.835,2.023,4.154,3.354,6.964,3.99
		h-42.305c2.658-0.637,5.001-1.967,7.022-3.99c2.66-2.978,3.991-6.384,3.991-10.217l0.16-73.912h-6.283
		c-2.688,0.534-4.996,1.812-6.93,3.832c-2.688,2.554-4.027,5.694-4.027,9.418V62.058h54.596v31.289c0-3.724-1.344-6.864-4.028-9.418
		C556.104,81.907,553.742,80.63,550.952,80.096z"/>
	<path fill="#FFFFFF" d="M664.395,40.826c3.616,0,6.812,1.276,9.578,3.831c2.557,2.769,3.834,5.961,3.834,9.577v100.574
		c0,3.727-1.277,6.864-3.834,9.417c-1.383,1.277-2.847,2.262-4.388,2.953c-1.546,0.693-3.273,1.037-5.189,1.037h-57.63
		c3.303,0,6.279-1.328,8.94-3.99c2.658-2.553,3.991-5.691,3.991-9.417V54.234c0-3.724-1.333-6.917-3.991-9.577
		c-2.555-2.555-5.691-3.831-9.42-3.831L664.395,40.826L664.395,40.826z M656.892,150.018V58.865h-17.079v91.152H656.892z"/>
	<path fill="#FFFFFF" d="M732.558,62.058c3.725,0,6.865,1.332,9.42,3.991c2.658,2.554,3.992,5.694,3.992,9.418v79.341
		c0,3.727-1.334,6.864-3.992,9.417c-2.66,2.662-5.803,3.99-9.42,3.99h-24.742c-3.621,0-6.76-1.328-9.42-3.99
		c-2.66-2.553-3.99-5.691-3.99-9.417V75.467c0-3.724,1.33-6.864,3.99-9.418c2.555-2.659,5.691-3.991,9.42-3.991H732.558z
		 M714.839,150.018h10.695V80.096h-10.695V150.018z"/>
	<path fill="#FFFFFF" d="M806.949,154.808V53.916c0-3.725-1.334-6.864-3.992-9.419c-1.812-1.916-4.047-3.138-6.705-3.671h30.969
		v109.191h12.613V40.826h20.434v109.191h12.771V40.826h20.273v113.981c0,3.727-1.332,6.864-3.99,9.417
		c-2.662,2.662-5.803,3.99-9.418,3.99h-59.705c-3.619,0-6.762-1.328-9.418-3.99c-2.557-2.339-3.832-5.268-3.832-8.78V154.808
		L806.949,154.808z"/>
	<path fill="#FFFFFF" d="M913.107,62.058h38.15c3.725,0,6.865-1.276,9.42-3.832c2.658-2.659,3.992-5.851,3.992-9.578v31.449h-31.131
		v20.753h31.131v18.04h-30.973c0,0.638,0,1.916,0,3.831s0.025,4.285,0.08,7.104c0.053,2.82,0.08,5.961,0.08,9.418
		c0,3.46,0,7.051,0,10.775h30.812v18.198h-64.016c1.811,0,3.404-0.344,4.787-1.037c1.383-0.69,2.715-1.676,3.99-2.953
		c1.383-1.276,2.314-2.713,2.795-4.31c0.48-1.598,0.721-3.298,0.721-5.107V75.467c0-3.724-1.334-6.864-3.992-9.418
		c-2.555-2.659-5.691-3.991-9.42-3.991H913.107z"/>
	<path fill="#FFFFFF" d="M1043.529,88.557h23.943c3.617,0,6.812,1.277,9.578,3.831c2.555,2.771,3.832,5.962,3.832,9.579v52.841
		c0,3.727-1.277,6.864-3.832,9.417c-1.383,1.277-2.846,2.262-4.389,2.953c-1.545,0.693-3.273,1.037-5.189,1.037h-44.379v-31.289
		c0,3.727,1.33,6.865,3.99,9.419c1.916,2.13,4.203,3.354,6.865,3.672h26.66v-43.421h-24.105c-3.729,0-6.865-1.33-9.42-3.991
		c-2.66-2.555-3.99-5.691-3.99-9.419V54.234c0-3.724,1.33-6.917,3.99-9.577c2.555-2.555,5.691-3.831,9.42-3.831h33.523
		c2.555-0.425,4.895-1.702,7.023-3.832c2.555-2.556,3.83-5.692,3.83-9.419v17.879c0,3.727-1.275,6.863-3.83,9.419
		c-2.66,2.661-5.855,3.99-9.578,3.99h-23.945v29.694H1043.529z"/>
	<path fill="#FFFFFF" d="M1097.644,62.058h38.152c3.723,0,6.865-1.276,9.42-3.832c2.658-2.659,3.99-5.851,3.99-9.578v31.449h-31.131
		v20.753h31.131v18.04h-30.971c0,0.638,0,1.916,0,3.831s0.025,4.285,0.08,7.104c0.053,2.82,0.078,5.961,0.078,9.418
		c0,3.46,0,7.051,0,10.775h30.812v18.198h-64.016c1.811,0,3.406-0.344,4.787-1.037c1.383-0.69,2.717-1.676,3.992-2.953
		c1.381-1.276,2.314-2.713,2.793-4.31c0.48-1.598,0.721-3.298,0.721-5.107V75.467c0-3.724-1.334-6.864-3.99-9.418
		c-2.557-2.659-5.693-3.991-9.42-3.991H1097.644z"/>
	<path fill="#FFFFFF" d="M1182.888,62.058v87.96h20.275c2.658-0.318,4.949-1.542,6.865-3.672c2.656-2.554,3.99-5.692,3.99-9.419
		v31.289h-51.562V75.307c0-3.724-1.334-6.917-3.992-9.578c-1.916-1.916-4.148-3.138-6.705-3.671H1182.888z"/>
	<path fill="#FFFFFF" d="M1244.507,62.058v87.96h20.273c2.66-0.318,4.949-1.542,6.865-3.672c2.658-2.554,3.99-5.692,3.99-9.419
		v31.289h-51.562V75.307c0-3.724-1.332-6.917-3.99-9.578c-1.918-1.916-4.15-3.138-6.705-3.671H1244.507z"/>
	<path fill="#FFFFFF" d="M1323.367,95.262V58.865h-17.082V78.82h-20.436V53.916c0-3.725,1.332-6.864,3.992-9.419
		c1.809-1.916,4.096-3.138,6.865-3.671h33.521c3.617,0,6.812,1.276,9.578,3.831c2.555,2.769,3.832,5.961,3.832,9.577v45.658
		c0,3.727-1.277,6.919-3.832,9.578c-2.768,2.554-5.961,3.832-9.578,3.832h-8.938v22.988h-20.273v-27.617
		c0-3.724,1.328-6.864,3.99-9.419c2.555-2.659,5.691-3.991,9.418-3.991h8.941V95.262z M1311.234,144.91
		c3.191,0,5.906,1.146,8.143,3.432c2.234,2.29,3.352,5.029,3.352,8.222c0,3.193-1.115,5.936-3.352,8.222
		c-2.236,2.291-4.949,3.432-8.143,3.432s-5.934-1.141-8.223-3.432c-2.289-2.287-3.432-5.028-3.432-8.222
		c0-3.191,1.143-5.932,3.432-8.222C1305.3,146.055,1308.041,144.91,1311.234,144.91z"/>
</g>
<g>
	<g>
		<path fill="#BB3711" d="M162.55,56.288c0,0,0.73-7.92,3.61-8.87c4.35-1.431,6.16,0.76,8.859,0c2.49-0.69,3.45-1.47,3.45-1.47
			s-0.41-1.28-3.609-1.65c-3.76-0.43-6.73,0.729-8.371-1.03c-1.65-1.76-5.38-3.189-0.66-2.74c2.78,0.261,5.25-0.329,6.24,0
			c0.98,0.33-0.66-2.52-3.29-2.899c-2.62-0.391-4.8-2.01-6.43-5.65v-0.01c-4.35-2.58-9.28-6.24-14.25-11.36
			c0,0-16.2-21.02-37.66-20.58c0,0-5.69-0.439-11.38,2.19s-28.75,8.98-37.21,11.82c-14.92,5-18.78,14.779-20.29,19.97
			c5.89-5.68,11.15-9.98,11.15-9.98l-12.1,13.19v0.01c-1.06,3.271-2.82,8.08-4.53,12.431c-0.45,1.159-0.9,2.279-1.32,3.34
			c-0.11,0.26-0.21,0.51-0.31,0.75c0.38-0.46,0.64-0.75,0.74-0.86l-1.07,1.65c-0.39,0.939-0.75,1.8-1.07,2.54
			c-0.2,0.43-0.38,0.83-0.54,1.18c-0.24,0.5-0.56,1.15-0.97,1.91c-2.73,5.229-8.88,15.8-11.98,22.229c1.8-1.31,3.61-2.55,5.33-3.71
			c-1.42,1.59-2.81,3.221-4.07,4.84l6.69-5.21l-11.43,13.091c-0.32,0.97-0.65,2.069-1,3.279c-0.08,0.29-0.17,0.601-0.25,0.91
			c-0.21,0.71-0.41,1.46-0.61,2.25l7.26-7.11l-7.62,8.551c-0.65,2.609-1.28,5.54-1.83,8.739c-0.19,1.091-0.37,2.221-0.54,3.381
			c-0.27,1.84-0.51,3.739-0.7,5.72c-0.1,0.91-0.18,1.84-0.25,2.79c-0.11,1.38-0.19,2.79-0.25,4.229c0,0-0.15,1.681-0.16,4.561
			c0,0.93,0.01,1.99,0.05,3.149c0.05,2.051,0.19,4.44,0.45,7.08c0.09,0.96,0.2,1.95,0.34,2.98c0.24,1.93,0.56,3.96,0.96,6.069
			c0.26,1.381,0.56,2.801,0.91,4.25c1.35,5.671,3.35,11.721,6.29,17.631c0.17,0.35,0.35,0.688,0.52,1.029
			c0.06,0.109,0.11,0.21,0.17,0.319c0,0,3.49,5.311,9.22,11.79c0.48,0.54,0.98,1.101,1.5,1.66c2.11,2.31,4.49,4.71,7.07,7.03
			c0.59,0.539,1.2,1.068,1.81,1.6c1.74,1.479,3.56,2.91,5.44,4.24c0.6,0.43,1.21,0.84,1.82,1.239c3.69,2.431,7.61,4.449,11.66,5.71
			c0,0,13.58,7.439,35.03,5.689c21.45-1.75,47.72,3.511,62.17-16.63l22.77-27.149c0,0,6.131-6.13,5.25-17.51
			c0,0-3.939-27.15-2.63-34.15c0,0,0-26.71-13.57-33.71c0,0,4.71-16.42-2.73-19.27c0,0,45.2-18.39,64.9,40.28
			c0,0,0.029-0.21,0.08-0.601c0,0,0,0,0-0.01C228,91.908,217.59,48.378,162.55,56.288z M133.98,27.388l-12.97-9.52
			C128.07,17.538,133.98,27.388,133.98,27.388z M128.66,29.868l-15.31-4.95C119.95,22.388,128.66,29.868,128.66,29.868z
			 M132.28,50.928c-5,0-11.27-4.54-11.27-8.76s4.92-6.9,10.2-6.51c4.99,0.359,9.06,3.42,9.06,7.63
			C140.27,47.508,137.28,50.928,132.28,50.928z M150.41,69.448l5.9,10.149C154.08,78.968,150.62,70.008,150.41,69.448z
			 M151.71,63.508c5.61,3.19,12.59,16.64,12.59,16.64L151.71,63.508z"/>
		<path fill="#AC320F" d="M35.19,52.888l-1.07,1.65c0.11-0.25,0.21-0.511,0.33-0.78c-0.01-0.01-0.01-0.01,0-0.01
			C34.83,53.288,35.09,52.998,35.19,52.888z"/>
		<path fill="#AC320F" d="M27.51,78.318L16.08,91.408c0.21-0.681,0.42-1.301,0.61-1.86c0.82-2.4,1.38-3.71,1.38-3.71
			c0.03-0.07,0.05-0.15,0.09-0.23c0.31-0.859,0.8-1.949,1.4-3.199v-0.011c1.8-1.31,3.61-2.55,5.33-3.71
			c-1.42,1.59-2.81,3.221-4.07,4.84L27.51,78.318z"/>
		<path fill="#AC320F" d="M21.48,90.738l-7.62,8.551c0.12-0.49,0.24-0.971,0.36-1.44L21.48,90.738z"/>
		<path fill="#AC320F" d="M52.71,24.028l-12.1,13.19c0.27-0.83,0.5-1.57,0.66-2.17c0.09-0.32,0.18-0.67,0.29-1.04
			C47.45,28.328,52.71,24.028,52.71,24.028z"/>
		<path fill="#AC320F" d="M128.66,29.868l-15.31-4.95C119.95,22.388,128.66,29.868,128.66,29.868z"/>
		<path fill="#AC320F" d="M133.98,27.388l-12.97-9.52C128.07,17.538,133.98,27.388,133.98,27.388z"/>
		<path fill="#AC320F" d="M140.27,43.288c0,4.22-2.99,7.64-7.99,7.64s-11.27-4.54-11.27-8.76s4.92-6.9,10.2-6.51
			C136.2,36.018,140.27,39.078,140.27,43.288z"/>
		<path fill="#AC320F" d="M156.31,79.598c-2.23-0.63-5.69-9.59-5.9-10.149L156.31,79.598z"/>
		<path fill="#AC320F" d="M164.3,80.148l-12.59-16.64C157.32,66.698,164.3,80.148,164.3,80.148z"/>
		<path fill="#AC320F" d="M229.61,101.428c-1.61-9.52-12.021-53.05-67.061-45.14c0,0,0.73-7.92,3.61-8.87
			c4.35-1.431,6.16,0.76,8.859,0c2.49-0.69,3.45-1.47,3.45-1.47s-0.41-1.28-3.609-1.65c-3.76-0.43-6.73,0.729-8.371-1.03
			c-1.65-1.76-5.38-3.189-0.66-2.74c2.78,0.261,5.25-0.329,6.24,0c0.98,0.33-0.66-2.52-3.29-2.899c-2.62-0.391-4.8-2.01-6.43-5.65
			c0.05,0.03,0.1,0.061,0.14,0.08c0.01,0,0.01,0,0.01,0c3.93,2.34,7.39,3.8,9.98,4.7c0.02,0.01,0.05,0.02,0.07,0.02
			c3.04,1.061,4.88,1.341,4.88,1.341C233.479,52.028,230.27,95.758,229.61,101.428z"/>
		<path fill="#D56E1A" d="M140.27,43.288c0,4.22-2.99,7.64-7.99,7.64s-11.27-4.54-11.27-8.76s4.92-6.9,10.2-6.51
			C136.2,36.018,140.27,39.078,140.27,43.288z"/>
		<path d="M136.331,42.441c0-2.901-2.462-4.815-5.363-4.815c-2.901,0-6.349,1.367-6.349,4.269c0,2.902,3.994,5.528,6.896,5.528
			C134.417,47.422,136.331,45.343,136.331,42.441z"/>
		<path fill="#FFFFFF" d="M229.87,103.248c0,0-0.07-0.65-0.26-1.811c0,0,0,0,0-0.01c-1.61-9.52-12.021-53.05-67.061-45.14
			c0,0,0.73-7.92,3.61-8.87c4.35-1.431,6.16,0.76,8.859,0c2.49-0.69,3.45-1.47,3.45-1.47s-0.41-1.28-3.609-1.65
			c-3.76-0.43-6.73,0.729-8.371-1.03c-1.65-1.76-5.38-3.189-0.66-2.74c2.78,0.261,5.25-0.329,6.24,0c0.98,0.33-0.66-2.52-3.29-2.899
			c-2.62-0.391-4.8-2.01-6.43-5.65v-0.01c0.02,0,0.06,0.03,0.14,0.09c0.01,0,0.01,0,0.01,0c0.8,0.58,4.56,3.57,9.98,4.7
			c0.02,0.01,0.05,0.02,0.07,0.02C197.19,41.838,234.35,58.258,229.87,103.248z"/>
		<path fill="#FFFFFF" d="M164.3,80.148l-12.59-16.64C157.32,66.698,164.3,80.148,164.3,80.148z"/>
		<path fill="#FFFFFF" d="M156.31,79.598c-2.23-0.63-5.69-9.59-5.9-10.149L156.31,79.598z"/>
		<path fill="#FFFFFF" d="M133.98,27.388l-12.97-9.52C128.07,17.538,133.98,27.388,133.98,27.388z"/>
		<path fill="#FFFFFF" d="M128.66,29.868l-15.31-4.95C119.95,22.388,128.66,29.868,128.66,29.868z"/>
		<g>
			<path fill="#AC320F" d="M227.891,94.049c-0.525-2.445-1.289-4.827-2.208-7.141c-0.898-2.321-1.952-4.58-3.154-6.754
				c-2.393-4.349-5.302-8.415-8.748-11.979c-3.386-3.622-7.302-6.729-11.514-9.36c-4.212-2.638-8.757-4.742-13.451-6.469
				c2.415,0.658,4.78,1.5,7.104,2.449c2.311,0.979,4.565,2.102,6.744,3.361c4.353,2.53,8.339,5.698,11.841,9.33
				c3.445,3.684,6.419,7.819,8.7,12.312C225.465,84.287,227.208,89.08,227.891,94.049z"/>
		</g>
		<path fill="#FFFFFF" d="M132.71,41.37c0-1.107-0.94-1.838-2.047-1.838s-2.423,0.521-2.423,1.629c0,1.106,1.525,2.109,2.632,2.109
			S132.71,42.478,132.71,41.37z"/>
	</g>
	<g>
		<path fill="#BB3711" d="M33.05,57.078c-0.2,0.43-0.38,0.83-0.54,1.18c-0.24,0.5-0.56,1.15-0.97,1.91l-2.02,1.42l-3.1,2.17
			l-8.35,5.85c2.49-3.409,7.06-7.12,11.96-10.5c0.66-0.46,1.32-0.909,1.99-1.35C32.36,57.528,32.71,57.298,33.05,57.078z"/>
		<path fill="#BB3711" d="M36.08,49.658c-0.45,1.159-0.9,2.279-1.32,3.34l-8.07,6.64C28.63,56.498,32.14,53.008,36.08,49.658z"/>
		<path fill="#BB3711" d="M52.71,24.028l-12.1,13.19v0.01l-14.03,15.29c2.46-5.6,9.04-12.76,14.98-18.51
			C47.45,28.328,52.71,24.028,52.71,24.028z"/>
		<path fill="#BB3711" d="M12.03,108.028c-0.19,1.091-0.37,2.221-0.54,3.381l-3.23,4.069l-0.01,0.01l-2.21,2.78
			c0.65-1.819,1.7-3.819,3.01-5.91C9.93,110.938,10.94,109.488,12.03,108.028z"/>
		<path fill="#BB3711" d="M21.48,90.738l-7.62,8.551l-2.08,2.33l-0.01,0.01l-1.25,1.41l-5.31,5.96c0.78-1.851,2.01-3.87,3.5-5.96
			c1.04-1.45,2.2-2.92,3.45-4.4c0.01,0,0.01-0.01,0.01-0.02c0.18-0.2,0.34-0.4,0.52-0.601c0.69-0.81,1.41-1.62,2.14-2.42
			c-0.21,0.71-0.41,1.46-0.61,2.25L21.48,90.738z"/>
		<path fill="#BB3711" d="M24.89,78.688c-1.42,1.59-2.81,3.221-4.07,4.84l-2.66,2.08L5.15,95.728c2.8-4.27,8.61-9.12,14.41-13.319
			v-0.011C21.36,81.088,23.17,79.848,24.89,78.688z"/>
		<path fill="#BB3711" d="M15.08,94.688c-0.08,0.29-0.17,0.601-0.25,0.91c-0.21,0.71-0.41,1.46-0.61,2.25l-1.97,1.92l-0.01,0.01
			l-0.82,0.811l-2.93,2.87c0.07-0.141,0.14-0.28,0.22-0.42c0.95-1.761,2.31-3.65,3.91-5.58c0.01-0.01,0.01-0.01,0.01-0.01
			c0.11-0.12,0.2-0.23,0.29-0.351l0.01-0.01C13.62,96.288,14.33,95.498,15.08,94.688z"/>
		<path fill="#BB3711" d="M27.51,78.318L16.08,91.408l-0.71,0.81c0.35-0.85,0.8-1.75,1.32-2.67c1.09-1.92,2.52-3.96,4.13-6.021
			L27.51,78.318z"/>
		<path fill="#BB3711" d="M35.19,52.888l-1.07,1.65l-2.1,3.22l-2.5,3.83l-15.43,23.63c1.57-6.16,7.25-14.7,12.33-21.46
			c1.26-1.68,2.49-3.25,3.61-4.65c1.91-2.409,3.51-4.3,4.42-5.35c-0.01-0.01-0.01-0.01,0-0.01
			C34.83,53.288,35.09,52.998,35.19,52.888z"/>
		<path fill="#BB3711" d="M10.97,141.918l-6.41,11.51c0.75-4.11,3.18-9.36,6.07-14.49C10.72,139.898,10.83,140.888,10.97,141.918z"
			/>
		<path fill="#BB3711" d="M10.18,131.858l-7.95,12.57c1.08-4.49,4.31-10.27,7.9-15.72C10.13,129.638,10.14,130.698,10.18,131.858z"
			/>
		<path fill="#BB3711" d="M10.79,117.128c-0.1,0.91-0.18,1.84-0.25,2.79l-4.71,5.1l-1.85,2.01l-0.01,0.011l-3.97,4.3
			c0.95-2.14,2.5-4.5,4.39-6.93c0.72-0.931,1.5-1.87,2.31-2.811C8,120.088,9.38,118.588,10.79,117.128z"/>
		<path fill="#BB3711" d="M13.188,96.054c0,0-10.48,25.329-9.515,37.476L13.188,96.054z"/>
		<path fill="#BB3711" d="M19.65,170.898l-0.01,0.88c-0.19-0.601-0.36-1.239-0.51-1.909C19.3,170.218,19.48,170.558,19.65,170.898z"
			/>
		<path fill="#BB3711" d="M12.84,152.238l-1.91,9.521c-0.48-3.69,0.04-8.65,1-13.771C12.19,149.368,12.49,150.788,12.84,152.238z"/>
		<path fill="#BB3711" d="M48.14,205.868c-1.28-2.181-2.37-5.091-3.28-8.33c0.6,0.43,1.21,0.84,1.82,1.239L48.14,205.868z"/>
		<path fill="#BB3711" d="M40.5,200.558c-1.2-2.33-2.15-5.43-2.89-8.858c0.59,0.54,1.2,1.068,1.81,1.6L40.5,200.558z"/>
		<path fill="#BB3711" d="M30.54,184.668l-0.26,7.43c-0.75-2.479-1.12-5.64-1.24-9.09C29.52,183.548,30.02,184.108,30.54,184.668z"
			/>
	</g>
	<g>
		<path fill="#BB3711" d="M166.065,85.115c0,0,16.215,13.45,19.921,22.053"/>
		<path fill="#BB3711" d="M163.088,74.686c0,0,15.122,14.67,18.148,23.534"/>
		<path fill="#BB3711" d="M173.816,118.887c0,0,11.727,17.503,12.836,26.803"/>
		<path fill="#BB3711" d="M174.545,112.85c0,0,12.688,16.818,14.317,26.042"/>
		<path fill="#BB3711" d="M172.398,105.927c0,0,15.519,14.25,18.785,23.028"/>
		<path fill="#BB3711" d="M171.303,109.167c0,0,13.801,15.916,16.055,25.008"/>
		<path fill="#BB3711" d="M170.066,98.393c0,0,12.526,16.94,14.064,26.181"/>
		<path fill="#BB3711" d="M176.008,91.662c0,0,10.043,18.52,10.281,27.883"/>
		<path fill="#BB3711" d="M173.439,143.753c0,0,8.713,19.18,8.291,28.538"/>
		<path fill="#BB3711" d="M175.143,137.915c0,0,9.774,18.664,9.878,28.028"/>
		<path fill="#BB3711" d="M174.155,130.735c0,0,12.984,16.591,14.775,25.783"/>
		<path fill="#BB3711" d="M185.106,127.822c0,0,3.507,20.774,0.7,29.712"/>
		<path fill="#BB3711" d="M168.937,158.47c0,0-2.539,20.915-7.767,28.688"/>
		<path fill="#BB3711" d="M173.431,154.371c0,0-1.364,21.023-6.148,29.073"/>
		<path fill="#BB3711" d="M176.322,147.726c0,0,2.458,20.924-0.796,29.707"/>
		<path fill="#BB3711" d="M173.377,149.464c0,0,0.07,21.068-4.158,29.425"/>
		<path fill="#BB3711" d="M152.422,177.064c0,0-5.917,20.222-12.343,27.032"/>
		<path fill="#BB3711" d="M157.525,173.751c0,0-4.775,20.521-10.81,27.686"/>
		<path fill="#BB3711" d="M161.461,167.667c0,0-0.989,21.043-5.633,29.18"/>
	</g>
</g>
</svg>
