<?xml version="1.0" encoding="utf-8"?>
<!-- Generator: Adobe Illustrator 15.1.0, SVG Export Plug-In . SVG Version: 6.00 Build 0)  -->
<!DOCTYPE svg PUBLIC "-//W3C//DTD SVG 1.1//EN" "http://www.w3.org/Graphics/SVG/1.1/DTD/svg11.dtd">
<svg version="1.1" id="Layer_1" xmlns="http://www.w3.org/2000/svg" xmlns:xlink="http://www.w3.org/1999/xlink" x="0px" y="0px"
	 width="172.333px" height="52.25px" viewBox="-113.958 0 172.333 52.25" enable-background="new -113.958 0 172.333 52.25"
	 xml:space="preserve">
<g>
	<path d="M-90.647,22.64c0,0.176-0.06,0.304-0.18,0.384s-0.244,0.12-0.372,0.12c-0.128,0-0.24-0.057-0.336-0.168l-7.2-8.904
		l-3.6,3.336v5.112c-0.016,0.144-0.072,0.264-0.168,0.36c-0.096,0.096-0.208,0.144-0.336,0.144c-0.16,0-0.284-0.048-0.372-0.144
		c-0.088-0.097-0.132-0.217-0.132-0.36V6.728c0-0.145,0.048-0.264,0.144-0.36c0.096-0.096,0.216-0.144,0.36-0.144
		s0.264,0.048,0.36,0.144c0.096,0.097,0.144,0.216,0.144,0.36v9.456l10.368-9.72c0.096-0.097,0.208-0.145,0.336-0.145
		s0.24,0.048,0.336,0.145C-91.2,6.56-91.152,6.672-91.152,6.8s-0.048,0.239-0.144,0.336l-6.648,6.191l7.176,8.977
		C-90.688,22.416-90.647,22.527-90.647,22.64z"/>
	<path d="M-78.12,20.275c0.08,0.088,0.12,0.188,0.12,0.3c0,0.112-0.032,0.208-0.096,0.288c-0.528,0.704-1.185,1.28-1.968,1.729
		c-0.784,0.447-1.624,0.672-2.52,0.672c-1.2,0-2.264-0.256-3.192-0.769c-0.928-0.512-1.652-1.239-2.172-2.184
		c-0.52-0.944-0.78-2.04-0.78-3.288c0-1.28,0.252-2.403,0.756-3.372c0.504-0.968,1.172-1.708,2.004-2.22
		c0.832-0.512,1.72-0.769,2.664-0.769c0.944,0,1.82,0.204,2.628,0.612c0.808,0.408,1.468,1.021,1.98,1.836
		c0.512,0.816,0.784,1.824,0.816,3.024c0,0.128-0.048,0.244-0.144,0.348c-0.096,0.104-0.208,0.156-0.336,0.156h-9.432v0.312
		c0,0.992,0.2,1.9,0.6,2.725s0.992,1.476,1.776,1.956c0.784,0.479,1.728,0.72,2.832,0.72c0.768,0,1.492-0.188,2.172-0.564
		c0.68-0.375,1.212-0.852,1.596-1.428c0.112-0.144,0.248-0.216,0.408-0.216C-78.296,20.144-78.2,20.188-78.12,20.275z
		 M-85.116,12.092c-0.616,0.312-1.161,0.776-1.632,1.392c-0.472,0.616-0.788,1.364-0.948,2.244h8.832v-0.216
		c-0.081-0.816-0.34-1.516-0.78-2.101c-0.44-0.584-0.984-1.027-1.632-1.332c-0.648-0.304-1.324-0.456-2.028-0.456
		C-83.896,11.623-84.5,11.779-85.116,12.092z"/>
	<path d="M-64.968,20.275c0.08,0.088,0.12,0.188,0.12,0.3c0,0.112-0.032,0.208-0.096,0.288c-0.528,0.704-1.185,1.28-1.968,1.729
		c-0.784,0.447-1.624,0.672-2.52,0.672c-1.2,0-2.264-0.256-3.192-0.769c-0.928-0.512-1.652-1.239-2.172-2.184
		c-0.52-0.944-0.78-2.04-0.78-3.288c0-1.28,0.252-2.403,0.756-3.372c0.504-0.968,1.172-1.708,2.004-2.22
		c0.832-0.512,1.72-0.769,2.664-0.769c0.944,0,1.82,0.204,2.628,0.612c0.808,0.408,1.468,1.021,1.98,1.836
		c0.512,0.816,0.784,1.824,0.816,3.024c0,0.128-0.048,0.244-0.144,0.348c-0.096,0.104-0.208,0.156-0.336,0.156h-9.432v0.312
		c0,0.992,0.2,1.9,0.6,2.725s0.992,1.476,1.776,1.956c0.784,0.479,1.728,0.72,2.832,0.72c0.768,0,1.492-0.188,2.172-0.564
		c0.68-0.375,1.212-0.852,1.596-1.428c0.112-0.144,0.248-0.216,0.408-0.216C-65.144,20.144-65.048,20.188-64.968,20.275z
		 M-71.964,12.092c-0.616,0.312-1.161,0.776-1.632,1.392c-0.472,0.616-0.788,1.364-0.948,2.244h8.832v-0.216
		c-0.081-0.816-0.34-1.516-0.78-2.101c-0.44-0.584-0.984-1.027-1.632-1.332c-0.648-0.304-1.324-0.456-2.028-0.456
		C-70.744,11.623-71.348,11.779-71.964,12.092z"/>
	<path d="M-53.16,11.695c0.848,0.528,1.512,1.257,1.992,2.185s0.72,1.976,0.72,3.144c0,1.152-0.244,2.196-0.732,3.132
		c-0.488,0.937-1.156,1.672-2.004,2.208c-0.848,0.536-1.792,0.804-2.832,0.804c-0.96,0-1.84-0.239-2.64-0.72
		c-0.8-0.479-1.456-1.16-1.968-2.04v6.937c0,0.128-0.044,0.239-0.132,0.336c-0.088,0.096-0.204,0.144-0.348,0.144
		c-0.128,0-0.24-0.048-0.336-0.144c-0.096-0.097-0.144-0.208-0.144-0.336v-15.96c0-0.128,0.043-0.24,0.132-0.336
		c0.088-0.097,0.204-0.145,0.348-0.145s0.26,0.048,0.348,0.145c0.088,0.096,0.132,0.208,0.132,0.336v2.208
		c0.48-0.912,1.12-1.588,1.92-2.028c0.8-0.439,1.696-0.66,2.688-0.66C-54.96,10.903-54.008,11.167-53.16,11.695z M-53.688,21.583
		c0.704-0.447,1.26-1.071,1.668-1.871c0.408-0.801,0.612-1.696,0.612-2.688s-0.204-1.884-0.612-2.676
		c-0.408-0.792-0.964-1.412-1.668-1.86c-0.705-0.447-1.497-0.672-2.376-0.672c-0.896,0-1.701,0.22-2.412,0.66
		c-0.712,0.44-1.264,1.056-1.656,1.848s-0.588,1.692-0.588,2.7s0.196,1.908,0.588,2.7s0.944,1.412,1.656,1.859
		c0.711,0.448,1.516,0.673,2.412,0.673C-55.185,22.256-54.393,22.031-53.688,21.583z"/>
	<path d="M-102.144,45.451c-0.88-0.408-1.752-1.044-2.616-1.908c-0.096-0.096-0.144-0.216-0.144-0.359
		c0-0.128,0.056-0.252,0.168-0.372s0.232-0.181,0.36-0.181c0.144,0,0.28,0.072,0.408,0.217c0.624,0.735,1.364,1.296,2.22,1.68
		c0.855,0.384,1.756,0.576,2.7,0.576c1.232,0,2.248-0.296,3.048-0.889c0.8-0.592,1.2-1.375,1.2-2.352
		c-0.016-0.768-0.224-1.4-0.624-1.896c-0.4-0.495-0.892-0.892-1.476-1.188c-0.584-0.296-1.38-0.628-2.388-0.996
		c-1.104-0.416-1.964-0.784-2.58-1.104c-0.616-0.32-1.144-0.776-1.584-1.368c-0.44-0.592-0.66-1.368-0.66-2.328
		c0-0.784,0.216-1.496,0.648-2.136c0.432-0.641,1.048-1.145,1.848-1.513c0.8-0.367,1.728-0.552,2.784-0.552
		c0.944,0,1.84,0.172,2.688,0.516c0.848,0.345,1.52,0.828,2.016,1.452c0.16,0.225,0.24,0.393,0.24,0.504
		c0,0.129-0.06,0.244-0.18,0.349c-0.12,0.104-0.252,0.155-0.396,0.155c-0.128,0-0.232-0.048-0.312-0.144
		c-0.448-0.576-1.024-1.032-1.728-1.368c-0.705-0.336-1.48-0.504-2.328-0.504c-1.216,0-2.229,0.288-3.036,0.864
		c-0.808,0.576-1.212,1.36-1.212,2.352c0,0.688,0.196,1.272,0.588,1.752c0.392,0.48,0.884,0.868,1.476,1.164
		c0.592,0.297,1.328,0.604,2.208,0.924c1.12,0.4,2.008,0.769,2.664,1.104c0.656,0.336,1.216,0.824,1.68,1.464
		c0.464,0.641,0.696,1.488,0.696,2.544c0,0.736-0.216,1.425-0.648,2.064c-0.432,0.64-1.052,1.147-1.86,1.523
		s-1.732,0.564-2.772,0.564C-100.232,46.063-101.264,45.859-102.144,45.451z"/>
	<path d="M-82.152,35.012c0.736,0.872,1.104,1.979,1.104,3.323v7.008c0,0.129-0.048,0.24-0.144,0.337
		c-0.096,0.096-0.208,0.144-0.336,0.144c-0.144,0-0.26-0.048-0.348-0.144c-0.088-0.097-0.132-0.208-0.132-0.337v-7.008
		c0-1.104-0.272-2-0.816-2.688c-0.544-0.688-1.376-1.032-2.496-1.032c-0.688,0-1.364,0.168-2.028,0.504s-1.204,0.792-1.62,1.368
		c-0.417,0.576-0.624,1.192-0.624,1.848v7.008c0,0.129-0.048,0.24-0.144,0.337c-0.096,0.096-0.208,0.144-0.336,0.144
		c-0.144,0-0.26-0.048-0.348-0.144c-0.088-0.097-0.132-0.208-0.132-0.337v-16.8c0-0.128,0.048-0.239,0.144-0.336
		c0.096-0.096,0.208-0.144,0.336-0.144c0.144,0,0.26,0.048,0.348,0.144c0.088,0.097,0.132,0.208,0.132,0.336v7.584
		c0.448-0.703,1.068-1.284,1.86-1.739c0.792-0.456,1.596-0.685,2.412-0.685C-83.944,33.703-82.888,34.14-82.152,35.012z"/>
	<path d="M-66.84,42.979c-0.512,0.952-1.22,1.704-2.124,2.256s-1.908,0.828-3.012,0.828s-2.108-0.276-3.012-0.828
		s-1.616-1.309-2.136-2.269c-0.52-0.96-0.78-2.023-0.78-3.191c0-1.184,0.26-2.256,0.78-3.216c0.52-0.96,1.228-1.717,2.124-2.269
		c0.896-0.552,1.904-0.828,3.024-0.828c1.104,0,2.108,0.276,3.012,0.828s1.612,1.309,2.124,2.269s0.768,2.032,0.768,3.216
		C-66.072,40.96-66.328,42.027-66.84,42.979z M-67.668,37.016c-0.424-0.816-1.012-1.46-1.764-1.933
		c-0.752-0.472-1.6-0.708-2.544-0.708c-0.928,0-1.772,0.236-2.532,0.708c-0.76,0.473-1.356,1.116-1.788,1.933
		c-0.432,0.815-0.648,1.736-0.648,2.76c0,1.008,0.216,1.92,0.648,2.736c0.432,0.815,1.028,1.46,1.788,1.932s1.604,0.708,2.532,0.708
		c0.944,0,1.792-0.231,2.544-0.696c0.752-0.464,1.34-1.107,1.764-1.932c0.423-0.824,0.636-1.74,0.636-2.748
		C-67.032,38.752-67.245,37.831-67.668,37.016z"/>
	<path d="M-54.504,34.495c0.848,0.528,1.512,1.257,1.992,2.185s0.72,1.976,0.72,3.144c0,1.152-0.244,2.196-0.732,3.132
		c-0.488,0.937-1.156,1.672-2.004,2.208c-0.848,0.536-1.792,0.804-2.832,0.804c-0.96,0-1.84-0.239-2.64-0.72
		c-0.8-0.479-1.456-1.16-1.968-2.04v6.937c0,0.128-0.044,0.239-0.132,0.336c-0.088,0.096-0.204,0.144-0.348,0.144
		c-0.128,0-0.24-0.048-0.336-0.144c-0.096-0.097-0.144-0.208-0.144-0.336v-15.96c0-0.128,0.043-0.24,0.132-0.336
		c0.088-0.097,0.204-0.145,0.348-0.145s0.26,0.048,0.348,0.145c0.088,0.096,0.132,0.208,0.132,0.336v2.208
		c0.48-0.912,1.12-1.588,1.92-2.028c0.8-0.439,1.696-0.66,2.688-0.66C-56.304,33.703-55.353,33.967-54.504,34.495z M-55.032,44.383
		c0.704-0.447,1.26-1.071,1.668-1.871c0.408-0.801,0.612-1.696,0.612-2.688s-0.204-1.884-0.612-2.676
		c-0.408-0.792-0.964-1.412-1.668-1.86c-0.705-0.447-1.497-0.672-2.376-0.672c-0.896,0-1.701,0.22-2.412,0.66
		c-0.712,0.44-1.264,1.056-1.656,1.848s-0.588,1.692-0.588,2.7s0.196,1.908,0.588,2.7s0.944,1.412,1.656,1.859
		c0.711,0.448,1.516,0.673,2.412,0.673C-56.529,45.056-55.737,44.831-55.032,44.383z"/>
	<path d="M-40.225,34.495c0.848,0.528,1.512,1.257,1.992,2.185s0.72,1.976,0.72,3.144c0,1.152-0.244,2.196-0.732,3.132
		c-0.488,0.937-1.156,1.672-2.004,2.208c-0.848,0.536-1.792,0.804-2.832,0.804c-0.96,0-1.84-0.239-2.64-0.72
		c-0.8-0.479-1.456-1.16-1.968-2.04v6.937c0,0.128-0.044,0.239-0.132,0.336c-0.088,0.096-0.204,0.144-0.348,0.144
		c-0.128,0-0.24-0.048-0.336-0.144c-0.096-0.097-0.144-0.208-0.144-0.336v-15.96c0-0.128,0.043-0.24,0.132-0.336
		c0.088-0.097,0.204-0.145,0.348-0.145s0.26,0.048,0.348,0.145c0.088,0.096,0.132,0.208,0.132,0.336v2.208
		c0.48-0.912,1.12-1.588,1.92-2.028c0.8-0.439,1.696-0.66,2.688-0.66C-42.024,33.703-41.073,33.967-40.225,34.495z M-40.752,44.383
		c0.704-0.447,1.26-1.071,1.668-1.871c0.408-0.801,0.612-1.696,0.612-2.688s-0.204-1.884-0.612-2.676
		c-0.408-0.792-0.964-1.412-1.668-1.86c-0.705-0.447-1.497-0.672-2.376-0.672c-0.896,0-1.701,0.22-2.412,0.66
		c-0.712,0.44-1.264,1.056-1.656,1.848s-0.588,1.692-0.588,2.7s0.196,1.908,0.588,2.7s0.944,1.412,1.656,1.859
		c0.711,0.448,1.516,0.673,2.412,0.673C-42.249,45.056-41.457,44.831-40.752,44.383z"/>
	<path d="M-34.501,31.615c-0.152-0.144-0.228-0.328-0.228-0.552v-0.192c0-0.224,0.08-0.408,0.24-0.552
		c0.16-0.145,0.368-0.216,0.624-0.216c0.224,0,0.412,0.071,0.564,0.216c0.152,0.144,0.228,0.328,0.228,0.552v0.192
		c0,0.224-0.076,0.408-0.228,0.552c-0.152,0.144-0.348,0.216-0.588,0.216C-34.145,31.831-34.349,31.759-34.501,31.615z
		 M-33.553,45.68c-0.096,0.096-0.208,0.144-0.336,0.144c-0.144,0-0.26-0.048-0.348-0.144c-0.088-0.097-0.132-0.208-0.132-0.337
		V33.943c0-0.128,0.048-0.24,0.144-0.336c0.096-0.096,0.208-0.145,0.336-0.145c0.144,0,0.26,0.049,0.348,0.145
		s0.132,0.208,0.132,0.336v11.399C-33.409,45.472-33.457,45.583-33.553,45.68z"/>
	<path d="M-20.761,34.724c0.72,0.84,1.08,1.932,1.08,3.275v7.344c0,0.129-0.048,0.24-0.144,0.337
		c-0.096,0.096-0.208,0.144-0.336,0.144c-0.144,0-0.26-0.048-0.348-0.144c-0.088-0.097-0.132-0.208-0.132-0.337v-7.247
		c0-1.088-0.284-1.98-0.852-2.677c-0.568-0.695-1.428-1.044-2.58-1.044c-0.705,0-1.396,0.168-2.076,0.504
		c-0.68,0.336-1.236,0.792-1.668,1.368s-0.648,1.192-0.648,1.849v7.247c0,0.129-0.048,0.24-0.144,0.337
		c-0.096,0.096-0.208,0.144-0.336,0.144c-0.144,0-0.26-0.048-0.348-0.144c-0.088-0.097-0.132-0.208-0.132-0.337V34.327
		c0-0.128,0.048-0.24,0.144-0.336c0.096-0.096,0.208-0.144,0.336-0.144c0.144,0,0.26,0.048,0.348,0.144s0.132,0.208,0.132,0.336
		v1.608c0.464-0.721,1.116-1.312,1.956-1.776c0.84-0.464,1.684-0.696,2.532-0.696C-22.553,33.463-21.481,33.883-20.761,34.724z"/>
	<path d="M-5.053,33.991c0.087,0.096,0.132,0.208,0.132,0.336v10.32c0,1.216-0.249,2.271-0.744,3.168
		c-0.496,0.896-1.192,1.588-2.088,2.076c-0.896,0.487-1.92,0.731-3.072,0.731c-0.64,0-1.288-0.084-1.944-0.252
		c-0.656-0.168-1.196-0.384-1.62-0.647c-0.424-0.265-0.636-0.532-0.636-0.805c0-0.128,0.036-0.231,0.108-0.312
		c0.072-0.08,0.172-0.12,0.3-0.12c0.096,0,0.24,0.08,0.432,0.24c0.224,0.224,0.472,0.392,0.744,0.504
		c0.784,0.319,1.672,0.479,2.664,0.479c1.503,0,2.696-0.464,3.576-1.392s1.32-2.152,1.32-3.672v-1.656
		c-0.432,1.024-1.101,1.792-2.004,2.304c-0.904,0.513-1.853,0.769-2.844,0.769c-1.088,0-2.076-0.276-2.964-0.828
		c-0.888-0.552-1.584-1.309-2.088-2.269c-0.504-0.96-0.756-2.031-0.756-3.216c0-1.184,0.252-2.256,0.756-3.216
		c0.504-0.96,1.2-1.712,2.088-2.256c0.888-0.544,1.875-0.816,2.964-0.816c1.072,0,2.052,0.284,2.94,0.853
		c0.888,0.568,1.524,1.252,1.908,2.052v-2.04c0-0.128,0.044-0.24,0.132-0.336s0.204-0.144,0.348-0.144S-5.141,33.896-5.053,33.991z
		 M-8.173,44.467c0.744-0.455,1.328-1.092,1.752-1.907c0.424-0.816,0.636-1.752,0.636-2.809c0-1.056-0.212-1.992-0.636-2.808
		c-0.424-0.816-1.008-1.448-1.752-1.896c-0.744-0.447-1.581-0.672-2.508-0.672s-1.764,0.232-2.508,0.696s-1.328,1.104-1.752,1.92
		c-0.424,0.816-0.636,1.736-0.636,2.76c0,1.024,0.212,1.944,0.636,2.761c0.424,0.815,1.008,1.46,1.752,1.932s1.58,0.708,2.508,0.708
		S-8.917,44.923-8.173,44.467z"/>
</g>
<g>
	<g>
		<polygon fill="#86C800" points="55.916,18.783 55.916,33.512 32.218,33.512 32.218,44.932 -0.5,26.046 32.218,7.149 
			32.218,18.783 		"/>
	</g>
</g>
</svg>
