<?xml version="1.0" encoding="utf-8"?>
<!-- Generator: Adobe Illustrator 23.0.1, SVG Export Plug-In . SVG Version: 6.00 Build 0)  -->
<svg version="1.1" id="Layer_1" xmlns="http://www.w3.org/2000/svg" xmlns:xlink="http://www.w3.org/1999/xlink" x="0px" y="0px"
	 viewBox="0 0 178.2 69.9" style="enable-background:new 0 0 178.2 69.9;" xml:space="preserve">
<style type="text/css">
	.st0{fill:none;stroke:url(#SVGID_1_);stroke-width:6;stroke-miterlimit:10;}
	.st1{fill:#FFFFFF;stroke:#FFFFFF;stroke-width:0.5;stroke-miterlimit:10;}
	.st2{fill:#FFFFFF;}
</style>
<path d="M164.2,64.7H14.8c-5,0-9.1-4.1-9.1-9.1V14.6c0-5,4.1-9.1,9.1-9.1h149.4c5,0,9.1,4.1,9.1,9.1v41.1
	C173.3,60.6,169.2,64.7,164.2,64.7z"/>
<linearGradient id="SVGID_1_" gradientUnits="userSpaceOnUse" x1="0.7953" y1="35.0937" x2="178.1667" y2="35.0937">
	<stop  offset="0" style="stop-color:#1E4E9A"/>
	<stop  offset="0.492" style="stop-color:#27D146"/>
	<stop  offset="1" style="stop-color:#C73DC9"/>
</linearGradient>
<path class="st0" d="M166.1,65.4H12.9c-5,0-9.1-4.1-9.1-9.1V13.9c0-5,4.1-9.1,9.1-9.1h153.2c5,0,9.1,4.1,9.1,9.1v42.4
	C175.2,61.3,171.1,65.4,166.1,65.4z"/>
<g>
	<path class="st1" d="M30.5,29.8c0,0.2-0.1,0.3-0.2,0.3c-0.1,0.1-0.2,0.1-0.3,0.1c-0.1,0-0.2-0.1-0.3-0.1l-6.4-7.9l-3.2,3v4.6
		c0,0.1-0.1,0.2-0.1,0.3s-0.2,0.1-0.3,0.1c-0.1,0-0.3,0-0.3-0.1c-0.1-0.1-0.1-0.2-0.1-0.3V15.6c0-0.1,0-0.2,0.1-0.3
		c0.1-0.1,0.2-0.1,0.3-0.1c0.1,0,0.2,0,0.3,0.1c0.1,0.1,0.1,0.2,0.1,0.3V24l9.2-8.7c0.1-0.1,0.2-0.1,0.3-0.1c0.1,0,0.2,0,0.3,0.1
		c0.1,0.1,0.1,0.2,0.1,0.3c0,0.1,0,0.2-0.1,0.3L24,21.5l6.4,8C30.4,29.6,30.5,29.7,30.5,29.8z"/>
	<path class="st1" d="M41.6,27.7c0.1,0.1,0.1,0.2,0.1,0.3s0,0.2-0.1,0.3c-0.5,0.6-1.1,1.1-1.8,1.5c-0.7,0.4-1.4,0.6-2.2,0.6
		c-1.1,0-2-0.2-2.8-0.7c-0.8-0.5-1.5-1.1-1.9-1.9c-0.5-0.8-0.7-1.8-0.7-2.9c0-1.1,0.2-2.1,0.7-3c0.4-0.9,1-1.5,1.8-2
		c0.7-0.5,1.5-0.7,2.4-0.7s1.6,0.2,2.3,0.5s1.3,0.9,1.8,1.6c0.5,0.7,0.7,1.6,0.7,2.7c0,0.1,0,0.2-0.1,0.3c-0.1,0.1-0.2,0.1-0.3,0.1
		H33v0.3c0,0.9,0.2,1.7,0.5,2.4c0.4,0.7,0.9,1.3,1.6,1.7c0.7,0.4,1.5,0.6,2.5,0.6c0.7,0,1.3-0.2,1.9-0.5c0.6-0.3,1.1-0.8,1.4-1.3
		c0.1-0.1,0.2-0.2,0.4-0.2C41.5,27.5,41.6,27.6,41.6,27.7z M35.4,20.4c-0.5,0.3-1,0.7-1.5,1.2c-0.4,0.5-0.7,1.2-0.8,2H41v-0.2
		c-0.1-0.7-0.3-1.4-0.7-1.9c-0.4-0.5-0.9-0.9-1.5-1.2c-0.6-0.3-1.2-0.4-1.8-0.4C36.5,19.9,35.9,20.1,35.4,20.4z"/>
	<path class="st1" d="M53.4,27.7c0.1,0.1,0.1,0.2,0.1,0.3s0,0.2-0.1,0.3c-0.5,0.6-1.1,1.1-1.8,1.5c-0.7,0.4-1.4,0.6-2.2,0.6
		c-1.1,0-2-0.2-2.8-0.7c-0.8-0.5-1.5-1.1-1.9-1.9c-0.5-0.8-0.7-1.8-0.7-2.9c0-1.1,0.2-2.1,0.7-3c0.4-0.9,1-1.5,1.8-2
		c0.7-0.5,1.5-0.7,2.4-0.7s1.6,0.2,2.3,0.5s1.3,0.9,1.8,1.6c0.5,0.7,0.7,1.6,0.7,2.7c0,0.1,0,0.2-0.1,0.3c-0.1,0.1-0.2,0.1-0.3,0.1
		h-8.4v0.3c0,0.9,0.2,1.7,0.5,2.4c0.4,0.7,0.9,1.3,1.6,1.7c0.7,0.4,1.5,0.6,2.5,0.6c0.7,0,1.3-0.2,1.9-0.5c0.6-0.3,1.1-0.8,1.4-1.3
		c0.1-0.1,0.2-0.2,0.4-0.2C53.2,27.5,53.3,27.6,53.4,27.7z M47.1,20.4c-0.5,0.3-1,0.7-1.5,1.2c-0.4,0.5-0.7,1.2-0.8,2h7.9v-0.2
		c-0.1-0.7-0.3-1.4-0.7-1.9c-0.4-0.5-0.9-0.9-1.5-1.2c-0.6-0.3-1.2-0.4-1.8-0.4C48.2,19.9,47.7,20.1,47.1,20.4z"/>
	<path class="st1" d="M63.9,20c0.8,0.5,1.3,1.1,1.8,1.9s0.6,1.8,0.6,2.8c0,1-0.2,2-0.7,2.8c-0.4,0.8-1,1.5-1.8,2
		c-0.8,0.5-1.6,0.7-2.5,0.7c-0.9,0-1.6-0.2-2.4-0.6c-0.7-0.4-1.3-1-1.8-1.8V34c0,0.1,0,0.2-0.1,0.3c-0.1,0.1-0.2,0.1-0.3,0.1
		c-0.1,0-0.2,0-0.3-0.1c-0.1-0.1-0.1-0.2-0.1-0.3V19.7c0-0.1,0-0.2,0.1-0.3c0.1-0.1,0.2-0.1,0.3-0.1s0.2,0,0.3,0.1
		c0.1,0.1,0.1,0.2,0.1,0.3v2c0.4-0.8,1-1.4,1.7-1.8c0.7-0.4,1.5-0.6,2.4-0.6C62.3,19.3,63.2,19.5,63.9,20z M63.4,28.8
		c0.6-0.4,1.1-1,1.5-1.7c0.4-0.7,0.5-1.5,0.5-2.4s-0.2-1.7-0.5-2.4c-0.4-0.7-0.9-1.3-1.5-1.7c-0.6-0.4-1.3-0.6-2.1-0.6
		c-0.8,0-1.5,0.2-2.2,0.6c-0.6,0.4-1.1,0.9-1.5,1.6c-0.3,0.7-0.5,1.5-0.5,2.4s0.2,1.7,0.5,2.4c0.3,0.7,0.8,1.3,1.5,1.7
		c0.6,0.4,1.4,0.6,2.2,0.6C62.1,29.4,62.8,29.2,63.4,28.8z"/>
	<path class="st1" d="M20.2,50.1c-0.8-0.4-1.6-0.9-2.3-1.7c-0.1-0.1-0.1-0.2-0.1-0.3c0-0.1,0-0.2,0.1-0.3c0.1-0.1,0.2-0.2,0.3-0.2
		c0.1,0,0.2,0.1,0.4,0.2c0.6,0.7,1.2,1.2,2,1.5c0.8,0.3,1.6,0.5,2.4,0.5c1.1,0,2-0.3,2.7-0.8c0.7-0.5,1.1-1.2,1.1-2.1
		c0-0.7-0.2-1.2-0.6-1.7c-0.4-0.4-0.8-0.8-1.3-1.1c-0.5-0.3-1.2-0.6-2.1-0.9c-1-0.4-1.8-0.7-2.3-1c-0.5-0.3-1-0.7-1.4-1.2
		c-0.4-0.5-0.6-1.2-0.6-2.1c0-0.7,0.2-1.3,0.6-1.9c0.4-0.6,0.9-1,1.6-1.3c0.7-0.3,1.5-0.5,2.5-0.5c0.8,0,1.6,0.2,2.4,0.5
		c0.8,0.3,1.4,0.7,1.8,1.3c0.1,0.2,0.2,0.4,0.2,0.4c0,0.1-0.1,0.2-0.2,0.3c-0.1,0.1-0.2,0.1-0.4,0.1c-0.1,0-0.2,0-0.3-0.1
		c-0.4-0.5-0.9-0.9-1.5-1.2c-0.6-0.3-1.3-0.4-2.1-0.4c-1.1,0-2,0.3-2.7,0.8c-0.7,0.5-1.1,1.2-1.1,2.1c0,0.6,0.2,1.1,0.5,1.6
		c0.3,0.4,0.8,0.8,1.3,1c0.5,0.3,1.2,0.5,2,0.8c1,0.4,1.8,0.7,2.4,1c0.6,0.3,1.1,0.7,1.5,1.3c0.4,0.6,0.6,1.3,0.6,2.3
		c0,0.7-0.2,1.3-0.6,1.8c-0.4,0.6-0.9,1-1.7,1.4c-0.7,0.3-1.5,0.5-2.5,0.5C21.9,50.7,21,50.5,20.2,50.1z"/>
	<path class="st1" d="M38,40.8c0.7,0.8,1,1.8,1,3V50c0,0.1,0,0.2-0.1,0.3c-0.1,0.1-0.2,0.1-0.3,0.1c-0.1,0-0.2,0-0.3-0.1
		c-0.1-0.1-0.1-0.2-0.1-0.3v-6.3c0-1-0.2-1.8-0.7-2.4c-0.5-0.6-1.2-0.9-2.2-0.9c-0.6,0-1.2,0.1-1.8,0.4c-0.6,0.3-1.1,0.7-1.4,1.2
		c-0.4,0.5-0.6,1.1-0.6,1.6V50c0,0.1,0,0.2-0.1,0.3c-0.1,0.1-0.2,0.1-0.3,0.1c-0.1,0-0.2,0-0.3-0.1c-0.1-0.1-0.1-0.2-0.1-0.3V35
		c0-0.1,0-0.2,0.1-0.3c0.1-0.1,0.2-0.1,0.3-0.1c0.1,0,0.2,0,0.3,0.1c0.1,0.1,0.1,0.2,0.1,0.3v6.8c0.4-0.6,1-1.1,1.7-1.6
		c0.7-0.4,1.4-0.6,2.2-0.6C36.4,39.6,37.4,40,38,40.8z"/>
	<path class="st1" d="M51.7,47.9c-0.5,0.8-1.1,1.5-1.9,2c-0.8,0.5-1.7,0.7-2.7,0.7s-1.9-0.2-2.7-0.7c-0.8-0.5-1.4-1.2-1.9-2
		c-0.5-0.9-0.7-1.8-0.7-2.8c0-1.1,0.2-2,0.7-2.9c0.5-0.9,1.1-1.5,1.9-2s1.7-0.7,2.7-0.7c1,0,1.9,0.2,2.7,0.7c0.8,0.5,1.4,1.2,1.9,2
		c0.5,0.9,0.7,1.8,0.7,2.9C52.4,46.1,52.2,47.1,51.7,47.9z M51,42.6c-0.4-0.7-0.9-1.3-1.6-1.7c-0.7-0.4-1.4-0.6-2.3-0.6
		c-0.8,0-1.6,0.2-2.3,0.6c-0.7,0.4-1.2,1-1.6,1.7c-0.4,0.7-0.6,1.5-0.6,2.5c0,0.9,0.2,1.7,0.6,2.4c0.4,0.7,0.9,1.3,1.6,1.7
		c0.7,0.4,1.4,0.6,2.3,0.6c0.8,0,1.6-0.2,2.3-0.6c0.7-0.4,1.2-1,1.6-1.7c0.4-0.7,0.6-1.6,0.6-2.5C51.5,44.1,51.3,43.3,51,42.6z"/>
	<path class="st1" d="M62.7,40.3c0.8,0.5,1.3,1.1,1.8,1.9c0.4,0.8,0.6,1.8,0.6,2.8c0,1-0.2,2-0.7,2.8c-0.4,0.8-1,1.5-1.8,2
		s-1.6,0.7-2.5,0.7c-0.9,0-1.6-0.2-2.4-0.6c-0.7-0.4-1.3-1-1.8-1.8v6.2c0,0.1,0,0.2-0.1,0.3c-0.1,0.1-0.2,0.1-0.3,0.1
		c-0.1,0-0.2,0-0.3-0.1c-0.1-0.1-0.1-0.2-0.1-0.3V40.1c0-0.1,0-0.2,0.1-0.3c0.1-0.1,0.2-0.1,0.3-0.1s0.2,0,0.3,0.1
		C56,39.9,56,40,56,40.1v2c0.4-0.8,1-1.4,1.7-1.8c0.7-0.4,1.5-0.6,2.4-0.6C61.1,39.6,62,39.9,62.7,40.3z M62.2,49.2
		c0.6-0.4,1.1-1,1.5-1.7c0.4-0.7,0.5-1.5,0.5-2.4s-0.2-1.7-0.5-2.4s-0.9-1.3-1.5-1.7c-0.6-0.4-1.3-0.6-2.1-0.6
		c-0.8,0-1.5,0.2-2.2,0.6c-0.6,0.4-1.1,0.9-1.5,1.6c-0.3,0.7-0.5,1.5-0.5,2.4c0,0.9,0.2,1.7,0.5,2.4s0.8,1.3,1.5,1.7
		c0.6,0.4,1.4,0.6,2.2,0.6C60.9,49.8,61.6,49.6,62.2,49.2z"/>
	<path class="st1" d="M75.4,40.3c0.8,0.5,1.3,1.1,1.8,1.9c0.4,0.8,0.6,1.8,0.6,2.8c0,1-0.2,2-0.7,2.8c-0.4,0.8-1,1.5-1.8,2
		c-0.8,0.5-1.6,0.7-2.5,0.7c-0.9,0-1.6-0.2-2.4-0.6c-0.7-0.4-1.3-1-1.8-1.8v6.2c0,0.1,0,0.2-0.1,0.3c-0.1,0.1-0.2,0.1-0.3,0.1
		c-0.1,0-0.2,0-0.3-0.1c-0.1-0.1-0.1-0.2-0.1-0.3V40.1c0-0.1,0-0.2,0.1-0.3c0.1-0.1,0.2-0.1,0.3-0.1s0.2,0,0.3,0.1
		c0.1,0.1,0.1,0.2,0.1,0.3v2c0.4-0.8,1-1.4,1.7-1.8c0.7-0.4,1.5-0.6,2.4-0.6C73.8,39.6,74.7,39.9,75.4,40.3z M75,49.2
		c0.6-0.4,1.1-1,1.5-1.7c0.4-0.7,0.5-1.5,0.5-2.4s-0.2-1.7-0.5-2.4s-0.9-1.3-1.5-1.7c-0.6-0.4-1.3-0.6-2.1-0.6
		c-0.8,0-1.5,0.2-2.2,0.6c-0.6,0.4-1.1,0.9-1.5,1.6c-0.3,0.7-0.5,1.5-0.5,2.4c0,0.9,0.2,1.7,0.5,2.4c0.3,0.7,0.8,1.3,1.5,1.7
		c0.6,0.4,1.4,0.6,2.2,0.6C73.6,49.8,74.3,49.6,75,49.2z"/>
	<path class="st1" d="M80.6,37.8c-0.1-0.1-0.2-0.3-0.2-0.5v-0.2c0-0.2,0.1-0.4,0.2-0.5c0.1-0.1,0.3-0.2,0.6-0.2
		c0.2,0,0.4,0.1,0.5,0.2c0.1,0.1,0.2,0.3,0.2,0.5v0.2c0,0.2-0.1,0.4-0.2,0.5c-0.1,0.1-0.3,0.2-0.5,0.2C80.9,38,80.7,37.9,80.6,37.8z
		 M81.4,50.3c-0.1,0.1-0.2,0.1-0.3,0.1c-0.1,0-0.2,0-0.3-0.1c-0.1-0.1-0.1-0.2-0.1-0.3V39.9c0-0.1,0-0.2,0.1-0.3
		c0.1-0.1,0.2-0.1,0.3-0.1c0.1,0,0.2,0,0.3,0.1c0.1,0.1,0.1,0.2,0.1,0.3V50C81.5,50.1,81.5,50.2,81.4,50.3z"/>
	<path class="st1" d="M92.8,40.6c0.6,0.7,1,1.7,1,2.9V50c0,0.1,0,0.2-0.1,0.3c-0.1,0.1-0.2,0.1-0.3,0.1c-0.1,0-0.2,0-0.3-0.1
		c-0.1-0.1-0.1-0.2-0.1-0.3v-6.5c0-1-0.3-1.8-0.8-2.4c-0.5-0.6-1.3-0.9-2.3-0.9c-0.6,0-1.2,0.1-1.9,0.4c-0.6,0.3-1.1,0.7-1.5,1.2
		c-0.4,0.5-0.6,1.1-0.6,1.6V50c0,0.1,0,0.2-0.1,0.3c-0.1,0.1-0.2,0.1-0.3,0.1c-0.1,0-0.2,0-0.3-0.1c-0.1-0.1-0.1-0.2-0.1-0.3v-9.8
		c0-0.1,0-0.2,0.1-0.3c0.1-0.1,0.2-0.1,0.3-0.1c0.1,0,0.2,0,0.3,0.1c0.1,0.1,0.1,0.2,0.1,0.3v1.4c0.4-0.6,1-1.2,1.7-1.6
		c0.7-0.4,1.5-0.6,2.3-0.6C91.2,39.4,92.2,39.8,92.8,40.6z"/>
	<path class="st1" d="M106.8,39.9c0.1,0.1,0.1,0.2,0.1,0.3v9.2c0,1.1-0.2,2-0.7,2.8c-0.4,0.8-1.1,1.4-1.9,1.9
		c-0.8,0.4-1.7,0.7-2.7,0.7c-0.6,0-1.1-0.1-1.7-0.2c-0.6-0.1-1.1-0.3-1.4-0.6c-0.4-0.2-0.6-0.5-0.6-0.7c0-0.1,0-0.2,0.1-0.3
		c0.1-0.1,0.2-0.1,0.3-0.1c0.1,0,0.2,0.1,0.4,0.2c0.2,0.2,0.4,0.3,0.7,0.4c0.7,0.3,1.5,0.4,2.4,0.4c1.3,0,2.4-0.4,3.2-1.2
		c0.8-0.8,1.2-1.9,1.2-3.3v-1.5c-0.4,0.9-1,1.6-1.8,2.1c-0.8,0.5-1.7,0.7-2.5,0.7c-1,0-1.9-0.2-2.6-0.7c-0.8-0.5-1.4-1.2-1.9-2
		c-0.4-0.9-0.7-1.8-0.7-2.9c0-1.1,0.2-2,0.7-2.9c0.4-0.9,1.1-1.5,1.9-2s1.7-0.7,2.6-0.7c1,0,1.8,0.3,2.6,0.8
		c0.8,0.5,1.4,1.1,1.7,1.8v-1.8c0-0.1,0-0.2,0.1-0.3c0.1-0.1,0.2-0.1,0.3-0.1C106.6,39.8,106.7,39.8,106.8,39.9z M104,49.2
		c0.7-0.4,1.2-1,1.6-1.7c0.4-0.7,0.6-1.6,0.6-2.5c0-0.9-0.2-1.8-0.6-2.5s-0.9-1.3-1.6-1.7c-0.7-0.4-1.4-0.6-2.2-0.6
		c-0.8,0-1.6,0.2-2.2,0.6s-1.2,1-1.6,1.7c-0.4,0.7-0.6,1.5-0.6,2.5c0,0.9,0.2,1.7,0.6,2.5c0.4,0.7,0.9,1.3,1.6,1.7
		c0.7,0.4,1.4,0.6,2.2,0.6C102.6,49.9,103.4,49.6,104,49.2z"/>
</g>
<g>
	<g>
		<polygon class="st2" points="161.2,26.3 161.2,39.5 140.1,39.5 140.1,49.7 110.9,32.8 140.1,16 140.1,26.3 		"/>
	</g>
</g>
</svg>
