<?xml version="1.0" encoding="utf-8"?>
<!-- Generator: Adobe Illustrator 23.0.1, SVG Export Plug-In . SVG Version: 6.00 Build 0)  -->
<svg version="1.1" id="Layer_1" xmlns="http://www.w3.org/2000/svg" xmlns:xlink="http://www.w3.org/1999/xlink" x="0px" y="0px"
	 viewBox="0 0 65.7 21.4" style="enable-background:new 0 0 65.7 21.4;" xml:space="preserve">
<style type="text/css">
	.st0{fill:url(#SVGID_1_);}
	.st1{fill:#FFFFFF;}
</style>
<path d="M60.5,20.1H5.2c-1.9,0-3.4-1.3-3.4-2.9V4.2c0-1.6,1.5-2.9,3.4-2.9h55.3c1.9,0,3.4,1.3,3.4,2.9v13
	C63.9,18.8,62.4,20.1,60.5,20.1z"/>
<linearGradient id="SVGID_1_" gradientUnits="userSpaceOnUse" x1="0" y1="44.4291" x2="65.7165" y2="44.4291" gradientTransform="matrix(1 0 0 -1 0 55.1377)">
	<stop  offset="0" style="stop-color:#1E4E9A"/>
	<stop  offset="0.492" style="stop-color:#27D146"/>
	<stop  offset="1" style="stop-color:#C73DC9"/>
</linearGradient>
<path class="st0" d="M61.2,21.4H4.5c-2.5,0-4.5-1.8-4.5-4V4c0-2.2,2-4,4.5-4h56.7c2.5,0,4.5,1.8,4.5,4v13.4
	C65.7,19.6,63.7,21.4,61.2,21.4z M4.5,2.3C3.3,2.3,2.3,3.1,2.3,4v13.4c0,0.9,1,1.7,2.2,1.7h56.7c1.2,0,2.2-0.8,2.2-1.7V4
	c0-0.9-1-1.7-2.2-1.7H4.5z"/>
<g>
	<path class="st1" d="M5.6,12.8V7h0.7v5.2h3.2v0.7H5.6z"/>
	<path class="st1" d="M12,12.9c-0.3,0-0.6-0.1-0.9-0.2c-0.3-0.1-0.5-0.3-0.7-0.5c-0.2-0.2-0.3-0.4-0.4-0.7c-0.1-0.3-0.2-0.5-0.2-0.8
		c0-0.3,0.1-0.6,0.2-0.9c0.1-0.3,0.3-0.5,0.4-0.7c0.2-0.2,0.4-0.4,0.7-0.5c0.3-0.1,0.6-0.2,0.9-0.2c0.3,0,0.6,0.1,0.9,0.2
		c0.3,0.1,0.5,0.3,0.7,0.5c0.2,0.2,0.3,0.4,0.4,0.7c0.1,0.3,0.2,0.6,0.2,0.9c0,0.3-0.1,0.6-0.2,0.8c-0.1,0.3-0.3,0.5-0.4,0.7
		c-0.2,0.2-0.4,0.4-0.7,0.5C12.6,12.8,12.3,12.9,12,12.9z M10.6,10.7c0,0.2,0,0.4,0.1,0.6c0.1,0.2,0.2,0.4,0.3,0.5
		c0.1,0.1,0.3,0.3,0.5,0.3c0.2,0.1,0.4,0.1,0.6,0.1c0.2,0,0.4,0,0.6-0.1c0.2-0.1,0.3-0.2,0.5-0.3c0.1-0.1,0.2-0.3,0.3-0.5
		c0.1-0.2,0.1-0.4,0.1-0.6c0-0.2,0-0.4-0.1-0.6c-0.1-0.2-0.2-0.4-0.3-0.5c-0.1-0.1-0.3-0.3-0.5-0.3c-0.2-0.1-0.4-0.1-0.6-0.1
		c-0.2,0-0.4,0-0.6,0.1c-0.2,0.1-0.3,0.2-0.5,0.3c-0.1,0.1-0.2,0.3-0.3,0.5C10.6,10.2,10.6,10.4,10.6,10.7z"/>
	<path class="st1" d="M16.8,12.8c-0.3,0-0.6-0.1-0.8-0.2c-0.2-0.1-0.5-0.3-0.6-0.5c-0.2-0.2-0.3-0.4-0.4-0.7
		c-0.1-0.3-0.1-0.5-0.1-0.8c0-0.3,0-0.6,0.1-0.9c0.1-0.3,0.2-0.5,0.4-0.7c0.2-0.2,0.4-0.4,0.6-0.5c0.2-0.1,0.5-0.2,0.8-0.2
		c0.4,0,0.7,0.1,0.9,0.3c0.3,0.2,0.5,0.4,0.7,0.7V8.5H19v4.2c0,0.3-0.1,0.6-0.2,0.8c-0.1,0.2-0.3,0.4-0.5,0.6
		c-0.2,0.2-0.4,0.3-0.7,0.4c-0.3,0.1-0.5,0.1-0.8,0.1c-0.5,0-0.9-0.1-1.2-0.3c-0.3-0.2-0.6-0.4-0.8-0.7l0.4-0.4
		c0.2,0.3,0.4,0.4,0.7,0.6c0.3,0.1,0.6,0.2,0.9,0.2c0.2,0,0.4,0,0.6-0.1c0.2-0.1,0.3-0.1,0.5-0.2c0.1-0.1,0.2-0.2,0.3-0.4
		c0.1-0.2,0.1-0.4,0.1-0.6V12c-0.1,0.1-0.2,0.3-0.3,0.4c-0.1,0.1-0.2,0.2-0.4,0.3c-0.1,0.1-0.3,0.1-0.4,0.2
		C17.1,12.8,16.9,12.8,16.8,12.8z M17,12.2c0.2,0,0.3,0,0.4-0.1c0.1-0.1,0.3-0.1,0.4-0.2c0.1-0.1,0.2-0.2,0.3-0.3s0.1-0.2,0.2-0.4
		v-1.2c-0.1-0.1-0.1-0.3-0.2-0.4c-0.1-0.1-0.2-0.2-0.3-0.3c-0.1-0.1-0.3-0.2-0.4-0.2c-0.1,0-0.3-0.1-0.4-0.1c-0.2,0-0.4,0-0.6,0.1
		c-0.2,0.1-0.3,0.2-0.4,0.4c-0.1,0.2-0.2,0.3-0.3,0.5c-0.1,0.2-0.1,0.4-0.1,0.6c0,0.2,0,0.4,0.1,0.6c0.1,0.2,0.2,0.4,0.3,0.5
		c0.1,0.1,0.3,0.3,0.5,0.3C16.6,12.2,16.8,12.2,17,12.2z"/>
	<path class="st1" d="M20.1,7.7V6.8h0.7v0.9H20.1z M20.1,12.8V8.5h0.7v4.3H20.1z"/>
	<path class="st1" d="M25.7,12.8H25v-2.4c0-0.5-0.1-0.8-0.2-1c-0.1-0.2-0.4-0.3-0.6-0.3c-0.1,0-0.3,0-0.4,0.1
		c-0.1,0.1-0.3,0.1-0.4,0.2c-0.1,0.1-0.2,0.2-0.3,0.4c-0.1,0.1-0.2,0.3-0.2,0.5v2.6H22V8.5h0.7v0.9c0.2-0.3,0.4-0.5,0.7-0.7
		c0.3-0.2,0.7-0.3,1-0.3c0.2,0,0.5,0,0.6,0.1c0.2,0.1,0.3,0.2,0.4,0.4c0.1,0.2,0.2,0.4,0.2,0.6c0,0.2,0.1,0.5,0.1,0.7V12.8z"/>
	<path class="st1" d="M31.2,7l-3.9,5.8h-0.8L30.4,7H31.2z"/>
	<path class="st1" d="M35.5,8.2C35.5,8.1,35.4,8,35.3,8c-0.1-0.1-0.2-0.1-0.4-0.2c-0.1-0.1-0.3-0.1-0.4-0.1c-0.2,0-0.3-0.1-0.5-0.1
		c-0.5,0-0.8,0.1-1,0.3c-0.2,0.2-0.3,0.4-0.3,0.7c0,0.2,0,0.3,0.1,0.4C32.8,9,32.9,9.1,33,9.2c0.1,0.1,0.3,0.1,0.5,0.2
		c0.2,0.1,0.4,0.1,0.7,0.2c0.3,0.1,0.6,0.1,0.8,0.2c0.2,0.1,0.5,0.2,0.6,0.3s0.3,0.3,0.4,0.5c0.1,0.2,0.1,0.4,0.1,0.7
		c0,0.3-0.1,0.5-0.2,0.7s-0.3,0.4-0.4,0.5c-0.2,0.1-0.4,0.2-0.7,0.3c-0.3,0.1-0.5,0.1-0.8,0.1c-0.4,0-0.9-0.1-1.3-0.2
		c-0.4-0.1-0.8-0.3-1.1-0.6l0.4-0.6c0.1,0.1,0.2,0.2,0.3,0.3c0.1,0.1,0.3,0.2,0.5,0.3c0.2,0.1,0.4,0.1,0.6,0.2
		c0.2,0,0.4,0.1,0.6,0.1c0.4,0,0.7-0.1,1-0.2c0.2-0.1,0.3-0.4,0.3-0.7c0-0.2,0-0.3-0.1-0.4c-0.1-0.1-0.2-0.2-0.3-0.3
		c-0.1-0.1-0.3-0.2-0.5-0.2c-0.2-0.1-0.5-0.1-0.7-0.2c-0.3-0.1-0.6-0.1-0.8-0.2c-0.2-0.1-0.4-0.2-0.6-0.3c-0.2-0.1-0.3-0.3-0.3-0.4
		c-0.1-0.2-0.1-0.4-0.1-0.6c0-0.3,0.1-0.5,0.2-0.7c0.1-0.2,0.2-0.4,0.4-0.5c0.2-0.1,0.4-0.3,0.7-0.3C33.4,7,33.7,6.9,34,6.9
		c0.4,0,0.7,0.1,1.1,0.2c0.3,0.1,0.6,0.3,0.8,0.5L35.5,8.2z"/>
	<path class="st1" d="M37,7.7V6.8h0.7v0.9H37z M37,12.8V8.5h0.7v4.3H37z"/>
	<path class="st1" d="M40.5,12.8c-0.3,0-0.6-0.1-0.8-0.2c-0.2-0.1-0.5-0.3-0.6-0.5c-0.2-0.2-0.3-0.4-0.4-0.7
		c-0.1-0.3-0.1-0.5-0.1-0.8c0-0.3,0-0.6,0.1-0.9c0.1-0.3,0.2-0.5,0.4-0.7c0.2-0.2,0.4-0.4,0.6-0.5c0.2-0.1,0.5-0.2,0.8-0.2
		c0.4,0,0.7,0.1,0.9,0.3c0.3,0.2,0.5,0.4,0.7,0.7V8.5h0.6v4.2c0,0.3-0.1,0.6-0.2,0.8c-0.1,0.2-0.3,0.4-0.5,0.6s-0.4,0.3-0.7,0.4
		c-0.3,0.1-0.5,0.1-0.8,0.1c-0.5,0-0.9-0.1-1.2-0.3c-0.3-0.2-0.6-0.4-0.8-0.7l0.4-0.4c0.2,0.3,0.4,0.4,0.7,0.6
		c0.3,0.1,0.6,0.2,0.9,0.2c0.2,0,0.4,0,0.6-0.1c0.2-0.1,0.3-0.1,0.5-0.2c0.1-0.1,0.2-0.2,0.3-0.4c0.1-0.2,0.1-0.4,0.1-0.6V12
		c-0.1,0.1-0.2,0.3-0.3,0.4c-0.1,0.1-0.2,0.2-0.4,0.3c-0.1,0.1-0.3,0.1-0.4,0.2C40.8,12.8,40.7,12.8,40.5,12.8z M40.8,12.2
		c0.2,0,0.3,0,0.4-0.1c0.1-0.1,0.3-0.1,0.4-0.2c0.1-0.1,0.2-0.2,0.3-0.3c0.1-0.1,0.1-0.2,0.2-0.4v-1.2c-0.1-0.1-0.1-0.3-0.2-0.4
		c-0.1-0.1-0.2-0.2-0.3-0.3c-0.1-0.1-0.3-0.2-0.4-0.2c-0.1,0-0.3-0.1-0.4-0.1c-0.2,0-0.4,0-0.6,0.1c-0.2,0.1-0.3,0.2-0.4,0.4
		c-0.1,0.2-0.2,0.3-0.3,0.5c-0.1,0.2-0.1,0.4-0.1,0.6c0,0.2,0,0.4,0.1,0.6c0.1,0.2,0.2,0.4,0.3,0.5c0.1,0.1,0.3,0.3,0.5,0.3
		C40.4,12.2,40.6,12.2,40.8,12.2z"/>
	<path class="st1" d="M47.6,12.8h-0.7v-2.4c0-0.5-0.1-0.8-0.2-1c-0.1-0.2-0.4-0.3-0.6-0.3c-0.1,0-0.3,0-0.4,0.1
		c-0.1,0.1-0.3,0.1-0.4,0.2c-0.1,0.1-0.2,0.2-0.3,0.4c-0.1,0.1-0.2,0.3-0.2,0.5v2.6h-0.7V8.5h0.7v0.9c0.2-0.3,0.4-0.5,0.7-0.7
		c0.3-0.2,0.7-0.3,1-0.3c0.2,0,0.5,0,0.6,0.1c0.2,0.1,0.3,0.2,0.4,0.4c0.1,0.2,0.2,0.4,0.2,0.6c0,0.2,0.1,0.5,0.1,0.7V12.8z"/>
	<path class="st1" d="M53.3,12.2c0.3,0,0.6-0.1,0.8-0.2c0.2-0.1,0.4-0.3,0.5-0.5c0.1-0.2,0.2-0.5,0.3-0.7c0.1-0.3,0.1-0.5,0.1-0.8V7
		h0.7v2.9c0,0.4,0,0.8-0.1,1.1c-0.1,0.4-0.2,0.7-0.4,0.9c-0.2,0.3-0.5,0.5-0.8,0.6c-0.3,0.2-0.7,0.2-1.1,0.2c-0.5,0-0.9-0.1-1.2-0.2
		c-0.3-0.2-0.6-0.4-0.8-0.7C51.2,11.7,51,11.3,51,11c-0.1-0.4-0.1-0.7-0.1-1.1V7h0.7v2.9c0,0.3,0,0.6,0.1,0.8
		c0.1,0.3,0.2,0.5,0.3,0.7c0.1,0.2,0.3,0.4,0.5,0.5C52.7,12.1,53,12.2,53.3,12.2z"/>
	<path class="st1" d="M59.3,12.9c-0.4,0-0.7-0.1-0.9-0.3c-0.3-0.2-0.5-0.4-0.6-0.7v2.6H57v-6h0.6v0.8C57.8,9,58,8.8,58.3,8.7
		c0.3-0.2,0.6-0.2,0.9-0.2c0.3,0,0.6,0.1,0.8,0.2c0.2,0.1,0.5,0.3,0.6,0.5c0.2,0.2,0.3,0.4,0.4,0.7c0.1,0.3,0.2,0.5,0.2,0.8
		c0,0.3,0,0.6-0.1,0.9c-0.1,0.3-0.2,0.5-0.4,0.7c-0.2,0.2-0.4,0.4-0.6,0.5C59.8,12.8,59.6,12.9,59.3,12.9z M59,12.2
		c0.2,0,0.4,0,0.6-0.1c0.2-0.1,0.3-0.2,0.4-0.4c0.1-0.2,0.2-0.3,0.3-0.5c0.1-0.2,0.1-0.4,0.1-0.6c0-0.2,0-0.4-0.1-0.6
		c-0.1-0.2-0.2-0.4-0.3-0.5c-0.1-0.1-0.3-0.3-0.5-0.3c-0.2-0.1-0.4-0.1-0.6-0.1c-0.1,0-0.3,0-0.4,0.1c-0.1,0.1-0.3,0.1-0.4,0.2
		c-0.1,0.1-0.2,0.2-0.3,0.3c-0.1,0.1-0.1,0.2-0.2,0.4v1.2c0.1,0.1,0.1,0.3,0.2,0.4c0.1,0.1,0.2,0.2,0.3,0.3c0.1,0.1,0.2,0.2,0.4,0.2
		C58.8,12.2,58.9,12.2,59,12.2z"/>
</g>
</svg>
