<?xml version="1.0" encoding="utf-8"?>
<!-- Generator: Adobe Illustrator 15.1.0, SVG Export Plug-In . SVG Version: 6.00 Build 0)  -->
<!DOCTYPE svg PUBLIC "-//W3C//DTD SVG 1.1//EN" "http://www.w3.org/Graphics/SVG/1.1/DTD/svg11.dtd">
<svg version="1.1" id="Capa_1" xmlns="http://www.w3.org/2000/svg" xmlns:xlink="http://www.w3.org/1999/xlink" x="0px" y="0px"
	 width="250px" height="150px" viewBox="-75 -30 250 150" enable-background="new -75 -30 250 150" xml:space="preserve">
<g>
	<path fill="#383838" d="M88.398-10.735c-0.01,0.236-0.017,0.474-0.023,0.713c-3.844,1.5-13.221,1.366-12.073,8.522
		c0.458,2.867,3.356,4,3.694,6.911c0.749,6.41-4.358,13.302-7.366,17.254c-2.989,3.927-6.302,7.455-10.351,10.365
		c-0.768,0.142-0.663-0.533-0.676-1.096c-4.676,0.792-3.912,7.396-7.46,9.395c-0.06,1.784-0.119,3.567-0.183,5.353
		c1.176-0.213,8.693-4.026,9.268,0.666c-0.966-1.366-3.587-1.455-4.637-0.154c1.525,1.451,4.868,1.202,5.23,3.748
		c-0.823-0.135-1.781-0.823-1.083,0.321c0.109,1.021-3.937-1.948-4.663,0.558c1.576,1.405,4.9,1.179,5.232,3.749
		c-2.174-2.065-4.758-1.136-8.895-1.017c-5.571,0.166-8.993-2.402-12.167,0.665c0.697-3.073,4.266-3.078,7.267-3.684
		c0.024-0.716,0.048-1.43,0.071-2.142c-2.599-1.418-4.912,0.651-6.824,1.196c0.886-2.747,4.007-3.104,7.255-3.323
		c0.7-3.879-0.269-6.198-2.246-7.578c-2.736,0.554-7.167,4.541-9.321,1.116c-11.043,2.604-16.96,10.689-26.918,14.452
		c-0.484-1.965-3.866-1.223-5.647-1.979c0.016-0.475,0.032-0.949,0.047-1.425c3.99-9.477,14.089-14.115,21.427-21.065
		c-2.039-0.055-4.069-0.114-4.221-1.931c6.321-8.748,17.432-19.06,25.909-26.986c3.275-3.06,7.351-5.414,9.562-8.249
		c1.85-2.368,2.271-4.689,4.499-6.277C68.232-16.312,83.943-13.64,88.398-10.735z M53.449,51.305
		c1.603-0.757,4.929-1.616,5.782-1.946C56.959,49.64,53.952,49.135,53.449,51.305z"/>
</g>
<path d="M29.421,75.271"/>
<g>
	<path fill="#7C870E" d="M-22.448,73.492c1.534,1.435,2.301,3.491,2.301,6.165c0,2.056-0.45,3.851-1.351,5.384
		c-0.902,1.536-2.189,2.726-3.865,3.569c-1.676,0.846-3.64,1.267-5.891,1.267h-2.703v0.084l0.252,8.616h-5.743l0.295-8.108
		l-0.295-19.089l10.431-0.043C-26.172,71.337-23.982,72.055-22.448,73.492z M-26.102,80.164c0-1.521-0.386-2.652-1.162-3.4
		c-0.775-0.744-1.964-1.146-3.569-1.203l-2.872,0.168l-0.168,9.799l3.885,0.168C-27.397,84.964-26.102,83.12-26.102,80.164z"/>
	<path fill="#7C870E" d="M3.522,74.483c2.071,2.323,3.105,5.624,3.105,9.903c0,4.674-1.127,8.277-3.378,10.812
		C0.996,97.732-2.186,99-6.295,99c-3.801,0-6.736-1.189-8.807-3.568c-2.069-2.379-3.104-5.751-3.104-10.115
		c0-4.588,1.119-8.123,3.358-10.6C-12.61,72.239-9.436,71-5.324,71C-1.496,71,1.454,72.162,3.522,74.483z M-10.73,77.714
		c-1.014,1.409-1.521,3.703-1.521,6.884c0,3.633,0.5,6.223,1.5,7.771c0.999,1.549,2.653,2.322,4.961,2.322
		c2.253,0,3.885-0.711,4.899-2.133c1.014-1.42,1.521-3.75,1.521-6.988c0-3.576-0.5-6.131-1.498-7.666
		c-1-1.534-2.655-2.301-4.963-2.301C-8.083,75.604-9.716,76.307-10.73,77.714z"/>
	<path fill="#7C870E" d="M31.67,97.227l-0.084,0.633c-1.83,0.647-3.703,1.027-5.617,1.141l-0.591-0.465
		c-2.028-3.491-3.674-6.531-4.94-9.122H16.34v0.548l0.252,8.616H10.85l0.295-8.108L10.85,71.38l10.431-0.043
		c2.844,0,5.04,0.698,6.588,2.091c1.548,1.395,2.323,3.386,2.323,5.976c0,1.747-0.443,3.344-1.33,4.794
		c-0.888,1.45-2.132,2.64-3.737,3.569C27.321,91.257,29.502,94.41,31.67,97.227z M16.424,84.979l4.181,0.168
		c2.392-0.815,3.59-2.548,3.59-5.194c0-1.437-0.387-2.512-1.162-3.23c-0.775-0.719-1.964-1.105-3.569-1.162l-2.872,0.168
		L16.424,84.979z"/>
	<path fill="#7C870E" d="M52.07,71.844l-0.34,4.267l-5.11-0.254h-1.689L44.72,89.961l0.254,8.616h-5.743l0.295-8.108l-0.211-14.612
		h-1.689l-5.195,0.254l-0.38-0.466l0.38-4.265H51.73L52.07,71.844z"/>
	<path fill="#7C870E" d="M75.171,98.577h-5.828l-0.675-3.547l-0.718-2.534l-5.323-0.127l-4.687,0.127l-0.718,2.238l-0.718,3.843
		h-5.658l9.205-27.197h6.8L75.171,98.577z M66.725,88.062l-3.21-11.32h-0.38l-3.715,11.32l3.631,0.084L66.725,88.062z"/>
	<path fill="#7C870E" d="M97.616,86.73c0.888,1.057,1.33,2.443,1.33,4.16c0,5.266-4.124,7.898-12.374,7.898
		c-2.421,0-4.899-0.07-7.432-0.212l0.295-8.108L79.141,71.38l9.671-0.043c2.787,0,4.953,0.586,6.504,1.753
		c1.546,1.168,2.321,2.851,2.321,5.047c0,1.464-0.358,2.746-1.076,3.844s-1.738,1.928-3.062,2.492
		C95.356,84.923,96.729,85.676,97.616,86.73z M91.662,93.637c0.971-0.704,1.458-1.719,1.458-3.041c0-1.999-1.297-3.238-3.886-3.718
		l-4.688,0.087l-0.042,2.996l0.127,4.562c0.984,0.111,1.955,0.168,2.913,0.168C89.318,94.691,90.689,94.34,91.662,93.637z
		 M90.669,76.258c-0.732-0.52-2.013-0.781-3.843-0.781h-2.068l-0.127,7.391l3.969,0.126c1.069-0.28,1.865-0.744,2.386-1.394
		c0.521-0.646,0.781-1.547,0.781-2.701C91.767,77.658,91.401,76.779,90.669,76.258z"/>
	<path fill="#7C870E" d="M118.499,94.312l-0.38,4.265h-14.696l0.295-8.108l-0.295-19.089h5.827l-0.337,18.581l0.126,3.885h9.123
		L118.499,94.312z"/>
	<path fill="#7C870E" d="M138.98,93.846l0.339,0.467l-0.38,4.265h-17.062l0.296-8.108l-0.296-19.089h17.23l0.34,0.464l-0.424,4.267
		l-6.504-0.211l-4.898,0.041l-0.126,6.548l4.686,0.084l4.436-0.127l0.338,0.422l-0.381,4.266l-4.813-0.127l-4.351,0.043
		l-0.041,2.912l0.127,4.098l4.771,0.042L138.98,93.846z"/>
</g>
<g>
	<path fill="#7C870E" d="M-106.14-79.335l-0.086,0.64c-1.853,0.657-3.748,1.041-5.686,1.155l-0.598-0.47
		c-2.052-3.534-3.718-6.613-5-9.232h-4.147v0.553l0.256,8.722h-5.813l0.299-8.206l-0.299-19.32l10.558-0.046
		c2.878,0,5.102,0.706,6.669,2.115c1.567,1.412,2.352,3.43,2.352,6.05c0,1.767-0.449,3.384-1.346,4.852
		c-0.899,1.469-2.159,2.672-3.784,3.612C-110.542-85.378-108.335-82.184-106.14-79.335z M-121.572-91.732l4.232,0.17
		c2.421-0.824,3.633-2.577,3.633-5.256c0-1.455-0.391-2.543-1.176-3.271s-1.988-1.116-3.612-1.176l-2.907,0.171L-121.572-91.732z"/>
	<path fill="#7C870E" d="M-84.682-82.755l0.343,0.47l-0.385,4.317h-17.27l0.299-8.206l-0.299-19.32h17.441l0.342,0.469l-0.428,4.318
		l-6.583-0.218l-4.959,0.046l-0.127,6.624l4.743,0.087l4.489-0.129l0.343,0.428l-0.387,4.317l-4.872-0.129l-4.404,0.042
		l-0.042,2.949l0.129,4.147l4.83,0.042L-84.682-82.755z"/>
	<path fill="#7C870E" d="M-58.607-77.968h-5.897l-0.684-3.591l-0.728-2.563l-5.387-0.128l-4.745,0.128l-0.726,2.266l-0.726,3.889
		h-5.729l9.318-27.526h6.883L-58.607-77.968z M-67.155-88.613l-3.25-11.455h-0.383l-3.763,11.455l3.677,0.088L-67.155-88.613z"/>
	<path fill="#7C870E" d="M-39.5-82.285l-0.385,4.317H-54.76l0.299-8.206l-0.299-19.32h5.897l-0.341,18.805l0.128,3.935h9.234
		L-39.5-82.285z"/>
</g>
</svg>
