<?xml version="1.0" encoding="utf-8"?>
<!-- Generator: Adobe Illustrator 15.1.0, SVG Export Plug-In . SVG Version: 6.00 Build 0)  -->
<!DOCTYPE svg PUBLIC "-//W3C//DTD SVG 1.1//EN" "http://www.w3.org/Graphics/SVG/1.1/DTD/svg11.dtd">
<svg version="1.1" id="Capa_1" xmlns="http://www.w3.org/2000/svg" xmlns:xlink="http://www.w3.org/1999/xlink" x="0px" y="0px"
	 width="250px" height="150px" viewBox="-75 -30 250 150" enable-background="new -75 -30 250 150" xml:space="preserve">
<path d="M29.421,75.272"/>
<g>
	<path fill-rule="evenodd" clip-rule="evenodd" fill="#383838" d="M61.255,7.512c5.215,2.632,14.812-0.882,20.63,0.992
		c4.644,1.496,4.93,8.922,0.596,11.109c4.968,1.28,5.16,10.496-0.199,11.506c5.456,1.952,3.95,12.363-3.173,10.712
		c1.525,1.356,2.551,5.149,0.396,6.942c-1.858,1.547-7.176,0.992-11.308,0.992c-11.546,0-27.673,1.299-34.318-2.578
		c0-10.25,0-20.499,0-30.749c6.645-1.904,9.882-7.458,13.886-12.894c3.387-4.599,7.58-8.748,8.133-14.68
		c0.33-3.544,0.019-7.824,3.968-7.936c3.848-0.107,6.169,5.137,6.15,8.927C65.983-3.803,61.614,2.045,61.255,7.512z"/>
	<path fill-rule="evenodd" clip-rule="evenodd" fill="#383838" d="M31.101,15.645c1.053,4.679,0.595,11.033,0.595,17.259
		c0,2.565,0,5.466,0,8.927c0,2.608,0.452,7.297-0.595,8.331c-1.261,1.247-6.291,0.596-8.332,0.596c-2.231,0-7.229,0.502-8.332-0.596
		c-1.043-1.038-0.595-5.892-0.595-8.331c0-3.114,0-6.542,0-8.927c0-6.066-0.454-12.964,0.595-17.259
		C19.214,14.971,27.171,14.899,31.101,15.645z M26.539,47.188c3.696-0.103,3.849-6.261-0.198-5.952
		C21.865,41.578,23.298,47.276,26.539,47.188z"/>
</g>
<g>
	<path fill="#7C870E" d="M27.218,97.205l-0.086,0.64c-1.853,0.657-3.748,1.041-5.686,1.155l-0.598-0.47
		c-2.052-3.534-3.718-6.613-5-9.232H11.7v0.553l0.256,8.722H6.143l0.299-8.206l-0.299-19.32L16.701,71
		c2.878,0,5.102,0.706,6.669,2.115c1.567,1.412,2.352,3.43,2.352,6.05c0,1.767-0.449,3.384-1.346,4.852
		c-0.899,1.469-2.159,2.672-3.784,3.612C22.815,91.162,25.022,94.356,27.218,97.205z M11.785,84.808l4.232,0.17
		c2.421-0.824,3.633-2.577,3.633-5.256c0-1.455-0.391-2.543-1.176-3.271s-1.988-1.116-3.612-1.176l-2.907,0.171L11.785,84.808z"/>
	<path fill="#7C870E" d="M48.676,93.785l0.343,0.47l-0.385,4.317h-17.27l0.299-8.206l-0.299-19.32h17.441l0.342,0.469l-0.428,4.318
		l-6.583-0.218l-4.959,0.046l-0.127,6.624l4.743,0.087l4.489-0.129l0.343,0.428l-0.387,4.317l-4.872-0.129l-4.404,0.042
		l-0.042,2.949l0.129,4.147l4.83,0.042L48.676,93.785z"/>
	<path fill="#7C870E" d="M74.75,98.572h-5.897l-0.684-3.591l-0.728-2.563l-5.387-0.128l-4.745,0.128l-0.726,2.266l-0.726,3.889
		H50.13l9.318-27.526h6.883L74.75,98.572z M66.202,87.927l-3.25-11.455h-0.383l-3.763,11.455l3.677,0.088L66.202,87.927z"/>
	<path fill="#7C870E" d="M93.857,94.255l-0.385,4.317H78.598l0.299-8.206l-0.299-19.32h5.897l-0.341,18.805l0.128,3.935h9.234
		L93.857,94.255z"/>
</g>
</svg>
