<?xml version="1.0" encoding="utf-8"?>
<!-- Generator: Adobe Illustrator 23.0.1, SVG Export Plug-In . SVG Version: 6.00 Build 0)  -->
<svg version="1.1" id="Layer_1" xmlns="http://www.w3.org/2000/svg" xmlns:xlink="http://www.w3.org/1999/xlink" x="0px" y="0px"
	 viewBox="0 0 25 25" style="enable-background:new 0 0 25 25;" xml:space="preserve">
<style type="text/css">
	.st0{fill:#C1272D;}
</style>
<g>
	<path class="st0" d="M12.5,2C18.3,2,23,6.7,23,12.5S18.3,23,12.5,23S2,18.3,2,12.5S6.7,2,12.5,2 M12.5,1C6.1,1,1,6.1,1,12.5
		S6.1,24,12.5,24S24,18.9,24,12.5S18.9,1,12.5,1L12.5,1z"/>
</g>
<g>
	<rect x="4" y="11" class="st0" width="17" height="3"/>
	<path class="st0" d="M20,12v1H5v-1H20L20,12z M21,11H4v3h17V11L21,11z"/>
</g>
</svg>
