<?xml version="1.0" encoding="utf-8"?>
<!-- Generator: Adobe Illustrator 15.1.0, SVG Export Plug-In . SVG Version: 6.00 Build 0)  -->
<!DOCTYPE svg PUBLIC "-//W3C//DTD SVG 1.1//EN" "http://www.w3.org/Graphics/SVG/1.1/DTD/svg11.dtd">
<svg version="1.1" id="Layer_1" xmlns="http://www.w3.org/2000/svg" xmlns:xlink="http://www.w3.org/1999/xlink" x="0px" y="0px"
	 width="15px" height="15px" viewBox="0 0 15 15" enable-background="new 0 0 15 15" xml:space="preserve">
<g>
	<path fill="#7C871A" d="M14.231,3.897c-0.001,0.04-0.003,0.079-0.003,0.119c-0.645,0.252-2.214,0.229-2.021,1.428
		c0.076,0.48,0.563,0.67,0.617,1.158c0.127,1.072-0.729,2.227-1.232,2.891c-0.501,0.656-1.055,1.245-1.733,1.733
		c-0.129,0.023-0.111-0.087-0.112-0.183c-0.785,0.133-0.656,1.237-1.25,1.574c-0.011,0.299-0.02,0.595-0.03,0.896
		c0.196-0.038,1.454-0.674,1.551,0.108c-0.162-0.229-0.601-0.242-0.775-0.021c0.255,0.241,0.814,0.198,0.874,0.624
		c-0.137-0.021-0.297-0.139-0.178,0.055c0.017,0.171-0.661-0.326-0.782,0.095C9.419,14.609,9.975,14.571,10.03,15
		c-0.364-0.346-0.796-0.188-1.489-0.17c-0.933,0.028-1.506-0.401-2.038,0.111c0.117-0.513,0.715-0.513,1.217-0.618
		c0.003-0.117,0.009-0.24,0.013-0.356c-0.436-0.239-0.823,0.106-1.144,0.198c0.148-0.459,0.671-0.519,1.215-0.557
		c0.117-0.65-0.045-1.036-0.376-1.269c-0.458,0.094-1.2,0.761-1.561,0.19c-1.85,0.435-2.84,1.787-4.508,2.421
		c-0.081-0.333-0.647-0.208-0.945-0.335c0.002-0.081,0.005-0.156,0.007-0.239c0.668-1.586,2.36-2.364,3.589-3.525
		c-0.342-0.009-0.683-0.021-0.708-0.323c1.059-1.468,2.919-3.192,4.339-4.521c0.548-0.511,1.23-0.907,1.601-1.381
		c0.31-0.396,0.381-0.785,0.753-1.051C10.854,2.964,13.486,3.411,14.231,3.897z M8.379,14.287c0.269-0.13,0.826-0.271,0.969-0.329
		C8.968,14.008,8.464,13.924,8.379,14.287z"/>
</g>
</svg>
