<?xml version="1.0" encoding="utf-8"?>
<!-- Generator: Adobe Illustrator 15.1.0, SVG Export Plug-In . SVG Version: 6.00 Build 0)  -->
<!DOCTYPE svg PUBLIC "-//W3C//DTD SVG 1.1//EN" "http://www.w3.org/Graphics/SVG/1.1/DTD/svg11.dtd">
<svg version="1.1" id="Layer_1" xmlns="http://www.w3.org/2000/svg" xmlns:xlink="http://www.w3.org/1999/xlink" x="0px" y="0px"
	 width="234.333px" height="59.114px" viewBox="0 0 234.333 59.114" enable-background="new 0 0 234.333 59.114"
	 xml:space="preserve">
<g>
	<path fill="#FFFFFF" d="M46.953,49.493h-9.996L30.2,27.812h-0.634l-6.829,21.681H12.671L0,4.159h9.363l0.704,5.561l8.025,29.918
		h0.634l7.673-24.427L23.16,4.159h9.715l1.056,6.547l8.166,28.933h0.633l9.151-29.285l1.126-6.195h8.87L46.953,49.493z"/>
	<path fill="#FFFFFF" d="M99.955,9.471c3.53,3.65,5.305,8.901,5.326,15.752c0.024,8.025-1.93,14.179-5.858,18.461
		c-3.931,4.281-9.555,6.434-16.876,6.455c-2.206,0.007-4.847-0.031-7.921-0.116c-3.074-0.086-5.713-0.194-7.919-0.328l0.453-13.518
		L66.572,4.361l18.23-0.335C91.374,4.006,96.425,5.821,99.955,9.471z M95.362,27.436c-0.017-5.537-0.932-9.558-2.745-12.064
		c-1.815-2.505-4.646-3.753-8.494-3.741c-2.488,0.008-5.139,0.133-7.954,0.375l-0.353,23.303l0.232,6.968
		c3.286,0.319,6.008,0.476,8.167,0.468C91.676,42.721,95.392,37.62,95.362,27.436z"/>
	<path fill="#FFFFFF" d="M152.921,49.493h-9.997l-6.756-21.681h-0.634l-6.829,21.681H118.64L105.968,4.159h9.362l0.705,5.561
		l8.025,29.918h0.633l7.673-24.427l-3.237-11.052h9.714l1.057,6.547l8.167,28.933h0.632l9.151-29.285l1.126-6.195h8.87
		L152.921,49.493z"/>
	<path fill="#FFFFFF" d="M197.179,5.919l-1.548,8.236l-1.408,0.563c-1.596-1.126-3.25-2.017-4.963-2.675
		c-1.713-0.656-3.272-0.985-4.68-0.985c-1.879,0-3.378,0.505-4.505,1.513c-1.127,1.01-1.69,2.172-1.69,3.485
		c0,1.362,0.623,2.511,1.866,3.449c1.243,0.939,3.202,2.042,5.878,3.309c2.579,1.174,4.68,2.264,6.299,3.273
		c1.62,1.01,3.002,2.334,4.153,3.977c1.15,1.644,1.727,3.661,1.727,6.053c0,2.583-0.704,4.94-2.112,7.075
		c-1.409,2.137-3.402,3.825-5.984,5.069c-2.582,1.242-5.561,1.864-8.94,1.864c-4.459,0-8.94-0.96-13.445-2.886l1.337-8.869
		l1.056-0.563c1.877,1.644,3.93,2.899,6.16,3.767c2.229,0.869,4.213,1.303,5.948,1.303c2.064,0,3.673-0.504,4.824-1.513
		c1.149-1.01,1.724-2.219,1.724-3.626c0-1.501-0.622-2.721-1.865-3.661c-1.243-0.938-3.25-2.063-6.019-3.38
		c-2.534-1.125-4.599-2.181-6.195-3.167c-1.597-0.986-2.956-2.3-4.083-3.942c-1.124-1.643-1.689-3.636-1.689-5.984
		c0-2.628,0.704-5.009,2.112-7.145c1.407-2.135,3.378-3.812,5.914-5.034c2.533-1.22,5.419-1.83,8.655-1.83
		C189.553,3.596,193.379,4.371,197.179,5.919z"/>
	<path fill="#86C21E" d="M228.947,7.293c4.176,3.183,5.925,6.998,5.241,11.444c-0.388,2.521-1.514,4.794-3.38,6.822
		c-1.867,2.028-4.312,3.491-7.332,4.394l-6.831,2.252l-0.403,0.393l-0.568,5.942l-8.988-0.012l-1.069-1.192l0.688-9.677l0.633-1.156
		l7.899-2.542c3.647-1.033,5.666-2.81,6.052-5.329c0.308-2.001-0.697-3.729-3.016-5.185c-2.319-1.456-6.456-2.792-12.412-4.011
		l-0.796-1.488l3.88-7.483L209.981,0C218.446,1.68,224.769,4.111,228.947,7.293z M214.734,47.613
		c1.002,1.368,1.346,3.091,1.029,5.165c-0.342,2.224-1.267,3.903-2.766,5.037c-1.503,1.134-3.402,1.526-5.698,1.174
		c-2.077-0.319-3.602-1.142-4.573-2.467c-0.974-1.323-1.293-3.061-0.963-5.209c0.352-2.299,1.278-3.997,2.773-5.095
		s3.356-1.477,5.579-1.135C212.19,45.403,213.729,46.247,214.734,47.613z"/>
</g>
</svg>
