<?xml version="1.0" encoding="utf-8"?>
<!-- Generator: Adobe Illustrator 15.1.0, SVG Export Plug-In . SVG Version: 6.00 Build 0)  -->
<!DOCTYPE svg PUBLIC "-//W3C//DTD SVG 1.1//EN" "http://www.w3.org/Graphics/SVG/1.1/DTD/svg11.dtd">
<svg version="1.1" id="Layer_1" xmlns="http://www.w3.org/2000/svg" xmlns:xlink="http://www.w3.org/1999/xlink" x="0px" y="0px"
	 width="557.427px" height="60.463px" viewBox="0 0 557.427 60.463" enable-background="new 0 0 557.427 60.463"
	 xml:space="preserve">
<path fill="#FFFFFF" d="M48.024,50.622H37.8l-6.912-22.176H30.24l-6.984,22.176H12.96L0,4.254h9.576l0.72,5.688l8.208,30.6h0.648
	L27,15.558L23.688,4.254h9.936l1.08,6.696l8.352,29.592h0.648l9.36-29.952l1.152-6.336h9.072L48.024,50.622z"/>
<path fill="#FFFFFF" d="M101.232,38.958l0.36,11.664h-9.072l0.36-10.8l-0.072-3.528l-8.136-0.071L77.4,36.366l-0.072,2.592
	l0.36,11.664h-9.072l0.36-10.8l-0.36-25.56h9.216l-0.288,14.4l7.704,0.144l7.488-0.072l-0.216-14.472h9.216L101.232,38.958z"/>
<path fill="#FFFFFF" d="M143.136,50.622h-9.144l-1.008-5.256l-0.648-2.089l-7.344-0.071l-6.48,0.144l-0.504,1.513l-1.08,5.76h-8.856
	l12.744-36.36h10.728L143.136,50.622z M130.392,36.438l-4.104-13.896h-0.576l-4.824,13.896l4.68,0.072L130.392,36.438z"/>
<path fill="#FFFFFF" d="M171.719,14.982l-0.504,6.912l-7.344-0.504h-2.088l-0.216,17.568l0.288,11.664h-9l0.36-10.8l-0.144-18.432
	h-2.088l-7.488,0.504l-0.576-0.72l0.504-6.912h27.792L171.719,14.982z"/>
<path fill="#FFFFFF" d="M223.937,9.687c3.611,3.733,5.426,9.104,5.448,16.112c0.024,8.208-1.974,14.502-5.992,18.881
	c-4.02,4.38-9.773,6.581-17.261,6.603c-2.256,0.007-4.957-0.032-8.102-0.119c-3.144-0.088-5.844-0.199-8.1-0.336l0.463-13.825
	l-0.6-32.543l18.646-0.343C215.16,4.097,220.326,5.953,223.937,9.687z M219.239,28.061c-0.017-5.663-0.953-9.776-2.808-12.34
	c-1.857-2.562-4.752-3.838-8.688-3.826c-2.545,0.008-5.255,0.136-8.135,0.383l-0.361,23.834l0.237,7.127
	c3.361,0.326,6.145,0.486,8.353,0.479C215.469,43.695,219.27,38.477,219.239,28.061z"/>
<path fill="#FFFFFF" d="M264.957,18.366c2.977,3.121,4.465,7.536,4.465,13.248c0,6.24-1.619,11.077-4.859,14.508
	c-3.24,3.433-7.812,5.147-13.717,5.147c-5.425,0-9.625-1.595-12.6-4.787c-2.977-3.191-4.464-7.691-4.464-13.5
	c0-6.144,1.607-10.896,4.824-14.256c3.215-3.359,7.776-5.04,13.679-5.04C257.758,13.686,261.98,15.247,264.957,18.366z
	 M245.122,23.442c-1.272,1.609-1.908,4.381-1.908,8.316c0,3.168,0.275,5.652,0.828,7.452c0.551,1.8,1.44,3.085,2.663,3.853
	c1.225,0.768,2.869,1.151,4.934,1.151c3.023,0,5.17-0.792,6.443-2.376c1.271-1.584,1.908-4.367,1.908-8.352
	c0-3.168-0.289-5.652-0.865-7.452c-0.576-1.8-1.465-3.083-2.664-3.852c-1.199-0.767-2.855-1.152-4.967-1.152
	C248.518,21.03,246.393,21.834,245.122,23.442z"/>
<path fill="#FFFFFF" d="M331.989,50.622h-10.224l-6.912-22.176h-0.647l-6.984,22.176h-10.296l-12.96-46.368h9.576l0.72,5.688
	l8.208,30.6h0.647l7.849-24.984l-3.312-11.304h9.937l1.08,6.696l8.352,29.592h0.648l9.359-29.952l1.152-6.336h9.072L331.989,50.622z
	"/>
<path fill="#FFFFFF" d="M377.565,43.277l0.576,0.576l-0.648,6.769h-24.912l0.36-10.8l-0.36-25.56h25.272l0.504,0.72l-0.576,6.696
	l-9.36-0.36h-6.768l-0.145,7.344l6.48,0.072l6.264-0.216l0.504,0.648l-0.575,6.84l-6.841-0.216h-5.976l-0.072,3.168l0.145,4.608
	h6.336L377.565,43.277z"/>
<path fill="#FFFFFF" d="M423.284,6.054l-1.584,8.424l-1.439,0.576c-1.633-1.152-3.325-2.063-5.076-2.736
	c-1.753-0.671-3.349-1.008-4.788-1.008c-1.921,0-3.456,0.517-4.608,1.548c-1.151,1.033-1.728,2.221-1.728,3.564
	c0,1.393,0.636,2.568,1.908,3.528c1.271,0.96,3.275,2.088,6.012,3.384c2.639,1.201,4.788,2.316,6.444,3.348
	c1.655,1.033,3.07,2.388,4.247,4.068c1.176,1.681,1.765,3.744,1.765,6.191c0,2.641-0.72,5.053-2.16,7.236
	c-1.44,2.186-3.48,3.913-6.12,5.185c-2.641,1.271-5.688,1.907-9.144,1.907c-4.562,0-9.145-0.982-13.752-2.951l1.367-9.072
	l1.08-0.576c1.92,1.681,4.02,2.965,6.301,3.852c2.278,0.889,4.308,1.332,6.084,1.332c2.111,0,3.755-0.515,4.932-1.547
	c1.176-1.032,1.764-2.269,1.764-3.709c0-1.535-0.637-2.783-1.908-3.744c-1.271-0.959-3.324-2.111-6.155-3.456
	c-2.593-1.152-4.705-2.232-6.336-3.24c-1.633-1.008-3.024-2.352-4.177-4.032c-1.151-1.68-1.728-3.719-1.728-6.12
	c0-2.688,0.72-5.123,2.16-7.308c1.439-2.184,3.456-3.899,6.048-5.148c2.592-1.248,5.544-1.872,8.855-1.872
	C415.483,3.678,419.396,4.47,423.284,6.054z"/>
<path fill="#FFFFFF" d="M457.124,43.277l0.576,0.576l-0.648,6.769H432.14l0.36-10.8l-0.36-25.56h25.272l0.504,0.72l-0.576,6.696
	l-9.36-0.36h-6.768l-0.145,7.344l6.48,0.072l6.264-0.216l0.504,0.648l-0.575,6.84l-6.841-0.216h-5.976l-0.072,3.168l0.145,4.608
	h6.336L457.124,43.277z"/>
<path fill="#FFFFFF" d="M486.644,43.854l-0.576,6.769h-21.384l0.433-10.8l-0.433-25.56h9.216l-0.504,24.696l0.145,4.248h12.6
	L486.644,43.854z"/>
<path fill="#FFFFFF" d="M514.578,43.854l-0.576,6.769h-21.384l0.433-10.8l-0.433-25.56h9.216l-0.504,24.696l0.145,4.248h12.6
	L514.578,43.854z"/>
<path fill="#FFFFFF" d="M551.918,7.459c4.272,3.256,6.061,7.157,5.362,11.705c-0.396,2.578-1.55,4.904-3.458,6.977
	c-1.91,2.075-4.409,3.571-7.499,4.494l-6.987,2.303l-0.411,0.402l-0.583,6.078l-9.193-0.013l-1.094-1.218l0.705-9.899l0.646-1.182
	l8.081-2.6c3.73-1.057,5.794-2.874,6.19-5.451c0.313-2.047-0.714-3.814-3.084-5.303c-2.373-1.489-6.604-2.856-12.696-4.103
	l-0.814-1.522l3.969-7.654L532.52,0C541.179,1.718,547.645,4.205,551.918,7.459z M537.381,48.699
	c1.026,1.399,1.378,3.162,1.053,5.282c-0.35,2.275-1.294,3.993-2.828,5.153c-1.537,1.159-3.48,1.561-5.829,1.2
	c-2.124-0.326-3.683-1.167-4.676-2.522c-0.997-1.354-1.324-3.131-0.986-5.329c0.36-2.351,1.307-4.088,2.836-5.21
	c1.53-1.123,3.434-1.51,5.707-1.16C534.779,46.438,536.354,47.302,537.381,48.699z"/>
</svg>
