<?xml version="1.0" encoding="utf-8"?>
<!-- Generator: Adobe Illustrator 15.1.0, SVG Export Plug-In . SVG Version: 6.00 Build 0)  -->
<!DOCTYPE svg PUBLIC "-//W3C//DTD SVG 1.1//EN" "http://www.w3.org/Graphics/SVG/1.1/DTD/svg11.dtd">
<svg version="1.1" id="Layer_1" xmlns="http://www.w3.org/2000/svg" xmlns:xlink="http://www.w3.org/1999/xlink" x="0px" y="0px"
	 width="557.426px" height="60.463px" viewBox="0 0 557.426 60.463" enable-background="new 0 0 557.426 60.463"
	 xml:space="preserve">
<rect width="557.427" height="60.462"/>
<g>
	<path fill="#FFFFFF" d="M53.167,50.167h-9.996l-6.757-21.681H35.78l-6.829,21.681H18.885L6.214,4.833h9.363l0.704,5.561
		l8.025,29.918h0.634l7.673-24.427L29.374,4.833h9.715l1.056,6.547l8.166,28.933h0.633l9.151-29.285l1.126-6.195h8.87L53.167,50.167
		z"/>
	<path fill="#FFFFFF" d="M105.189,38.764l0.352,11.403h-8.869l0.352-10.56l-0.07-3.448l-7.955-0.069l-7.11,0.14l-0.07,2.534
		l0.352,11.403H73.3l0.352-10.56L73.3,14.618h9.01l-0.282,14.079l7.533,0.141l7.321-0.071l-0.211-14.149h9.01L105.189,38.764z"/>
	<path fill="#FFFFFF" d="M146.159,50.167h-8.94l-0.986-5.139l-0.633-2.043l-7.18-0.068l-6.335,0.141l-0.493,1.479l-1.056,5.632
		h-8.659l12.46-35.549h10.489L146.159,50.167z M133.699,36.3l-4.012-13.586h-0.563L124.407,36.3l4.576,0.07L133.699,36.3z"/>
	<path fill="#FFFFFF" d="M174.104,15.322l-0.493,6.758l-7.18-0.493h-2.042l-0.211,17.176l0.282,11.403h-8.799l0.352-10.56
		l-0.141-18.02h-2.042l-7.321,0.493l-0.563-0.704l0.493-6.758h27.172L174.104,15.322z"/>
	<path fill="#FFFFFF" d="M225.158,10.145c3.53,3.65,5.305,8.901,5.326,15.752c0.024,8.025-1.93,14.179-5.858,18.461
		c-3.931,4.281-9.555,6.434-16.876,6.455c-2.206,0.007-4.847-0.031-7.921-0.116c-3.074-0.086-5.713-0.194-7.919-0.328l0.453-13.518
		l-0.587-31.817l18.23-0.335C216.577,4.68,221.628,6.495,225.158,10.145z M220.565,28.109c-0.017-5.537-0.932-9.558-2.745-12.064
		c-1.815-2.505-4.646-3.753-8.494-3.741c-2.488,0.008-5.139,0.133-7.954,0.375l-0.353,23.303l0.232,6.968
		c3.286,0.319,6.008,0.476,8.167,0.468C216.879,43.395,220.595,38.294,220.565,28.109z"/>
	<path fill="#FFFFFF" d="M265.264,18.631c2.911,3.051,4.365,7.368,4.365,12.952c0,6.102-1.583,10.83-4.75,14.185
		c-3.167,3.357-7.638,5.032-13.411,5.032c-5.304,0-9.41-1.56-12.319-4.681c-2.911-3.119-4.364-7.519-4.364-13.199
		c0-6.006,1.571-10.652,4.716-13.938c3.144-3.284,7.603-4.928,13.375-4.928C258.225,14.055,262.353,15.581,265.264,18.631z
		 M245.871,23.593c-1.244,1.573-1.866,4.284-1.866,8.13c0,3.098,0.269,5.526,0.81,7.286c0.539,1.76,1.408,3.017,2.604,3.768
		c1.198,0.751,2.806,1.125,4.824,1.125c2.956,0,5.055-0.774,6.299-2.323c1.243-1.549,1.866-4.269,1.866-8.166
		c0-3.097-0.283-5.526-0.846-7.285c-0.563-1.76-1.432-3.015-2.604-3.766c-1.172-0.75-2.792-1.127-4.856-1.127
		C249.191,21.235,247.114,22.021,245.871,23.593z"/>
	<path fill="#FFFFFF" d="M330.801,50.167h-9.997l-6.756-21.681h-0.634l-6.829,21.681H296.52L283.848,4.833h9.362l0.705,5.561
		l8.025,29.918h0.633l7.673-24.427l-3.237-11.052h9.714l1.057,6.547l8.167,28.933h0.632l9.151-29.285l1.126-6.195h8.87
		L330.801,50.167z"/>
	<path fill="#FFFFFF" d="M375.361,42.985l0.563,0.563l-0.634,6.618h-24.356l0.353-10.56l-0.353-24.989h24.708l0.494,0.704
		l-0.563,6.547l-9.152-0.353h-6.616l-0.142,7.181l6.336,0.07l6.124-0.211l0.492,0.634l-0.562,6.687l-6.688-0.211h-5.844l-0.07,3.098
		l0.143,4.505h6.195L375.361,42.985z"/>
	<path fill="#FFFFFF" d="M420.06,6.593l-1.548,8.236l-1.408,0.563c-1.596-1.126-3.25-2.017-4.963-2.675
		c-1.713-0.656-3.272-0.985-4.68-0.985c-1.879,0-3.378,0.505-4.505,1.513c-1.127,1.01-1.69,2.172-1.69,3.485
		c0,1.362,0.623,2.511,1.866,3.449c1.243,0.939,3.202,2.042,5.878,3.309c2.579,1.174,4.68,2.264,6.299,3.273
		c1.62,1.01,3.002,2.334,4.153,3.977c1.15,1.644,1.727,3.661,1.727,6.053c0,2.583-0.704,4.94-2.112,7.075
		c-1.409,2.137-3.402,3.825-5.984,5.069c-2.582,1.242-5.561,1.864-8.94,1.864c-4.459,0-8.94-0.96-13.445-2.886l1.337-8.869
		l1.056-0.563c1.877,1.644,3.93,2.899,6.16,3.767c2.229,0.869,4.213,1.303,5.948,1.303c2.064,0,3.673-0.504,4.824-1.513
		c1.149-1.01,1.724-2.219,1.724-3.626c0-1.501-0.622-2.721-1.865-3.661c-1.243-0.938-3.25-2.063-6.019-3.38
		c-2.534-1.125-4.599-2.181-6.195-3.167c-1.597-0.986-2.956-2.3-4.083-3.942c-1.124-1.643-1.689-3.636-1.689-5.984
		c0-2.628,0.704-5.009,2.112-7.145c1.407-2.135,3.378-3.812,5.914-5.034c2.533-1.22,5.419-1.83,8.655-1.83
		C412.434,4.27,416.26,5.044,420.06,6.593z"/>
	<path fill="#FFFFFF" d="M453.146,42.985l0.563,0.563l-0.634,6.618h-24.357l0.354-10.56l-0.354-24.989h24.71l0.493,0.704
		l-0.563,6.547l-9.15-0.353h-6.619l-0.142,7.181l6.337,0.07l6.124-0.211l0.492,0.634l-0.562,6.687l-6.689-0.211h-5.843l-0.071,3.098
		l0.144,4.505h6.194L453.146,42.985z"/>
	<path fill="#FFFFFF" d="M482.007,43.551l-0.562,6.617h-20.908l0.424-10.559l-0.424-24.99h9.012l-0.493,24.146l0.142,4.153h12.318
		L482.007,43.551z"/>
	<path fill="#FFFFFF" d="M509.32,43.551l-0.563,6.617h-20.907l0.424-10.559l-0.424-24.99h9.011l-0.492,24.146l0.141,4.153h12.319
		L509.32,43.551z"/>
	<path fill="#86C800" d="M545.828,7.967c4.176,3.183,5.925,6.998,5.241,11.444c-0.388,2.521-1.514,4.794-3.38,6.822
		c-1.867,2.028-4.312,3.491-7.332,4.394l-6.831,2.252l-0.403,0.393l-0.568,5.942l-8.988-0.012l-1.069-1.192l0.688-9.677l0.633-1.156
		l7.899-2.542c3.647-1.033,5.666-2.81,6.052-5.329c0.308-2.001-0.697-3.729-3.016-5.185c-2.319-1.456-6.456-2.792-12.412-4.011
		l-0.796-1.488l3.88-7.483l1.437-0.463C535.327,2.354,541.649,4.785,545.828,7.967z M531.615,48.287
		c1.002,1.368,1.346,3.091,1.029,5.165c-0.342,2.224-1.267,3.903-2.766,5.037c-1.503,1.134-3.402,1.526-5.698,1.174
		c-2.077-0.319-3.602-1.142-4.573-2.467c-0.974-1.323-1.293-3.061-0.963-5.209c0.352-2.299,1.278-3.997,2.773-5.095
		s3.356-1.477,5.579-1.135C529.071,46.077,530.61,46.921,531.615,48.287z"/>
</g>
</svg>
