<?xml version="1.0" encoding="utf-8"?>
<!-- Generator: Adobe Illustrator 15.1.0, SVG Export Plug-In . SVG Version: 6.00 Build 0)  -->
<!DOCTYPE svg PUBLIC "-//W3C//DTD SVG 1.1//EN" "http://www.w3.org/Graphics/SVG/1.1/DTD/svg11.dtd">
<svg version="1.1" id="Layer_1" xmlns="http://www.w3.org/2000/svg" xmlns:xlink="http://www.w3.org/1999/xlink" x="0px" y="0px"
	 width="1090.467px" height="140.643px" viewBox="253.171 27.574 1090.467 140.643"
	 enable-background="new 253.171 27.574 1090.467 140.643" xml:space="preserve">
<g>
	<path fill="#FFFFFF" d="M263.867,154.808V53.916c0-3.725-1.333-6.864-3.99-9.419c-1.812-1.916-4.048-3.138-6.706-3.671h30.969
		v109.191h12.612V40.826h20.436v109.191h12.77V40.826h20.274v113.981c0,3.727-1.331,6.864-3.991,9.417
		c-2.662,2.662-5.801,3.99-9.418,3.99h-59.704c-3.619,0-6.761-1.328-9.419-3.99c-2.555-2.339-3.831-5.268-3.831-8.78
		L263.867,154.808L263.867,154.808z"/>
	<path fill="#FFFFFF" d="M390.458,62.058v38.792h10.696V62.058h31.288c-2.554,0.426-4.896,1.65-7.022,3.671
		c-2.555,2.769-3.831,5.961-3.831,9.578v92.909h-20.435v-49.327h-10.696v49.327h-31.129c2.447-0.529,4.63-1.807,6.546-3.83
		c2.658-2.554,3.99-5.693,3.99-9.419v-79.66c0-3.724-1.332-6.917-3.99-9.578c-1.916-1.916-4.151-3.138-6.706-3.671H390.458z"/>
	<path fill="#FFFFFF" d="M443.938,62.058h61.779c-3.727,0-6.866,1.117-9.419,3.353c-2.661,2.13-3.99,4.736-3.99,7.821v83.811
		c0,2.874,1.329,5.482,3.99,7.823c2.553,2.233,5.692,3.352,9.419,3.352h-46.774c3.514-0.104,6.546-1.221,9.101-3.352
		c2.658-2.235,3.991-4.842,3.991-7.823v-19.955h-14.849l-2.871,31.129h-30.651c3.938,0,6.945-0.982,9.021-2.953
		c2.075-1.967,3.377-4.494,3.911-7.582L443.938,62.058z M471.873,122.081V77.063h-10.377l-3.032,45.019H471.873z"/>
	<path fill="#FFFFFF" d="M550.952,80.096h-6.125v73.912c0,4.047,1.351,7.451,4.052,10.217c1.835,2.023,4.154,3.354,6.964,3.99
		h-42.305c2.658-0.637,5.001-1.967,7.022-3.99c2.66-2.978,3.991-6.384,3.991-10.217l0.16-73.912h-6.283
		c-2.688,0.534-4.996,1.812-6.93,3.832c-2.688,2.554-4.027,5.694-4.027,9.418V62.058h54.596v31.289c0-3.724-1.344-6.864-4.028-9.418
		C556.104,81.907,553.742,80.63,550.952,80.096z"/>
	<path fill="#FFFFFF" d="M664.395,40.826c3.616,0,6.812,1.276,9.578,3.831c2.557,2.769,3.834,5.961,3.834,9.577v100.574
		c0,3.727-1.277,6.864-3.834,9.417c-1.383,1.277-2.847,2.262-4.388,2.953c-1.546,0.693-3.273,1.037-5.189,1.037h-57.63
		c3.303,0,6.279-1.328,8.94-3.99c2.658-2.553,3.991-5.691,3.991-9.417V54.234c0-3.724-1.333-6.917-3.991-9.577
		c-2.555-2.555-5.691-3.831-9.42-3.831L664.395,40.826L664.395,40.826z M656.892,150.018V58.865h-17.079v91.152H656.892z"/>
	<path fill="#FFFFFF" d="M732.558,62.058c3.725,0,6.865,1.332,9.42,3.991c2.658,2.554,3.992,5.694,3.992,9.418v79.341
		c0,3.727-1.334,6.864-3.992,9.417c-2.66,2.662-5.803,3.99-9.42,3.99h-24.742c-3.621,0-6.76-1.328-9.42-3.99
		c-2.66-2.553-3.99-5.691-3.99-9.417V75.467c0-3.724,1.33-6.864,3.99-9.418c2.555-2.659,5.691-3.991,9.42-3.991H732.558z
		 M714.839,150.018h10.695V80.096h-10.695V150.018z"/>
	<path fill="#FFFFFF" d="M806.949,154.808V53.916c0-3.725-1.334-6.864-3.992-9.419c-1.812-1.916-4.047-3.138-6.705-3.671h30.969
		v109.191h12.613V40.826h20.434v109.191h12.771V40.826h20.273v113.981c0,3.727-1.332,6.864-3.99,9.417
		c-2.662,2.662-5.803,3.99-9.418,3.99h-59.705c-3.619,0-6.762-1.328-9.418-3.99c-2.557-2.339-3.832-5.268-3.832-8.78V154.808
		L806.949,154.808z"/>
	<path fill="#FFFFFF" d="M913.107,62.058h38.15c3.725,0,6.865-1.276,9.42-3.832c2.658-2.659,3.992-5.851,3.992-9.578v31.449h-31.131
		v20.753h31.131v18.04h-30.973c0,0.638,0,1.916,0,3.831s0.025,4.285,0.08,7.104c0.053,2.82,0.08,5.961,0.08,9.418
		c0,3.46,0,7.051,0,10.775h30.812v18.198h-64.016c1.811,0,3.404-0.344,4.787-1.037c1.383-0.69,2.715-1.676,3.99-2.953
		c1.383-1.276,2.314-2.713,2.795-4.31c0.48-1.598,0.721-3.298,0.721-5.107V75.467c0-3.724-1.334-6.864-3.992-9.418
		c-2.555-2.659-5.691-3.991-9.42-3.991H913.107z"/>
	<path fill="#FFFFFF" d="M1043.529,88.557h23.943c3.617,0,6.812,1.277,9.578,3.831c2.555,2.771,3.832,5.962,3.832,9.579v52.841
		c0,3.727-1.277,6.864-3.832,9.417c-1.383,1.277-2.846,2.262-4.389,2.953c-1.545,0.693-3.273,1.037-5.189,1.037h-44.379v-31.289
		c0,3.727,1.33,6.865,3.99,9.419c1.916,2.13,4.203,3.354,6.865,3.672h26.66v-43.421h-24.105c-3.729,0-6.865-1.33-9.42-3.991
		c-2.66-2.555-3.99-5.691-3.99-9.419V54.234c0-3.724,1.33-6.917,3.99-9.577c2.555-2.555,5.691-3.831,9.42-3.831h33.523
		c2.555-0.425,4.895-1.702,7.023-3.832c2.555-2.556,3.83-5.692,3.83-9.419v17.879c0,3.727-1.275,6.863-3.83,9.419
		c-2.66,2.661-5.855,3.99-9.578,3.99h-23.945v29.694H1043.529z"/>
	<path fill="#FFFFFF" d="M1097.644,62.058h38.152c3.723,0,6.865-1.276,9.42-3.832c2.658-2.659,3.99-5.851,3.99-9.578v31.449h-31.131
		v20.753h31.131v18.04h-30.971c0,0.638,0,1.916,0,3.831s0.025,4.285,0.08,7.104c0.053,2.82,0.078,5.961,0.078,9.418
		c0,3.46,0,7.051,0,10.775h30.812v18.198h-64.016c1.811,0,3.406-0.344,4.787-1.037c1.383-0.69,2.717-1.676,3.992-2.953
		c1.381-1.276,2.314-2.713,2.793-4.31c0.48-1.598,0.721-3.298,0.721-5.107V75.467c0-3.724-1.334-6.864-3.99-9.418
		c-2.557-2.659-5.693-3.991-9.42-3.991H1097.644z"/>
	<path fill="#FFFFFF" d="M1182.888,62.058v87.96h20.275c2.658-0.318,4.949-1.542,6.865-3.672c2.656-2.554,3.99-5.692,3.99-9.419
		v31.289h-51.562V75.307c0-3.724-1.334-6.917-3.992-9.578c-1.916-1.916-4.148-3.138-6.705-3.671H1182.888z"/>
	<path fill="#FFFFFF" d="M1244.507,62.058v87.96h20.273c2.66-0.318,4.949-1.542,6.865-3.672c2.658-2.554,3.99-5.692,3.99-9.419
		v31.289h-51.562V75.307c0-3.724-1.332-6.917-3.99-9.578c-1.918-1.916-4.15-3.138-6.705-3.671H1244.507z"/>
	<path fill="#FFFFFF" d="M1323.367,95.262V58.865h-17.082V78.82h-20.436V53.916c0-3.725,1.332-6.864,3.992-9.419
		c1.809-1.916,4.096-3.138,6.865-3.671h33.521c3.617,0,6.812,1.276,9.578,3.831c2.555,2.769,3.832,5.961,3.832,9.577v45.658
		c0,3.727-1.277,6.919-3.832,9.578c-2.768,2.554-5.961,3.832-9.578,3.832h-8.938v22.988h-20.273v-27.617
		c0-3.724,1.328-6.864,3.99-9.419c2.555-2.659,5.691-3.991,9.418-3.991h8.941V95.262z M1311.234,144.91
		c3.191,0,5.906,1.146,8.143,3.432c2.234,2.29,3.352,5.029,3.352,8.222c0,3.193-1.115,5.936-3.352,8.222
		c-2.236,2.291-4.949,3.432-8.143,3.432s-5.934-1.141-8.223-3.432c-2.289-2.287-3.432-5.028-3.432-8.222
		c0-3.191,1.143-5.932,3.432-8.222C1305.3,146.055,1308.041,144.91,1311.234,144.91z"/>
</g>
</svg>
